<svg width="483" height="359" viewBox="0 0 483 359" fill="none" xmlns="http://www.w3.org/2000/svg">
<path d="M411.655 358.555H183.217C177.095 358.555 172.086 353.548 172.086 347.429V13.9987C172.086 7.87944 177.095 2.8728 183.217 2.8728H411.655C417.778 2.8728 422.787 7.87944 422.787 13.9987V347.429C422.787 353.548 417.778 358.555 411.655 358.555Z" fill="#9D99E5"/>
<path d="M412.882 17.6545H183.119V340.958H412.882V17.6545Z" fill="#808080"/>
<path d="M409.407 20.269H186.405V338.811H409.407V20.269Z" fill="#F4F1F1"/>
<path d="M354.479 8.2688H239.222C230.961 8.2688 224.199 15.0266 224.199 23.2842C224.199 31.5419 230.961 38.2997 239.222 38.2997H354.479C362.741 38.2997 369.502 31.5419 369.502 23.2842C369.502 15.0266 362.741 8.2688 354.479 8.2688ZM354.479 34.5458H239.222C233.009 34.5458 227.955 29.4947 227.955 23.2842C227.955 17.0738 233.009 12.0227 239.222 12.0227H354.479C360.693 12.0227 365.746 17.0738 365.746 23.2842C365.746 29.4947 360.69 34.5458 354.479 34.5458Z" fill="#999999"/>
<path d="M356.509 13.9007H236.956C236.003 13.9007 235.231 13.1286 235.231 12.1762V2.63916H358.235V12.1762C358.235 13.1286 357.462 13.9007 356.509 13.9007Z" fill="#333333"/>
<path d="M298.376 110.562C281.16 110.562 267.156 96.5634 267.156 79.3584C267.156 62.1511 281.162 48.1548 298.376 48.1548C315.59 48.1548 329.595 62.1533 329.595 79.3584C329.595 96.5634 315.59 110.562 298.376 110.562ZM298.376 53.315C284.009 53.315 272.319 64.9971 272.319 79.3584C272.319 93.7174 284.007 105.402 298.376 105.402C312.744 105.402 324.433 93.7196 324.433 79.3584C324.43 64.9971 312.742 53.315 298.376 53.315Z" fill="#4884E4"/>
<path d="M393.012 125.108H206.081C205.327 125.108 204.71 125.724 204.71 126.479V128.428C204.71 129.182 205.327 129.799 206.081 129.799H393.012C393.767 129.799 394.384 129.182 394.384 128.428V126.479C394.384 125.727 393.767 125.108 393.012 125.108Z" fill="#999999"/>
<path d="M393.012 134.963H206.081C205.327 134.963 204.71 135.58 204.71 136.334V138.283C204.71 139.037 205.327 139.654 206.081 139.654H393.012C393.767 139.654 394.384 139.037 394.384 138.283V136.334C394.384 135.58 393.767 134.963 393.012 134.963Z" fill="#999999"/>
<path d="M359.497 144.816H206.081C205.327 144.816 204.71 145.433 204.71 146.187V148.136C204.71 148.89 205.327 149.507 206.081 149.507H359.497C360.252 149.507 360.869 148.89 360.869 148.136V146.187C360.871 145.433 360.252 144.816 359.497 144.816Z" fill="#999999"/>
<path d="M393.012 166.329H206.081C205.327 166.329 204.71 166.946 204.71 167.7V169.649C204.71 170.404 205.327 171.02 206.081 171.02H393.012C393.767 171.02 394.384 170.404 394.384 169.649V167.7C394.384 166.946 393.767 166.329 393.012 166.329Z" fill="#999999"/>
<path d="M393.012 183.223H206.081C205.327 183.223 204.71 183.839 204.71 184.593V186.543C204.71 187.297 205.327 187.913 206.081 187.913H393.012C393.767 187.913 394.384 187.297 394.384 186.543V184.593C394.384 183.839 393.767 183.223 393.012 183.223Z" fill="#999999"/>
<path d="M273.218 175.245H206.081C205.327 175.245 204.71 175.862 204.71 176.616V178.565C204.71 179.32 205.327 179.936 206.081 179.936H273.218C273.973 179.936 274.59 179.32 274.59 178.565V176.616C274.59 175.862 273.973 175.245 273.218 175.245Z" fill="#999999"/>
<path d="M69.3498 71.6193L106.307 70.7292L112.763 74.2895L112.54 78.6286L68.5773 75.7114L69.3498 71.6193Z" fill="#525159"/>
<path d="M96.4441 12.2585C101.834 16.6199 105.839 22.6657 107.754 29.3278C108.123 30.6117 108.11 32.4609 106.808 32.7613C105.85 32.9815 105.022 32.1071 104.43 31.3216C102.513 28.7849 100.594 26.2482 98.6771 23.7115C97.4704 22.116 96.2482 20.4894 95.5669 18.6114C95.1796 17.5411 94.9747 16.4018 94.9681 15.2625C94.9636 14.4659 95.0883 13.5959 95.6671 13.0485C96.246 12.5011 97.397 12.5612 97.6664 13.311L96.4441 12.2585Z" fill="#4D2F3E"/>
<path d="M108.943 44.8923C111.846 44.4937 113.713 40.6323 113.113 36.2675C112.513 31.9028 109.673 28.6876 106.771 29.0862C103.868 29.4848 102.001 33.3462 102.601 37.7109C103.201 42.0756 106.04 45.2908 108.943 44.8923Z" fill="#F0BA92"/>
<path d="M65.387 58.621C68.1017 57.5193 68.9581 53.3171 67.2998 49.2352C65.6415 45.1533 62.0965 42.7374 59.3818 43.8392C56.6671 44.9409 55.8107 49.143 57.469 53.2249C59.1273 57.3068 62.6723 59.7227 65.387 58.621Z" fill="#F0BA92"/>
<path d="M63.1897 48.9026C64.3718 50.527 63.5904 53.1015 63.1785 53.64C62.8691 54.045 64.305 49.9084 61.6735 48.8803C59.8012 48.1505 57.2432 48.7268 58.599 47.7433C59.9526 46.7597 62.0075 47.2782 63.1897 48.9026Z" fill="#4D2F3E"/>
<path d="M104.966 34.1719C104.265 36.0544 105.71 38.3219 106.251 38.7313C106.656 39.0384 104.161 35.4403 106.42 33.7425C108.025 32.5364 110.646 32.4051 109.076 31.8221C107.507 31.2391 105.666 32.2917 104.966 34.1719Z" fill="#4D2F3E"/>
<path d="M39.3257 89.937L67.5154 77.5161H113.892L147.841 89.937C147.841 89.937 146.022 135.079 144.809 147.197C143.595 159.316 142.082 210.517 142.082 210.517C142.082 210.517 130.563 218.394 119.349 218.999C108.132 219.604 67.5154 214.455 67.5154 214.455L48.1153 137.2L39.3257 89.937Z" fill="#FDEEDF"/>
<path d="M70.5477 72.3647H107.529L106.921 86.9062L73.5799 84.1804L70.5477 72.3647Z" fill="#221A38"/>
<path d="M72.3665 64.8616L73.8826 84.7857L106.316 89.937V71.9955C103.76 74.1539 100.607 75.509 97.2212 75.6982C87.8862 75.9807 78.2885 72.0377 72.3665 64.8616Z" fill="#F0BA92"/>
<path d="M72.3665 56.0052V64.8614C78.2885 72.0376 87.8862 75.9806 97.2234 75.698C100.61 75.5111 103.76 74.1559 106.318 71.9953V54.1873L72.3665 56.0052Z" fill="#4D2F3E"/>
<path d="M105.837 35.1398C110.327 51.6929 104.276 67.7386 92.321 70.9784C80.3657 74.2205 67.03 63.4284 62.5395 46.8754C58.049 30.3223 63.744 17.4364 75.7015 14.1943C87.6569 10.9545 101.344 18.5868 105.837 35.1398Z" fill="#FFCCA9"/>
<path d="M62.3815 20.4626C62.6598 22.986 64.7525 25.022 67.1191 25.9388C69.4879 26.8555 72.1016 26.8511 74.6396 26.7421C78.8896 26.5596 83.1864 26.099 87.1537 24.5636C91.1188 23.026 94.7588 20.3024 96.6712 16.5063C98.0271 13.8138 98.4523 10.6652 97.8579 7.71018C97.6263 6.56199 97.2389 5.4316 96.58 4.46365C95.7941 3.31101 94.6542 2.43875 93.4342 1.7623C89.0639 -0.654238 83.4202 -0.580808 79.1167 1.94921C76.8147 3.30211 74.9401 5.25804 72.8697 6.94249C70.3851 8.96517 67.5777 10.6274 65.4093 12.9861C63.2408 15.3447 61.7603 18.6892 62.6865 21.7554L62.3815 20.4626Z" fill="#4D2F3E"/>
<path d="M68.7933 23.629C64.5187 29.8505 62.4972 37.583 63.1852 45.0996C61.7692 45.4512 60.4602 43.2038 59.1822 43.9069C58.7704 44.1339 57.891 45.1197 57.5147 45.4C56.8736 45.874 56.5752 45.1352 56.0031 44.5789C55.4309 44.0249 55.1615 43.2349 54.9389 42.4695C53.7077 38.2038 53.3916 33.6111 54.5359 29.321C55.678 25.0308 58.3652 21.0789 62.2034 18.8471C63.3121 18.2018 64.5922 17.69 65.8568 17.9192C68.2478 18.3509 69.4233 21.1724 69.3922 23.6C69.6838 22.9926 69.9755 22.3851 70.2671 21.7776L68.7933 23.629Z" fill="#4D2F3E"/>
<path d="M62.2323 21.3705C61.9696 20.1623 61.836 18.9251 61.8405 17.6901C61.8427 16.7911 61.9184 15.8833 62.2078 15.0332C62.4973 14.1877 62.9915 13.4311 63.5036 12.699C64.3674 11.4685 65.3047 10.2892 66.3065 9.16992C65.1933 11.5442 64.7214 14.2144 64.9529 16.8245L62.2323 21.3705Z" fill="#4D2F3E"/>
<path d="M89.3422 92.6629L98.7372 103.873H103.891L107.529 89.937L97.2233 87.209L94.1911 87.8165L89.3422 92.6629Z" fill="#A20851"/>
<path d="M147.843 89.937L201.199 151.63C205.986 157.164 205.705 165.448 200.558 170.648L166.417 225.379L153.3 214.153C153.3 214.153 176.641 165.68 175.73 163.557C174.822 161.436 139.051 126.292 139.051 126.292L147.843 89.937Z" fill="white"/>
<path d="M67.5176 77.5138L70.5498 72.3625L96.315 87.5115C96.315 87.5115 94.7989 87.2089 89.3422 92.6628C83.8855 98.1167 82.9771 99.3272 82.9771 99.3272L67.5176 77.5138Z" fill="#C6B9B5"/>
<path d="M107.529 72.3647C107.529 72.3647 106.923 80.5445 105.105 82.3624C103.286 84.1804 96.6178 87.5137 96.6178 87.5137C96.6178 87.5137 97.2234 86.9085 102.075 89.029C106.923 91.1496 111.775 97.5114 111.775 97.5114L113.896 76.9108L107.529 72.3647Z" fill="#C6B9B5"/>
<path d="M97.2234 358.666H97.2381C97.2381 358.664 97.2234 358.666 97.2234 358.666Z" fill="#72685E"/>
<path d="M151.481 240.51C150.875 232.027 142.084 208.396 142.084 208.396L66.607 210.517C66.607 210.517 66.0015 211.424 59.9392 229.299C53.8769 247.174 54.4825 358.664 54.4825 358.664H97.2234L112.38 269.895L118.44 358.059L118.291 358.063C118.32 358.263 118.351 358.464 118.38 358.664H159.968C159.968 358.666 152.087 248.992 151.481 240.51Z" fill="#5DCEC1"/>
<path d="M103.891 103.266C103.891 103.266 115.713 139.318 117.835 152.346C119.956 165.375 126.321 201.427 126.321 201.427L118.743 212.335L106.316 207.488C106.316 207.488 99.3428 170.828 99.3428 141.138C99.3428 111.448 98.7372 103.268 98.7372 103.268H103.891V103.266Z" fill="#A20851"/>
<path d="M110.559 280.198C110.541 280.198 110.523 280.196 110.506 280.193C110.341 280.165 110.23 280.007 110.258 279.842L113.687 260.372C113.705 260.265 113.781 260.176 113.883 260.14L126.217 255.676C126.375 255.619 126.548 255.701 126.604 255.859C126.662 256.017 126.58 256.19 126.422 256.246L114.252 260.65L110.855 279.949C110.833 280.093 110.704 280.198 110.559 280.198Z" fill="#1A1A1A"/>
<path d="M145.809 132.957L147.844 117.81L145.809 132.957Z" fill="#1A1A1A"/>
<path d="M145.808 133.259C145.795 133.259 145.782 133.259 145.768 133.257C145.601 133.234 145.486 133.081 145.508 132.916L147.543 117.769C147.565 117.605 147.716 117.487 147.883 117.509C148.05 117.531 148.166 117.685 148.144 117.849L146.109 132.996C146.087 133.148 145.958 133.259 145.808 133.259Z" fill="#1A1A1A"/>
<path d="M92.1808 31.2747C92.8665 30.1754 94.3247 29.9062 95.6115 29.746C96.2193 29.6703 96.8404 29.5947 97.4438 29.6993C98.0493 29.8016 98.6482 30.1109 98.9577 30.6383C99.2671 31.1679 99.2026 31.9311 98.715 32.3027C98.194 32.6988 97.4638 32.5386 96.8115 32.5074C95.5024 32.4473 94.1934 32.9858 92.9043 32.7566C92.6639 32.7144 92.4168 32.6365 92.2476 32.4607C92.1229 32.3294 92.0539 32.1536 92.0249 31.9756C91.927 31.3948 92.2631 30.7673 92.8019 30.527L92.1808 31.2747Z" fill="#4D2F3E"/>
<path d="M70.5476 39.0382C71.1532 36.9177 73.1925 35.587 75.4321 35.7717C76.1602 35.8318 76.9594 36.1233 77.2533 36.7908C77.3023 36.8999 77.3334 37.0267 77.2956 37.1379C77.2644 37.2292 77.1887 37.3004 77.1152 37.3627C75.7149 38.5754 73.611 38.9181 72.5223 40.4156C72.3353 40.6715 72.1839 40.9563 71.968 41.1855C71.7498 41.4147 71.4404 41.5905 71.1264 41.546C70.817 41.5015 70.5699 41.2456 70.4496 40.9563C70.3294 40.6671 70.2381 40.3377 70.3116 40.0351C70.5476 39.0382 70.2448 39.6435 70.5476 39.0382Z" fill="#4D2F3E"/>
<path d="M77.8232 51.477C76.149 51.477 74.5327 50.9251 73.188 49.8815C71.5895 48.6399 70.5699 46.8508 70.3183 44.8437C70.0667 42.8366 70.6122 40.8518 71.8545 39.2541C73.0968 37.6564 74.8867 36.6373 76.8949 36.3859C78.903 36.1344 80.8889 36.6796 82.4874 37.9212C84.0859 39.1629 85.1055 40.9519 85.3571 42.959C85.6087 44.9661 85.0632 46.951 83.8209 48.5486C82.5787 50.1463 80.7887 51.1654 78.7806 51.4169C78.4622 51.4592 78.1416 51.477 77.8232 51.477ZM77.8522 37.5385C77.585 37.5385 77.3156 37.5563 77.0463 37.5897C75.3587 37.8011 73.8559 38.6555 72.8118 39.9995C71.7676 41.3413 71.3113 43.008 71.5228 44.6946C71.7343 46.3813 72.5892 47.8833 73.9339 48.9269C75.2763 49.9705 76.9438 50.4267 78.6314 50.2153C80.3189 50.0039 81.8217 49.1494 82.8659 47.8054C83.91 46.4636 84.3664 44.797 84.1549 43.1103C83.9434 41.4236 83.0885 39.9216 81.7438 38.878C80.6173 38.0036 79.2592 37.5385 77.8522 37.5385Z" fill="#1A1A1A"/>
<path d="M95.5804 45.3578C92.0806 45.3578 89.0373 42.7477 88.5898 39.1918C88.356 37.3249 88.8636 35.4802 90.0191 33.9961C91.1745 32.5119 92.8398 31.5639 94.7077 31.3303C98.5659 30.8474 102.097 33.5888 102.58 37.4406C102.814 39.3075 102.306 41.1522 101.151 42.6364C99.9952 44.1206 98.3299 45.0685 96.462 45.3021C96.1659 45.34 95.8721 45.3578 95.5804 45.3578ZM95.5893 32.4028C95.3444 32.4028 95.0973 32.4184 94.848 32.4496C93.2784 32.6454 91.8803 33.442 90.9074 34.6881C89.9367 35.9364 89.5115 37.4851 89.7074 39.0516C90.1148 42.287 93.0803 44.5879 96.3218 44.1829C97.8913 43.9871 99.2895 43.1905 100.262 41.9444C101.233 40.696 101.658 39.1473 101.462 37.5808C101.088 34.5946 98.5303 32.4028 95.5893 32.4028Z" fill="#1A1A1A"/>
<path d="M87.2494 41.6974C88.0776 43.393 88.7834 45.1375 89.3422 46.9399C89.5626 47.6475 90.0279 48.68 89.9611 49.4455C89.8743 50.4579 88.2647 50.7427 87.5322 51.1366C87.0157 51.4147 87.4743 52.198 87.9908 51.9221C88.8034 51.4859 90.1103 51.3636 90.6268 50.5113C91.0431 49.826 90.8427 48.9515 90.6579 48.2283C90.0368 45.814 89.1262 43.4776 88.0331 41.2413C87.7771 40.7139 86.9934 41.1745 87.2494 41.6974Z" fill="#4D2F3E"/>
<path d="M93.3273 39.5502C93.5143 37.4719 97.0208 36.5017 98.194 38.2084C98.5235 38.6868 99.3116 38.2329 98.9799 37.75C97.2634 35.2534 92.6906 36.5462 92.4189 39.5502C92.3655 40.131 93.2761 40.1287 93.3273 39.5502Z" fill="#4D2F3E"/>
<path d="M75.5546 46.1188C76.0266 43.1304 79.8113 42.2048 81.4788 44.8193C81.7927 45.3111 82.5809 44.8549 82.2647 44.3609C80.2143 41.15 75.283 42.0468 74.6774 45.8785C74.5861 46.4481 75.4633 46.6951 75.5546 46.1188Z" fill="#4D2F3E"/>
<path d="M92.6193 57.2135C92.7752 57.1512 92.9421 57.2825 92.9043 57.4449C92.5948 58.7823 91.3704 60.6314 90.5533 61.4569C89.6205 62.4004 87.8928 62.7141 86.6127 62.3648C85.0521 61.942 83.5805 60.8494 82.6721 59.3341C82.3137 58.7378 81.8773 57.7387 81.599 56.9977C81.5434 56.8508 81.6925 56.7173 81.835 56.7796C83.3244 57.4227 84.9608 57.7075 86.6127 57.821C87.0669 57.8521 91.3436 57.7164 92.6193 57.2135Z" fill="white"/>
<path d="M84.1882 40.8564C84.0324 40.8564 83.8788 40.7963 83.7585 40.6783C83.5225 40.4425 83.5225 40.0575 83.7585 39.8217C85.7311 37.8479 88.9036 37.8257 89.0371 37.8257C89.3711 37.8257 89.6427 38.0972 89.6427 38.4309C89.6427 38.7647 89.3711 39.0362 89.0371 39.0362C89.0104 39.0362 86.2298 39.0629 84.6157 40.6761C84.4977 40.7963 84.3441 40.8564 84.1882 40.8564Z" fill="#1A1A1A"/>
<path d="M70.8526 45.4002C70.8281 45.4002 70.8059 45.398 70.7814 45.3957L60.3733 44.183C60.0416 44.1452 59.8034 43.8426 59.8412 43.511C59.8791 43.1795 60.1796 42.9392 60.5136 42.9792L70.9216 44.1919C71.2533 44.2298 71.4916 44.5324 71.4537 44.8639C71.4181 45.1732 71.1554 45.4002 70.8526 45.4002Z" fill="#1A1A1A"/>
<path d="M101.465 35.8118C101.353 35.8118 101.24 35.7806 101.14 35.7161C100.857 35.5358 100.774 35.162 100.955 34.8794L104.267 29.6903C104.448 29.4077 104.822 29.3254 105.105 29.5056C105.387 29.6859 105.47 30.0597 105.289 30.3423L101.977 35.5314C101.861 35.7139 101.665 35.8118 101.465 35.8118Z" fill="#1A1A1A"/>
<path d="M67.5688 77.4048L37.5135 89.8657C37.5135 89.8657 56.6598 196.451 54.4335 211.805C52.2072 227.159 48.8677 308.155 48.8677 308.155L107.42 309.49C107.42 309.49 104.526 216.478 102.967 169.304C101.409 122.131 101.409 122.131 101.409 122.131L67.5688 77.4048Z" fill="white"/>
<path d="M118.274 188.375L74.4579 173.398L52.9168 236.351L96.7329 251.328L118.274 188.375Z" fill="#AE376D"/>
<path d="M84.451 212.826C84.4999 213.476 84.4799 213.036 84.4665 212.682C84.3486 212.604 84.2261 212.537 84.0992 212.479C83.8632 212.582 83.6539 212.704 83.4803 212.851L84.451 212.826Z" fill="#F5A7A5"/>
<path d="M71.2155 220.579C71.6919 221.293 72.1684 222.01 72.6448 222.724C72.2619 221.865 71.9502 220.955 71.8567 220.027C71.6407 220.21 71.427 220.394 71.2155 220.579Z" fill="#F5A7A5"/>
<path d="M110.091 220.483C110.205 219.8 110.41 219.077 110.091 218.481C109.982 218.276 109.927 218.156 109.424 217.813C108.996 217.521 108.765 217.339 108.088 217.145C107.297 216.918 105.416 216.478 104.303 216.255C103.706 216.135 88.6476 210.501 84.0992 212.479C84.2261 212.537 84.3485 212.604 84.4665 212.682C84.4554 212.381 84.4465 212.143 84.4888 212.695C84.4821 212.691 84.4732 212.686 84.4665 212.682C84.4799 213.036 84.4999 213.476 84.4509 212.826L83.4803 212.851C83.6561 212.704 83.8632 212.582 84.0992 212.479C83.3645 212.145 82.5074 212.139 81.7059 212.348C82.0755 212.486 82.445 212.613 82.8346 212.671C84.4754 212.915 75.942 227.67 74.29 225.192C73.7424 224.368 73.1924 223.545 72.6448 222.722C72.6648 222.766 72.6849 222.811 72.7049 222.855C73.208 223.961 73.8225 225.016 74.5639 225.979C77.8499 230.247 83.2732 232.268 88.5429 233.38C90.3707 233.765 91.2034 233.532 93.1959 234.553C94.1799 235.058 95.0683 235.579 95.5759 235.884C98.0693 237.392 99.3851 238.282 101.409 238.282C101.854 238.282 102.117 237.695 102.299 237.392C102.967 236.28 102.863 236.431 102.077 235.612C101.351 234.858 101.001 234.221 100.231 233.512C99.3806 232.726 98.6994 231.582 99.2025 230.541C100.781 230.964 102.132 231.84 103.404 232.86C104.261 233.545 105.505 233.512 106.287 232.739L106.307 232.719C106.741 232.176 106.857 231.58 106.785 230.982C106.699 230.267 106.309 229.624 105.743 229.181C105.258 228.801 104.775 228.423 104.29 228.042C103.856 227.702 103.421 227.361 102.987 227.021C103.584 226.625 104.376 226.992 104.975 227.386C105.454 227.702 105.917 228.035 106.376 228.378C106.703 228.623 107.104 228.763 107.513 228.741C107.87 228.723 108.215 228.65 108.535 228.489C109.591 227.962 109.811 226.74 109.419 225.594C109.337 225.356 109.165 225.158 108.945 225.031C108.359 224.693 107.832 224.335 107.284 223.852C106.516 223.178 105.436 222.808 105.432 221.787C106.235 221.76 106.972 222.012 107.68 222.381C108.192 222.648 108.827 222.53 109.214 222.103C109.666 221.607 109.982 220.915 110.091 220.483Z" fill="#FFCCA9"/>
<path d="M81.1093 212.548C81.3029 212.468 81.5033 212.401 81.7081 212.348C81.3497 212.214 80.9935 212.068 80.6239 211.965C79.0566 211.527 77.3312 211.894 75.9464 212.751C74.5639 213.607 73.5019 214.913 72.7316 216.346C72.2953 217.159 71.9413 218.031 71.8478 218.948C71.8122 219.308 71.8166 219.669 71.8522 220.025C73.9628 218.207 76.0756 216.387 78.1861 214.569C79.0944 213.79 80.0184 212.998 81.1093 212.548Z" fill="#F5A7A5"/>
<path d="M82.8369 212.671C82.4495 212.613 82.0777 212.486 81.7082 212.348C81.5034 212.401 81.303 212.468 81.1093 212.548C80.0184 212.998 79.0945 213.79 78.1884 214.569C76.0778 216.387 73.965 218.207 71.8545 220.025C71.9502 220.95 72.2619 221.863 72.6426 222.722C73.1903 223.545 73.7402 224.368 74.2879 225.192C75.9442 227.673 84.4755 212.915 82.8369 212.671Z" fill="#F5A7A5"/>
<path d="M113.654 77.4048L147.939 88.7532L161.074 306.597L118.551 307.71C118.551 307.71 130.574 185.771 118.329 152.393C106.084 119.015 106.084 119.015 106.084 119.015L113.876 108.335L113.654 94.5386V77.4048Z" fill="white"/>
<path d="M106.307 119.016C106.307 119.016 109.971 114.318 111.427 108.335C113.431 100.102 112.54 83.8579 112.54 83.8579V74.9572L106.316 71.5549V70.1731C106.316 70.1731 112.095 72.287 113.876 74.5122C115.657 76.7373 119.442 94.0937 119.442 94.0937L114.544 95.6513L118.329 103.884C118.329 103.884 119.177 103.66 115.435 108.335C113.654 110.56 112.095 112.118 110.092 114.788C108.86 116.428 106.307 119.016 106.307 119.016Z" fill="#E3E5E5"/>
<path d="M156.121 212.41C152.921 209.504 149.295 207.11 145.403 205.339C144.377 204.871 143.184 204.449 142.173 204.943C141.097 205.468 140.661 206.894 140.879 208.109C141.097 209.324 141.823 210.37 142.56 211.342C140.2 212.878 137.573 214.137 135.144 215.552C133.074 216.761 131.059 219.07 129.518 220.906C128.882 221.663 129.532 222.982 130.124 223.781C130.716 224.582 131.809 225.016 132.706 224.635C131.613 225.488 131.5 227.39 132.482 228.385C133.463 229.379 135.293 229.215 136.086 228.058C135.362 229.21 134.648 230.786 135.492 231.856C136.387 232.991 138.13 232.441 139.394 231.798C138.804 232.868 138.217 234.239 138.891 235.261C139.312 235.899 140.133 236.16 140.873 236.066C141.612 235.973 142.284 235.583 142.899 235.149C144.635 233.919 146.064 232.281 147.703 230.91C149.342 229.54 151.314 228.407 153.42 228.478C154.918 228.529 156.372 229.188 157.871 229.104C160.582 228.952 162.568 226.505 164.202 224.259C165.217 222.866 166.23 221.473 167.246 220.08C165.157 218.125 163.069 216.171 160.981 214.215C160.168 213.454 159.338 212.682 158.34 212.219C157.343 211.756 156.127 211.652 155.188 212.223C155.319 211.106 155.088 213.463 155.219 212.348L156.121 212.41Z" fill="#FFCCA9"/>
<path d="M48.5343 156.51L44.9722 133.813L48.5343 156.51Z" fill="#1A1A1A"/>
<path d="M48.5338 156.812C48.3868 156.812 48.2577 156.705 48.2354 156.556L44.6733 133.86C44.6466 133.695 44.7602 133.539 44.9249 133.512C45.0919 133.486 45.2455 133.599 45.2722 133.764L48.8343 156.461C48.861 156.625 48.7475 156.781 48.5827 156.808C48.5649 156.81 48.5493 156.812 48.5338 156.812Z" fill="#1A1A1A"/>
<path d="M150.909 138.012L149.691 117.81L150.909 138.012Z" fill="#1A1A1A"/>
<path d="M150.909 138.314C150.751 138.314 150.617 138.19 150.606 138.03L149.388 117.827C149.377 117.66 149.506 117.516 149.673 117.507C149.84 117.496 149.985 117.625 149.994 117.792L151.212 137.994C151.223 138.161 151.094 138.305 150.927 138.314C150.922 138.314 150.915 138.314 150.909 138.314Z" fill="#1A1A1A"/>
<path d="M52.8378 191.668L66.5675 201.681L52.8378 191.668Z" fill="#1A1A1A"/>
<path d="M66.567 201.983C66.5046 201.983 66.4423 201.965 66.3889 201.925L52.6591 191.912C52.5233 191.814 52.4944 191.625 52.5923 191.489C52.6903 191.354 52.8795 191.325 53.0153 191.423L66.7451 201.436C66.8809 201.534 66.9098 201.723 66.8119 201.859C66.7517 201.939 66.6605 201.983 66.567 201.983Z" fill="#1A1A1A"/>
<path d="M37.5135 89.8657L1.76549 183.281C0.309475 189.6 4.07418 195.951 10.319 197.709L66.9009 233.834L80.7041 212.028L33.5128 177.549C29.9485 175.637 37.5736 172.517 39.2946 168.859L48.4225 156.621L37.5135 89.8657Z" fill="white"/>
<path d="M145.338 128.216L123.503 131.215L124.048 135.183L145.884 132.184L145.338 128.216Z" fill="#E3E5E5"/>
<path d="M66.676 129.549C64.4542 120.982 63.2185 112.191 63.0226 103.341C62.9269 98.9733 63.0783 94.5986 63.4813 90.2484C63.8464 86.2853 63.9666 81.5546 66.213 78.1257C67.079 76.8039 64.9595 75.5756 64.0979 76.8907C62.3102 79.6165 61.9095 82.8875 61.4976 86.0473C61.0345 89.612 60.7406 93.1967 60.616 96.7904C60.3666 103.947 60.7985 111.114 61.856 118.194C62.4594 122.237 63.2876 126.245 64.3139 130.201C64.7102 131.723 67.0723 131.078 66.676 129.549Z" fill="#1A1A1A"/>
<path d="M112.451 75.7782C124.157 82.8765 125.965 97.7963 127.21 110.148C127.366 111.701 129.817 111.717 129.659 110.148C128.321 96.8617 126.23 81.2699 113.687 73.6643C112.338 72.8454 111.104 74.9616 112.451 75.7782Z" fill="#1A1A1A"/>
<path d="M128.503 111.875C131.304 112.044 132.929 115.293 134.236 117.409C135.467 119.4 136.912 121.512 137.742 123.677C138.301 125.132 140.668 124.501 140.104 123.027C139.091 120.379 137.446 117.914 135.946 115.522C134.189 112.723 132.125 109.645 128.503 109.425C126.929 109.332 126.934 111.779 128.503 111.875Z" fill="#1A1A1A"/>
<path d="M128.011 109.338C123.238 111.116 122.893 118.112 123.098 122.387C123.256 125.693 124.124 128.873 124.607 132.137C124.836 133.69 127.196 133.03 126.969 131.488C126.595 128.958 125.907 126.468 125.66 123.92C125.44 121.666 125.42 119.345 125.814 117.109C126.134 115.288 126.678 112.44 128.663 111.699C130.126 111.152 129.492 108.786 128.011 109.338Z" fill="#1A1A1A"/>
<path d="M124.901 132.498C125.87 137.324 127.564 141.921 129.176 146.558C129.872 148.566 130.353 150.975 131.834 152.586C133.221 154.097 135.176 154.088 136.939 153.294C138.014 152.809 137.081 151.227 136.013 151.71C133.813 152.7 132.666 150.98 131.99 149.124C131.302 147.239 130.687 145.321 130.022 143.428C128.701 139.678 127.459 135.913 126.675 132.01C126.442 130.853 124.67 131.343 124.901 132.498Z" fill="#999999"/>
<path d="M138.119 123.532C139.613 127.524 141.106 131.516 142.598 135.506C143.293 137.362 143.981 139.218 144.68 141.071C144.94 141.759 145.247 142.429 145.497 143.121C145.608 143.428 145.855 143.931 145.795 144.269C145.708 144.752 145.14 144.974 144.769 145.19C143.749 145.786 144.673 147.375 145.695 146.774C147.273 145.849 147.961 144.752 147.371 142.929C146.723 140.931 145.848 138.975 145.112 137.004C143.371 132.349 141.63 127.696 139.886 123.041C139.479 121.948 137.702 122.424 138.119 123.532Z" fill="#808080"/>
<path d="M66.7896 139.042C69.5561 139.042 71.7988 136.8 71.7988 134.035C71.7988 131.27 69.5561 129.029 66.7896 129.029C64.023 129.029 61.7803 131.27 61.7803 134.035C61.7803 136.8 64.023 139.042 66.7896 139.042Z" fill="#999999"/>
<path d="M139.283 151.447C139.087 150.793 138.018 150.537 136.896 150.875C135.774 151.214 135.026 152.017 135.222 152.671C135.418 153.325 136.487 153.581 137.609 153.243C138.731 152.905 139.479 152.101 139.283 151.447Z" fill="#808080"/>
<path d="M145.546 145.657C145.205 145.066 144.105 145.061 143.09 145.646C142.077 146.232 141.532 147.186 141.872 147.776C142.213 148.368 143.313 148.372 144.328 147.787C145.341 147.204 145.886 146.249 145.546 145.657Z" fill="#808080"/>
<path d="M69.3498 71.6194C69.3498 71.6194 68.014 79.185 78.4778 89.8658C88.9415 100.547 101.409 122.131 101.409 122.131L80.2588 111.895L78.4778 100.992L72.4667 105.887C72.4667 105.887 64.4519 93.426 64.0067 84.9704C63.5614 76.5148 69.3498 71.6194 69.3498 71.6194Z" fill="#E3E5E5"/>
<path d="M482.666 359H0.333948C0.149163 359 0 358.851 0 358.666C0 358.482 0.149163 358.333 0.333948 358.333H482.666C482.851 358.333 483 358.482 483 358.666C483 358.851 482.851 359 482.666 359Z" fill="#808080"/>
<path d="M100.797 185.817L90.7648 182.84C89.4157 182.439 88.6387 181.009 89.0394 179.658C89.4402 178.31 90.8717 177.533 92.2231 177.934L102.255 180.911C103.604 181.311 104.381 182.742 103.98 184.093C103.58 185.441 102.148 186.218 100.797 185.817Z" fill="#999999"/>
<path d="M67.4575 137.707C69.1174 137.707 70.463 136.362 70.463 134.703C70.463 133.044 69.1174 131.699 67.4575 131.699C65.7976 131.699 64.452 133.044 64.452 134.703C64.452 136.362 65.7976 137.707 67.4575 137.707Z" fill="#333333"/>
<path d="M378.608 325.643H368.1C361.521 325.643 356.167 320.293 356.167 313.716V309.265C356.167 302.69 361.519 297.338 368.1 297.338H378.608C385.187 297.338 390.541 302.688 390.541 309.265V313.716C390.541 320.293 385.187 325.643 378.608 325.643ZM368.1 298.94C362.405 298.94 357.77 303.573 357.77 309.265V313.716C357.77 319.408 362.405 324.04 368.1 324.04H378.608C384.303 324.04 388.938 319.408 388.938 313.716V309.265C388.938 303.573 384.303 298.94 378.608 298.94H368.1Z" fill="#72685E"/>
<path d="M370.742 327.767C369.62 327.767 368.587 327.149 368.062 326.156L355.703 302.919C354.915 301.439 355.479 299.601 356.959 298.813C358.44 298.026 360.279 298.589 361.067 300.068L370.669 318.123L385.834 287.988C386.587 286.491 388.413 285.887 389.913 286.64C391.411 287.394 392.015 289.219 391.262 290.716L373.458 326.096C372.949 327.111 371.916 327.754 370.78 327.767C370.765 327.767 370.753 327.767 370.742 327.767Z" fill="#4884E4"/>
<path d="M298.355 79C301.945 79 304.855 76.0899 304.855 72.5C304.855 68.9101 301.945 66 298.355 66C294.765 66 291.855 68.9101 291.855 72.5C291.855 76.0899 294.765 79 298.355 79Z" stroke="#4884E4" stroke-width="4"/>
<path d="M304.855 81.6001H305.312C306.263 81.6004 307.18 81.9477 307.893 82.5768C308.605 83.2059 309.063 84.0734 309.181 85.0165L309.689 89.0777C309.735 89.4436 309.703 89.815 309.594 90.1672C309.485 90.5195 309.303 90.8447 309.058 91.121C308.814 91.3974 308.514 91.6187 308.178 91.7703C307.842 91.9218 307.478 92.0002 307.109 92.0001H289.601C289.232 92.0002 288.867 91.9218 288.531 91.7703C288.195 91.6187 287.895 91.3974 287.651 91.121C287.407 90.8447 287.225 90.5195 287.116 90.1672C287.007 89.815 286.974 89.4436 287.02 89.0777L287.527 85.0165C287.645 84.073 288.104 83.2051 288.816 82.5759C289.529 81.9468 290.448 81.5997 291.398 81.6001H291.855" stroke="#4884E4" stroke-width="4" stroke-linecap="round" stroke-linejoin="round"/>
</svg>
