<svg width="104" height="173" viewBox="0 0 104 173" fill="none" xmlns="http://www.w3.org/2000/svg">
<path d="M51.2349 6.45035L58.4137 10.0881L60.1993 5.19987C60.8552 3.11574 59.762 0.880027 57.7213 0.197945C55.6807 -0.484136 53.4942 0.652666 52.8383 2.7368L51.2349 6.45035Z" fill="#A20851"/>
<path d="M8.27186 55.2576C14.1387 47.3757 23.0666 43.7001 31.7758 43.7001C39.3917 43.7001 46.8255 46.5042 51.9271 51.7335L52.2186 51.544L47.3721 43.8138C42.3798 37.4856 36.9866 36.5003 27.6944 37.0308C24.4876 37.2203 21.0988 37.7129 18.5115 38.0919C16.2158 38.4329 14.0658 36.8035 13.7379 34.4162C13.7014 34.2267 13.7014 34.0373 13.7014 33.8099C13.7014 31.65 15.2684 29.7932 17.4184 29.5279C23.5403 28.808 34.1444 27.5575 35.3105 27.2543C40.5578 25.8523 44.7848 24.2229 46.534 19.4104L47.9552 15.5074L44.8577 13.9538C42.5256 12.7791 41.5781 9.86127 42.7442 7.51188C43.9102 5.12459 46.7162 4.13936 49.0483 5.35195L51.2347 6.45086L58.4134 10.0886L61.8024 11.7938C62.1303 10.4676 62.5676 9.14129 63.0777 7.81503C64.0252 5.35195 66.7582 4.10147 69.1633 5.0867C71.5683 6.03403 72.7708 8.83815 71.8234 11.3391C66.2116 26.1933 75.2487 40.896 75.4309 41.1612C75.5038 41.2749 75.5403 41.3886 75.6131 41.4644C76.0869 42.3738 77.3987 43.2832 78.2733 43.8516C78.9292 44.2685 79.6215 44.6095 80.3868 44.799C86.2536 46.4284 91.6832 49.8388 95.7281 55.2576C100.684 61.9647 104 74.0527 104 83.6018C104 109.597 78.0546 172.121 52.5466 172.121C25.5444 172.121 0 109.597 0 83.5639C0 74.0527 3.31601 61.9647 8.27186 55.2576ZM56.1906 42.298L57.9032 44.4579C58.632 45.3674 59.6888 45.8979 60.782 45.9358C61.2558 45.9358 61.7659 45.86 62.2396 45.6705H62.2761C62.6769 45.519 63.0778 45.2916 63.4057 45.0263C64.6811 43.9274 65.1913 42.0707 64.4989 40.4034C62.6405 35.9698 60.5999 29.4522 60.5634 21.9872L55.4618 19.4104L53.9677 24.0713C53.8948 24.2608 53.822 24.4502 53.7491 24.6397C51.1618 30.4374 52.255 37.2961 56.1906 42.298Z" fill="#A20851"/>
<path opacity="0.2" d="M54.004 24.0327C53.9311 24.2222 53.8582 24.4117 53.7854 24.6011C53.7489 24.7148 53.7125 24.7906 53.676 24.9043L45.6956 21.2665C46.0235 20.6981 46.3151 20.1297 46.5702 19.4476L47.9913 15.5446L55.498 19.3718L54.004 24.0327Z" fill="black"/>
<path opacity="0.1" d="M41.3229 149.271C59.6886 147.377 61.5106 56.8493 64.8267 76.7054C68.1427 96.5615 57.8666 142.413 72.1875 142.413C84.5043 142.413 94.6711 121.495 97.2583 115.66C87.8932 142.602 70.1469 172.159 52.5828 172.159C25.5807 172.159 0.036232 109.635 0.036232 83.602C3.49803 112.666 22.9571 151.204 41.3229 149.271Z" fill="black"/>
<path opacity="0.2" d="M58.4132 10.0883L51.2346 6.45056L52.8016 2.7749C52.838 2.69911 52.8744 2.58543 52.9109 2.50964L59.9072 5.95794L58.4132 10.0883Z" fill="black"/>
<path opacity="0.2" d="M81.1154 54.2335C75.9774 55.1051 68.9809 57.6439 65.2276 64.9952C64.4259 66.5868 62.1301 66.0941 62.0573 64.3131C61.7657 55.7113 64.1708 43.9265 81.3705 50.9368C82.9739 51.581 82.7917 53.9683 81.1154 54.2335Z" fill="white"/>
<g opacity="0.2">
<path opacity="0.2" d="M13.7743 81.1C15.487 81.1 16.9445 79.7359 17.0539 77.917C17.6005 70.4141 19.9326 65.2606 23.9775 62.6081C25.5079 61.5849 25.9816 59.4629 24.9978 57.8714C24.0139 56.2799 21.9732 55.7872 20.4428 56.8104C14.5395 60.6755 11.187 67.61 10.4582 77.3865C10.3125 79.2811 11.6607 80.9485 13.4827 81.0621C13.592 81.1 13.665 81.1 13.7743 81.1Z" fill="white"/>
</g>
<g opacity="0.2">
<path opacity="0.2" d="M34.8729 60.8278C36.4034 60.8278 37.7882 59.7289 38.1161 58.0994C38.4805 56.2427 37.3873 54.4238 35.6017 54.0448C35.3467 54.0069 33.1966 53.5143 30.2085 53.7038C28.3865 53.8175 27.0018 55.4469 27.1112 57.3416C27.2205 59.2362 28.7874 60.7141 30.6094 60.5625C32.6865 60.4488 34.217 60.752 34.217 60.752C34.4356 60.7899 34.6542 60.8278 34.8729 60.8278Z" fill="white"/>
</g>
</svg>
