<svg width="51" height="55" viewBox="0 0 51 55" fill="none" xmlns="http://www.w3.org/2000/svg">
<path d="M12.7213 22.3212C10.4212 19.7262 8.26276 19.1699 6.24335 20.6499C3.21423 22.8699 2.34488 30.6099 4.78125 37.4337C7.21899 44.2574 11.9582 53.5499 21.5265 53.5499C31.0935 53.5499 33.3568 44.1999 37.2594 38.5474C41.1633 32.8949 43.2277 27.4412 39.4028 20.6499" stroke="white" stroke-width="2.5" stroke-linecap="round" stroke-linejoin="round"/>
<path d="M7.89772 19.8439C6.09631 17.3191 4.27945 14.8036 2.44722 12.2976C0.476865 9.61635 5.51449 6.1501 7.89772 8.5076C9.48653 10.0801 11.5972 12.3951 14.2298 15.4539" stroke="white" stroke-width="2.5" stroke-linecap="round"/>
<path d="M13.3807 29.3475C12.7198 21.7675 13.258 16.8325 14.9913 14.5413C17.5939 11.1038 22.4271 9.80127 26.9783 9.80127C29.6899 9.80127 32.1645 10.86 34.4046 12.9775" stroke="white" stroke-width="2.5" stroke-linecap="round" stroke-linejoin="round"/>
<path d="M48.7764 13.0637C49.5749 15.6087 48.2723 17.9349 44.258 18.4612C40.245 18.9874 37.2364 20.8387 35.0671 22.3962C32.8964 23.9537 29.017 28.6787 28.2499 31.0499C27.4841 33.4224 23.1046 31.2412 21.9287 30.2937C20.7527 29.3462 19.5958 27.2737 21.9287 25.1049C24.2615 22.9362 23.7559 22.5037 23.7559 20.3049C23.7559 18.1049 36.5128 10.8299 43.6979 10.1649C45.2949 10.0799 47.9793 10.5174 48.7764 13.0637V13.0637Z" stroke="white" stroke-width="2.5"/>
<path d="M41.4358 10.6938C40.997 12.075 40.997 13.3688 41.4358 14.5775C41.8746 15.7863 42.8161 17.08 44.2578 18.4612M24.2599 2.2975V8.87625V2.2975ZM20.5795 10.695C16.4671 5.95375 13.1518 3.3075 10.6323 2.7575L20.5795 10.695ZM16.0787 6.08375L17.4277 1L16.0787 6.08375Z" stroke="white" stroke-width="2.5" stroke-linecap="round"/>
</svg>
