<svg width="466" height="400" viewBox="0 0 466 400" fill="none" xmlns="http://www.w3.org/2000/svg">
<path d="M93.9708 54.2238C85.7814 56.3032 82.0544 63.1343 82.1339 72.8895C80.3798 71.7929 78.4218 71.1903 77.6417 73.2154C76.0962 77.236 79.038 84.5067 82.5762 83.7954C82.929 83.7263 83.2371 83.5831 83.5104 83.3904L81.6569 105.741L98.14 102.965L95.5609 96.6475C96.5598 96.771 97.6182 96.7809 98.7314 96.6574C108.402 95.5856 115.18 85.213 113.863 73.5019C112.551 61.7809 112.039 49.6352 93.9708 54.2238Z" fill="#FFCCA9"/>
<path d="M94.234 97.4178C94.234 97.4178 84.2705 93.58 83.1524 87.6973C82.0344 81.8146 83.1524 87.6973 83.1524 87.6973L83.5102 83.3853L89.4038 86.4476L94.234 97.4178Z" fill="#E78364"/>
<path d="M100.222 73.324C100.436 75.2108 99.8843 76.8161 98.9898 76.9149C98.1003 77.0137 97.2058 75.5665 96.9921 73.6797C96.7785 71.7929 97.3301 70.1876 98.2245 70.0888C99.114 69.9949 100.008 71.4422 100.222 73.324Z" fill="black"/>
<path d="M109.723 72.2327C109.937 74.1195 109.385 75.7248 108.491 75.8236C107.601 75.9223 106.707 74.4751 106.493 72.5883C106.28 70.7015 106.831 69.0962 107.726 68.9974C108.615 68.8986 109.51 70.3508 109.723 72.2327Z" fill="black"/>
<path d="M100.948 67.9301C100.948 67.9301 96.5696 66.5274 94.6515 66.9818C92.7333 67.4412 90.0598 68.7748 90.0598 68.7748C90.0598 68.7748 91.7842 64.3146 94.3334 64.1516C96.8827 63.9886 99.3574 64.3146 99.8245 65.2382C100.302 66.1619 100.948 67.9301 100.948 67.9301Z" fill="black"/>
<path d="M105.067 67.2736C105.067 67.2736 109.023 64.9422 110.996 64.9669C112.968 64.9916 115.871 65.7078 115.871 65.7078C115.871 65.7078 113.202 61.7366 110.678 62.1367C108.153 62.5368 105.634 63.4654 105.38 64.4681C105.127 65.4708 105.067 67.2736 105.067 67.2736Z" fill="black"/>
<path d="M84.6235 75.6307L88.6437 60.9461C88.6437 60.9461 99.76 64.8976 112.258 59.1532C124.756 53.4087 122.38 45.2144 122.38 45.2144C122.38 45.2144 96.9325 32.6143 83.247 39.2576C69.5616 45.901 76.4689 52.7666 76.4689 52.7666C76.4689 52.7666 70.5753 57.3849 77.6467 73.2154L78.4368 73.1561C80.7674 72.9931 83.0532 73.9019 84.6235 75.6307Z" fill="black"/>
<path d="M100.808 78.5401C99.5363 79.0982 96.6591 80.5751 93.8962 82.0272L85.0558 74.0552L84.6235 75.6308L92.4799 82.7731C89.727 84.2302 87.4063 85.4798 87.4063 85.4798L83.5104 83.3905L83.406 84.6599L88.4896 87.9198C88.589 90.3302 92.2315 97.6799 96.2119 98.2331C101.917 99.0234 109.982 94.9287 112.347 91.5255C114.713 88.1273 113.992 77.73 113.992 77.73C113.992 77.73 103.616 77.3151 100.808 78.5401Z" fill="#FAFDFF"/>
<path d="M79.4801 100.248C89.2796 98.174 99.4319 98.5148 109.072 101.222C120.512 104.427 134.942 109.702 139.415 116.741C147.187 128.966 150.263 142.954 150.263 142.954L127.563 152.966L130.818 207.456L60.9297 215.216L61.3472 151.963L35.3677 141.758C35.3677 141.758 48.1934 111.91 58.142 106.689C63.0616 104.111 71.8523 101.859 79.4801 100.248Z" fill="white"/>
<path d="M74.1879 101.434C74.1879 101.434 81.1846 109.589 91.3419 111.525C101.499 113.461 111.423 101.893 111.423 101.893C111.423 101.893 98.8704 96.7118 88.2957 98.4257C77.721 100.14 74.1879 101.434 74.1879 101.434Z" fill="#FFCCA9"/>
<path d="M129.715 207.579C129.715 207.579 142.556 267.868 143.197 286.178C143.768 302.399 130.803 367.652 130.803 367.652L104.714 370.547L111.174 294.704L100.684 240.821L89.24 372.265L61.6206 375.333L62.8778 214.998L129.715 207.579Z" fill="#5DCEC1"/>
<path d="M151.943 174.061L115.985 178.052C113.217 178.359 111.189 176.328 111.448 173.513L116.482 119.368C116.745 116.558 119.2 114.024 121.963 113.718L157.921 109.727C160.689 109.421 162.716 111.451 162.458 114.266L157.424 168.411C157.165 171.226 154.71 173.755 151.943 174.061Z" fill="#D4D7EC"/>
<path d="M125.859 368.201L123.155 381.833C123.155 381.833 148.916 385.162 150.8 394.117V396.044C150.8 397.624 149.508 398.908 147.917 398.908H102.419L107.512 370.241L125.859 368.201Z" fill="#434785"/>
<path d="M83.7787 372.874L82.0444 381.221C82.0444 381.221 107.795 384.604 109.664 393.564L109.654 398.351L63.4294 398.252C62.3063 398.252 61.4516 397.239 61.6504 396.138L64.2593 375.042L83.7787 372.874Z" fill="#434785"/>
<path d="M105.867 388.694C105.867 388.694 111.597 391.534 109.654 398.35" stroke="#7B7BB6" stroke-width="1.25875" stroke-miterlimit="10" stroke-linecap="round"/>
<path d="M100.684 240.826L101.867 228.102C102.021 226.443 102.369 223.948 104.034 223.766L107.994 222.704" stroke="#434785" stroke-width="1.57348" stroke-miterlimit="10" stroke-linecap="round"/>
<path d="M160.599 134.29C159.377 134.295 146.188 135.757 146.357 137.254C146.526 138.75 148.613 143.26 150.472 144.761C152.33 146.263 159.526 145.838 159.526 145.838L159.734 145.67C160.38 145.152 160.788 144.406 160.872 143.586L161.538 137.056C161.603 136.409 161.464 135.752 161.131 135.189L160.599 134.29Z" fill="#FFCCA9"/>
<path d="M117.635 171.705L122.445 122.974C122.634 121.067 124.139 119.551 126.053 119.339L151.664 116.494" stroke="#FAFDFF" stroke-width="1.25875" stroke-miterlimit="10" stroke-linecap="round"/>
<path opacity="0.66" d="M61.1237 185.762C61.1237 185.762 74.1532 162.967 73.696 157.193C73.2438 151.424 69.5963 144.563 69.5963 144.563L61.2976 159.154L61.1237 185.762Z" fill="#CFD8E1"/>
<path d="M83.7439 77.6608C83.7439 77.6608 80.8418 74.7318 79.5945 74.9344C78.3472 75.1369 79.3908 82.3236 82.3227 82.1309" stroke="#E78364" stroke-width="0.944078" stroke-miterlimit="10" stroke-linecap="round"/>
<path d="M61.3474 151.963C61.3474 151.963 41.6739 173.696 30.7514 173.681L26.8853 166.203L44.1188 145.196L61.3474 151.963Z" fill="#E78364"/>
<path d="M47.7761 90.7156L46.0269 102.209L21.4786 158.873C15.9279 171.686 27.7796 178.403 37.3555 169.873C47.8606 160.513 54.5095 112.118 55.4139 105.163L56.6016 102.185C57.0091 101.157 57.6402 100.234 58.4502 99.473L58.7583 99.1865C60.4975 97.5565 61.0938 95.0523 60.2739 92.8197L58.9173 89.1202C58.0576 86.774 55.3096 85.7269 53.0933 86.9025L49.2768 88.9226C48.4817 89.1943 47.9053 89.8858 47.7761 90.7156Z" fill="#FFCCA9"/>
<path d="M362.656 400H195.687C185.336 400 176.943 391.658 176.943 381.369V18.6311C176.943 8.34249 185.336 0 195.687 0H362.656C373.007 0 381.4 8.34249 381.4 18.6311V381.374C381.4 391.658 373.007 400 362.656 400Z" fill="white"/>
<path d="M366.383 26.5635H191.96V373.431H366.383V26.5635Z" fill="#C2E2F1"/>
<path d="M292.633 18.2658H242.622C240.058 18.2658 237.976 16.1962 237.976 13.6475C237.976 11.0939 240.058 9.0293 242.622 9.0293H292.633C295.197 9.0293 297.279 11.0989 297.279 13.6475C297.279 16.1962 295.202 18.2658 292.633 18.2658Z" fill="#D4D7EC"/>
<path d="M223.461 349.023H209.094C207.186 349.023 205.641 347.486 205.641 345.59V329.483C205.641 327.586 207.186 326.05 209.094 326.05H223.461C225.369 326.05 226.914 327.586 226.914 329.483V345.59C226.914 347.486 225.369 349.023 223.461 349.023Z" fill="white"/>
<path d="M254.782 349.022H240.416C238.508 349.022 236.962 347.485 236.962 345.589V329.482C236.962 327.585 238.508 326.049 240.416 326.049H254.782C256.69 326.049 258.236 327.585 258.236 329.482V345.589C258.236 347.485 256.69 349.022 254.782 349.022Z" fill="white"/>
<path d="M286.099 349.022H271.732C269.824 349.022 268.279 347.485 268.279 345.589V329.482C268.279 327.585 269.824 326.049 271.732 326.049H286.099C288.007 326.049 289.552 327.585 289.552 329.482V345.589C289.557 347.485 288.007 349.022 286.099 349.022Z" fill="white"/>
<path d="M317.42 349.022H303.054C301.146 349.022 299.6 347.485 299.6 345.589V329.482C299.6 327.585 301.146 326.049 303.054 326.049H317.42C319.328 326.049 320.874 327.585 320.874 329.482V345.589C320.874 347.485 319.328 349.022 317.42 349.022Z" fill="white"/>
<path d="M348.737 349.022H334.371C332.462 349.022 330.917 347.485 330.917 345.589V329.482C330.917 327.585 332.462 326.049 334.371 326.049H348.737C350.645 326.049 352.19 327.585 352.19 329.482V345.589C352.195 347.485 350.65 349.022 348.737 349.022Z" fill="white"/>
<path opacity="0.35" d="M350.436 309.724H209.124C206.992 309.724 205.263 308.006 205.263 305.887V240.065C205.263 237.946 206.992 236.228 209.124 236.228H350.436C352.568 236.228 354.297 237.946 354.297 240.065V305.887C354.302 308.006 352.568 309.724 350.436 309.724Z" fill="white"/>
<path d="M236.083 253.017L220.002 252.982C219.803 252.982 219.644 252.819 219.644 252.621L219.654 246.971C219.654 246.773 219.818 246.615 220.017 246.615L236.098 246.65C236.296 246.65 236.455 246.813 236.455 247.01L236.446 252.661C236.441 252.858 236.282 253.017 236.083 253.017Z" fill="#424143"/>
<path d="M222.318 253.826C222.318 253.826 230.333 251.999 230.313 245.148L218.919 245.504L219.068 253.945L222.318 253.826Z" fill="#4E4E4F"/>
<path d="M239.537 261.828L236.297 258.642C235.392 257.753 234.88 256.538 234.885 255.274L234.89 253.016L228.276 253.002H227.844L221.23 252.987L221.225 255.244C221.22 256.509 220.708 257.724 219.798 258.608L216.544 261.779C215.018 263.266 214.158 265.296 214.153 267.419L214.089 296.971C214.084 298.493 215.321 299.728 216.852 299.732L227.739 299.757H228.172L239.059 299.782C240.59 299.787 241.832 298.557 241.837 297.036L241.902 267.484C241.907 265.355 241.052 263.32 239.537 261.828Z" fill="white"/>
<path d="M244.58 261.073H209.855V302.104H244.58V261.073Z" fill="#7B7BB6"/>
<path d="M238.801 286.683L217.215 286.638C216.792 286.638 216.449 286.297 216.449 285.873L216.484 268.699C216.484 268.279 216.827 267.938 217.254 267.938L238.841 267.982C239.263 267.982 239.606 268.323 239.606 268.748L239.571 285.922C239.566 286.342 239.224 286.683 238.801 286.683Z" fill="white"/>
<path d="M215.264 282.308L215.251 288.077L241.301 288.132L241.313 282.363L215.264 282.308Z" fill="#434785"/>
<path d="M221.453 270.299H222.055L221.1 273.06H220.554L219.62 270.299H220.241L220.837 272.398L221.453 270.299Z" fill="#424143"/>
<path d="M222.914 270.304H223.57L224.549 273.065H223.918L223.734 272.497H222.711L222.522 273.065H221.916L222.914 270.304ZM222.87 272.023H223.58L223.232 270.936L222.87 272.023Z" fill="#424143"/>
<path d="M225.17 270.595C225.394 270.368 225.677 270.254 226.025 270.254C226.487 270.254 226.825 270.408 227.039 270.714C227.158 270.887 227.218 271.055 227.228 271.227H226.646C226.611 271.094 226.562 270.995 226.507 270.926C226.403 270.808 226.249 270.743 226.05 270.743C225.841 270.743 225.682 270.827 225.558 270.995C225.439 271.163 225.379 271.405 225.379 271.711C225.379 272.023 225.439 272.255 225.568 272.408C225.692 272.561 225.851 272.64 226.05 272.64C226.249 272.64 226.403 272.576 226.507 272.442C226.567 272.373 226.611 272.265 226.651 272.121H227.228C227.178 272.423 227.049 272.665 226.845 272.857C226.641 273.045 226.378 273.139 226.06 273.139C225.662 273.139 225.354 273.011 225.131 272.754C224.907 272.497 224.793 272.146 224.793 271.702C224.783 271.227 224.912 270.857 225.17 270.595Z" fill="#424143"/>
<path d="M227.958 270.605C228.182 270.378 228.465 270.264 228.813 270.264C229.275 270.264 229.613 270.417 229.827 270.724C229.946 270.896 230.005 271.064 230.015 271.237H229.434C229.399 271.104 229.35 271.005 229.295 270.936C229.191 270.817 229.036 270.753 228.838 270.753C228.629 270.753 228.47 270.837 228.346 271.005C228.226 271.173 228.167 271.415 228.167 271.721C228.167 272.032 228.226 272.265 228.356 272.418C228.48 272.571 228.639 272.65 228.838 272.65C229.036 272.65 229.191 272.586 229.295 272.452C229.355 272.383 229.399 272.275 229.439 272.131H230.015C229.966 272.433 229.837 272.675 229.633 272.867C229.429 273.055 229.166 273.149 228.848 273.149C228.45 273.149 228.142 273.02 227.918 272.763C227.695 272.507 227.58 272.156 227.58 271.711C227.571 271.237 227.7 270.862 227.958 270.605Z" fill="#424143"/>
<path d="M231.004 273.085H230.428L230.433 270.324H231.009L231.004 273.085Z" fill="#424143"/>
<path d="M231.546 270.324H232.152L233.25 272.25L233.255 270.324H233.797L233.792 273.085H233.211L232.083 271.124L232.078 273.085H231.536L231.546 270.324Z" fill="#424143"/>
<path d="M236.396 270.822L234.925 270.818V271.405L236.277 271.41V271.889L234.925 271.884V272.596L236.466 272.601V273.1L234.359 273.095L234.364 270.333L236.401 270.338L236.396 270.822Z" fill="#424143"/>
<path d="M218.668 274.461L218.664 276.091L237.403 276.131L237.407 274.501L218.668 274.461Z" fill="#D4D7EC"/>
<path d="M237.397 277.067L218.658 277.027L218.655 278.657L237.394 278.697L237.397 277.067Z" fill="#D4D7EC"/>
<path d="M233.407 279.626L218.653 279.595L218.65 281.225L233.404 281.256L233.407 279.626Z" fill="#D4D7EC"/>
<g opacity="0.3">
<g opacity="0.3">
<path opacity="0.3" d="M216.479 277.422V294.531C216.479 295.396 216.867 296.216 217.537 296.769C218.064 297.204 218.725 297.441 219.411 297.441H235.094L226.845 291.938C224.609 290.447 223.267 287.942 223.267 285.265V263.399L217.975 265.167C217.085 265.464 216.484 266.293 216.484 267.227V277.422H216.479Z" fill="#E2F1FA"/>
</g>
</g>
<path d="M345.467 245.429H248.76V254.483H345.467V245.429Z" fill="white"/>
<path d="M331.801 260.775H248.759V269.829H331.801V260.775Z" fill="white"/>
<path d="M345.467 276.122H248.759V285.176H345.467V276.122Z" fill="white"/>
<path d="M305.792 291.468H248.759V300.522H305.792V291.468Z" fill="white"/>
<path d="M253.078 185.861H247.805C251.736 183.594 254.385 179.371 254.385 174.526C254.385 167.295 248.486 161.432 241.211 161.432C233.936 161.432 228.037 167.295 228.037 174.526C228.037 179.371 230.686 183.594 234.617 185.861H229.344C225.265 185.861 221.955 189.151 221.955 193.206V213.359H260.457V193.206C260.467 189.151 257.158 185.861 253.078 185.861Z" fill="white"/>
<path d="M343.097 169.769H271.32V176.487H343.097V169.769Z" fill="white"/>
<path d="M332.954 181.159H271.32V187.877H332.954V181.159Z" fill="white"/>
<path d="M307.208 198.046H271.32V201.405H307.208V198.046Z" fill="white"/>
<path d="M292.484 203.741H271.32V207.1H292.484V203.741Z" fill="white"/>
<path d="M348.379 226.62H211.181C208.12 226.62 205.636 224.156 205.636 221.108V153.682C205.636 150.639 208.115 148.169 211.181 148.169H348.379C351.44 148.169 353.925 150.634 353.925 153.682V221.113C353.92 224.156 351.44 226.62 348.379 226.62Z" stroke="white" stroke-width="1.17226" stroke-miterlimit="10"/>
<path d="M279.783 137.723C304.291 137.723 324.158 117.975 324.158 93.6149C324.158 69.2547 304.291 49.5068 279.783 49.5068C255.274 49.5068 235.407 69.2547 235.407 93.6149C235.407 117.975 255.274 137.723 279.783 137.723Z" fill="white"/>
<path d="M259.031 90.5921L275.092 104.916C275.961 105.692 277.278 105.672 278.123 104.872L308.182 76.4312" stroke="#7B7BB6" stroke-width="11.9848" stroke-miterlimit="10" stroke-linecap="round"/>
<path d="M313.256 16.1785C314.901 14.5428 314.901 11.8908 313.256 10.2551C311.61 8.61939 308.942 8.61938 307.296 10.2551C305.651 11.8908 305.651 14.5428 307.296 16.1785C308.942 17.8142 311.61 17.8142 313.256 16.1785Z" fill="#D4D7EC"/>
<path opacity="0.35" d="M192.164 307.225L191.756 219.054L275.782 26.707H314.697L192.164 307.225Z" fill="white"/>
<path opacity="0.22" d="M337.705 26.4253L192.164 345.416V373.58H232.684L366.581 65.2977V26.7068L337.705 26.4253Z" fill="white"/>
<path d="M321.748 373.58H192.164V168.332" stroke="#D4D7EC" stroke-width="2.43557" stroke-miterlimit="10"/>
<path d="M192.164 73.8577V26.707H366.581V363.183" stroke="#D4D7EC" stroke-width="2.43557" stroke-miterlimit="10"/>
<path d="M1 398.785H465.128" stroke="#434785" stroke-width="1.71129" stroke-miterlimit="10" stroke-linecap="round"/>
</svg>
