<svg width="432" height="391" viewBox="0 0 432 391" fill="none" xmlns="http://www.w3.org/2000/svg">
<path d="M216 391C335.293 391 432 385.354 432 378.388C432 371.423 335.293 365.776 216 365.776C96.7065 365.776 0 371.423 0 378.388C0 385.354 96.7065 391 216 391Z" fill="#F5F5F5"/>
<path d="M270.432 339.349H154.16C146.039 339.349 139.845 332.709 140.391 324.587L159.195 46.1686C159.741 38.0467 166.838 31.4065 174.959 31.4065H291.231C299.352 31.4065 305.546 38.0467 305 46.1686L286.195 324.587C285.649 332.698 278.553 339.349 270.432 339.349Z" fill="#263238"/>
<path d="M296.155 144.779H293.225C290.952 144.779 289.225 142.919 289.381 140.657L292.98 87.4133C293.136 85.1405 295.119 83.291 297.38 83.291H300.31C302.583 83.291 304.309 85.1516 304.153 87.4133L300.555 140.657C300.41 142.919 298.427 144.779 296.155 144.779Z" fill="#263238"/>
<path d="M157.491 109.261H154.561C152.712 109.261 151.297 107.746 151.419 105.886L152.723 86.6558C152.845 84.8064 154.472 83.28 156.321 83.28H159.251C161.1 83.28 162.515 84.7952 162.393 86.6558L161.089 105.886C160.967 107.746 159.351 109.261 157.491 109.261Z" fill="#407BFF"/>
<path d="M155.174 143.598H152.244C150.395 143.598 148.98 142.083 149.102 140.223L150.406 120.993C150.528 119.144 152.155 117.617 154.004 117.617H156.934C158.783 117.617 160.198 119.132 160.076 120.993L158.772 140.223C158.65 142.083 157.034 143.598 155.174 143.598Z" fill="#407BFF"/>
<path d="M267.97 339.349H151.698C143.577 339.349 137.383 332.709 137.929 324.587L156.733 46.1686C157.279 38.0467 164.376 31.4065 172.497 31.4065H288.769C296.89 31.4065 303.084 38.0467 302.538 46.1686L283.733 324.587C283.187 332.698 276.091 339.349 267.97 339.349Z" fill="#0065AA"/>
<path opacity="0.3" d="M139.154 321.512L157.513 49.7227H301.29L282.931 321.512H139.154Z" fill="white"/>
<path opacity="0.1" d="M195.914 321.512L247.226 49.7227H279.433L228.121 321.512H195.914Z" fill="white"/>
<path opacity="0.1" d="M171.583 321.512L222.896 49.7227H239.205L187.904 321.512H171.583Z" fill="white"/>
<path d="M216.156 38.2139H244.196C245.199 38.2139 245.956 39.0383 245.89 40.0299C245.823 41.0326 244.943 41.8459 243.951 41.8459H215.911C214.908 41.8459 214.151 41.0215 214.218 40.0299C214.284 39.0383 215.153 38.2139 216.156 38.2139Z" fill="white"/>
<path d="M210.318 366.133L200.493 367.08L196.939 344.396L206.776 343.46L210.318 366.133Z" fill="#FFB573"/>
<path d="M199.367 362.278L209.65 359.069C210.04 358.947 210.419 359.125 210.563 359.493L213.928 367.67C214.273 368.517 213.761 369.587 212.87 369.843C209.149 370.935 205.617 371.224 201.128 373.152C195.881 375.402 193.675 378.366 188.038 378.366C183.983 378.366 183.08 374.656 184.785 374.143C192.561 371.781 191.558 369.843 197.229 363.76C197.852 363.091 198.554 362.534 199.367 362.278Z" fill="#263238"/>
<path opacity="0.2" d="M196.95 344.407L198.777 356.095L208.603 355.159L206.787 343.46L196.95 344.407Z" fill="black"/>
<path d="M204.058 57.9113C191.168 56.3961 178.346 57.4211 165.479 59.9056C161.112 60.7523 157.725 64.3509 157.224 68.774C155.831 81.0962 154.238 108.715 160.454 149.915L213.126 145.481C213.237 138.005 207.912 103.947 212.313 68.5957C212.97 63.2814 209.305 58.5352 204.058 57.9113Z" fill="white"/>
<path d="M173.377 68.4731L175.271 72.25C175.46 72.6288 175.839 72.8739 176.262 72.8962L178.301 72.9964C178.669 73.0187 179.025 72.9073 179.315 72.6845L182.824 70.0663L178.479 66.9133L173.377 68.4731Z" fill="#A20851"/>
<path d="M178.368 71.9269C176.853 71.3587 175.995 71.7375 175.995 71.7375C174.335 77.5866 172.519 94.3764 172.33 101.796C177.365 116.458 179.003 117.951 179.003 117.951L181.565 100.292C181.565 100.292 178.702 82.2436 178.368 71.9269Z" fill="#A20851"/>
<path d="M192.906 32.5093C191.703 39.7733 190.678 53.0537 195.881 57.7441C192.071 61.7549 187.057 66.3897 178.479 66.9245C169.901 67.4481 171.227 61.5098 173.399 58.3346C181.409 56.1955 181.019 50.2238 179.449 44.6532L192.906 32.5093Z" fill="#FFCCA9"/>
<path d="M198.075 57.1093C197.407 56.8085 196.672 56.6079 196.181 56.4965C195.858 56.4185 195.524 56.5522 195.357 56.8419C194.521 58.2457 192.004 64.5182 178.479 66.9358C180.696 68.2505 183.66 72.3282 184.941 74.289C188.996 72.1833 199.546 65.8886 198.532 57.7443C198.499 57.4547 198.331 57.2207 198.075 57.1093Z" fill="#F5F5F5"/>
<path d="M173.488 58.6577C173.6 58.1007 173.121 57.6216 172.575 57.7219C172.018 57.8333 171.461 58.0115 171.194 58.1007C171.082 58.1341 171.004 58.1898 170.904 58.2678C169.868 59.2259 164.22 67.3701 169.511 73.9769C170.692 72.1831 174.469 68.1166 178.49 66.9245C174.68 65.1976 172.809 62.0112 173.488 58.6577Z" fill="#F5F5F5"/>
<path opacity="0.2" d="M187.425 37.4673L179.471 44.6422C179.85 45.968 180.15 47.305 180.284 48.6085C183.348 48.0849 187.481 44.5977 187.715 41.3667C187.826 39.7512 187.704 38.2026 187.425 37.4673Z" fill="black"/>
<path d="M176.797 10.5612C169.935 13.2462 169.489 18.8837 170.169 25.0559C170.848 31.2281 177.499 27.1393 178.981 23.2956C180.462 19.4407 186.3 6.84004 176.797 10.5612Z" fill="#263238"/>
<path d="M198.688 22.8499C196.783 32.5539 196.159 38.3139 190.6 42.7815C182.245 49.4996 170.904 43.6951 169.901 33.6791C168.999 24.6659 172.263 10.316 182.256 7.48615C192.093 4.70085 200.593 13.1459 198.688 22.8499Z" fill="#FFCCA9"/>
<path d="M198.287 30.8828C190.121 31.3173 191.848 26.6714 193.341 24.0086C194.822 21.3459 191.792 16.9562 193.775 14.6612C190.244 16.065 186.545 14.9063 181.833 11.6308C178.179 9.07942 173.6 19.2848 169.144 14.1709C164.933 9.3468 168.843 2.0716 178.958 0.890629C189.063 -0.279197 190.912 6.8846 197.552 6.24955C204.191 5.6145 201.885 11.0737 200.582 12.1878C206.141 12.5666 209.182 17.881 198.287 30.8828Z" fill="#263238"/>
<path d="M199.334 12.8675C199.334 12.8675 203.512 10.851 203.579 5.74829C205.74 9.62543 205.495 14.0151 199.334 12.8675Z" fill="#263238"/>
<path d="M178.123 33.2112C181.131 33.6903 183.136 32.0859 183.225 32.0079C183.325 31.93 183.348 31.774 183.259 31.6737C183.181 31.5734 183.036 31.5623 182.924 31.6403C182.902 31.6626 180.574 33.5232 177.254 32.5204C177.131 32.487 176.998 32.5539 176.953 32.6764C176.909 32.799 176.975 32.9327 177.098 32.9661C177.466 33.0886 177.8 33.1555 178.123 33.2112Z" fill="#263238"/>
<path d="M200.66 33.8352C199.022 35.9632 196.582 37.1553 194.432 37.4227C191.179 37.8349 190.11 34.8156 191.469 31.9969C192.694 29.4567 195.869 26.1812 198.9 27.0725C201.896 27.9415 202.531 31.4064 200.66 33.8352Z" fill="#FFCCA9"/>
<path d="M197.44 244.827C197.83 215.738 201.54 146.462 201.54 146.462L160.477 149.927C160.477 149.927 168.642 221.331 173.578 251.011C178.702 281.872 194.421 354.134 194.421 354.134L211.087 352.719C211.098 352.708 205.027 267.321 197.44 244.827Z" fill="#5DCEC1"/>
<path d="M193.419 354.591L213.226 352.908L212.457 346.513L191.803 347.895L193.419 354.591Z" fill="#407BFF"/>
<path d="M184.05 23.4294C183.938 24.2204 183.437 24.8221 182.924 24.7663C182.412 24.7106 182.078 24.0199 182.189 23.2177C182.3 22.4267 182.802 21.8251 183.314 21.8808C183.827 21.9365 184.161 22.6272 184.05 23.4294Z" fill="#263238"/>
<path d="M174.959 22.6716C174.848 23.4626 174.346 24.0642 173.834 24.0085C173.321 23.9528 172.987 23.2621 173.099 22.4599C173.21 21.6689 173.711 21.0673 174.224 21.123C174.736 21.1898 175.07 21.8806 174.959 22.6716Z" fill="#263238"/>
<path d="M177.521 23.6521C177.521 23.6521 175.026 27.4958 172.72 29.2673C173.901 30.5039 176.352 30.1697 176.352 30.1697L177.521 23.6521Z" fill="#ED893E"/>
<path opacity="0.4" d="M169.188 22.9167C169.021 24.1868 170.325 25.2453 172.074 25.4681C173.823 25.6909 175.471 24.7105 175.639 23.4404" fill="#407BFF"/>
<path opacity="0.4" d="M179.738 24.0977C179.504 25.3566 180.73 26.493 182.468 26.8272C184.205 27.1615 185.91 26.2813 186.144 25.0224" fill="#407BFF"/>
<path d="M183.158 27.1282C182.958 27.1282 182.757 27.117 182.557 27.0947C181.654 26.9833 180.83 26.6157 180.251 26.0586C179.638 25.4904 179.359 24.7885 179.449 24.0866C179.371 24.0309 178.747 23.7747 177.655 23.641C176.563 23.4961 175.884 23.5853 175.772 23.6855C175.616 25.0336 173.923 25.9806 172.029 25.7467C171.127 25.6352 170.302 25.2676 169.723 24.7105C169.11 24.1423 168.832 23.4404 168.921 22.7385L169.456 22.8054C169.389 23.329 169.612 23.8749 170.091 24.3206C170.592 24.7885 171.305 25.1116 172.096 25.2119C173.689 25.4236 175.115 24.6771 175.26 23.5518C175.338 22.9391 176.63 22.9725 177.711 23.1062C178.78 23.2399 180.05 23.5407 179.972 24.1535C179.905 24.6771 180.128 25.223 180.607 25.6687C181.108 26.1366 181.821 26.4597 182.612 26.56C183.403 26.6602 184.172 26.5377 184.774 26.2034C185.353 25.8915 185.709 25.4236 185.776 24.8999L185.81 24.6325L199.568 26.404L199.501 26.9388L186.266 25.2342C186.11 25.8246 185.687 26.326 185.041 26.6714C184.506 26.9722 183.849 27.1282 183.158 27.1282Z" fill="#263238"/>
<path d="M187.548 19.931C187.626 19.931 187.704 19.9087 187.782 19.8641C188.004 19.7304 188.082 19.4408 187.96 19.2179C186.69 16.9786 184.54 16.8671 184.451 16.8671C184.194 16.856 183.972 17.0565 183.96 17.3128C183.949 17.569 184.139 17.7919 184.395 17.803C184.462 17.803 186.144 17.9144 187.147 19.697C187.225 19.853 187.38 19.931 187.548 19.931Z" fill="#263238"/>
<path d="M172.018 18.6719C172.163 18.6831 172.319 18.6274 172.43 18.4937C173.756 16.8782 175.427 17.0008 175.505 17.0119C175.761 17.0342 175.995 16.8448 176.017 16.5885C176.051 16.3323 175.873 16.0983 175.616 16.076C175.527 16.0649 173.388 15.8755 171.717 17.9032C171.55 18.1037 171.572 18.4046 171.773 18.5605C171.851 18.6274 171.929 18.6608 172.018 18.6719Z" fill="#263238"/>
<path d="M231.652 240.137C223.13 196.33 221.225 162.07 213.126 145.481L173.344 149.915C173.344 149.915 197.039 215.192 208.614 243.056C220.634 272.023 244.363 321.512 244.363 321.512H264.238C264.227 321.512 245.678 260.091 231.652 240.137Z" fill="#5DCEC1"/>
<path d="M105.555 74.3111L101.288 71.5927C99.8397 70.6679 97.9236 70.8908 96.765 72.1163L93.8462 75.1913C92.5205 76.595 92.6542 78.7899 94.1358 80.06L96.2191 81.8426C98.0238 83.38 100.14 84.5276 102.424 85.2072L108.719 87.0678L112.852 82.6336C114.066 77.9431 105.555 74.3111 105.555 74.3111Z" fill="#FFCCA9"/>
<path d="M169.199 72.2278C167.64 76.0381 166.114 79.581 164.454 83.2019C162.794 86.8005 161.1 90.3879 159.251 93.942C157.402 97.5072 155.408 101.028 153.157 104.571C152.021 106.342 150.807 108.102 149.414 109.863C147.999 111.623 146.462 113.406 144.29 115.177C143.187 116.057 141.906 116.949 140.179 117.717C139.722 117.907 139.277 118.085 138.764 118.23L137.984 118.441C137.695 118.519 137.193 118.609 136.792 118.653C135.143 118.843 133.818 118.631 132.737 118.352C130.587 117.773 129.284 116.971 128.08 116.236C126.9 115.489 125.93 114.731 125.017 113.974C121.463 110.943 118.789 107.88 116.16 104.749C113.565 101.629 111.114 98.4987 108.763 95.3123C106.39 92.1148 104.14 88.973 101.834 85.6195L114.155 77.6647C118.01 83.8703 122.421 90.0983 127.033 95.6577C129.35 98.3985 131.812 101.072 134.13 103C134.698 103.468 135.255 103.88 135.7 104.147C136.113 104.426 136.525 104.537 136.246 104.437C136.09 104.392 135.723 104.303 135.032 104.37C134.876 104.381 134.609 104.437 134.553 104.459C134.52 104.459 134.497 104.47 134.464 104.482C134.408 104.504 134.408 104.482 134.397 104.504C134.419 104.482 134.742 104.292 135.121 103.958C135.912 103.289 136.915 102.164 137.862 100.905C138.82 99.6351 139.756 98.2202 140.658 96.7384C142.485 93.7637 144.123 90.5216 145.693 87.2238C147.253 83.9037 148.757 80.5168 150.127 77.063C151.486 73.6316 152.845 70.0664 153.971 66.6794L169.199 72.2278Z" fill="white"/>
<g opacity="0.6">
<path opacity="0.6" d="M169.199 72.2278C167.64 76.0381 166.114 79.581 164.454 83.2019C162.794 86.8005 161.1 90.3879 159.251 93.942C157.402 97.5072 155.408 101.028 153.157 104.571C152.021 106.342 150.807 108.102 149.414 109.863C147.999 111.623 146.462 113.406 144.29 115.177C143.187 116.057 141.906 116.949 140.179 117.717C139.722 117.907 139.277 118.085 138.764 118.23L137.984 118.441C137.695 118.519 137.193 118.609 136.792 118.653C135.143 118.843 133.818 118.631 132.737 118.352C130.587 117.773 129.284 116.971 128.08 116.236C126.9 115.489 125.93 114.731 125.017 113.974C121.463 110.943 118.789 107.88 116.16 104.749C113.565 101.629 111.114 98.4987 108.763 95.3123C106.39 92.1148 104.14 88.973 101.834 85.6195L114.155 77.6647C118.01 83.8703 122.421 90.0983 127.033 95.6577C129.35 98.3985 131.812 101.072 134.13 103C134.698 103.468 135.255 103.88 135.7 104.147C136.113 104.426 136.525 104.537 136.246 104.437C136.09 104.392 135.723 104.303 135.032 104.37C134.876 104.381 134.609 104.437 134.553 104.459C134.52 104.459 134.497 104.47 134.464 104.482C134.408 104.504 134.408 104.482 134.397 104.504C134.419 104.482 134.742 104.292 135.121 103.958C135.912 103.289 136.915 102.164 137.862 100.905C138.82 99.6351 139.756 98.2202 140.658 96.7384C142.485 93.7637 144.123 90.5216 145.693 87.2238C147.253 83.9037 148.757 80.5168 150.127 77.063C151.486 73.6316 152.845 70.0664 153.971 66.6794L169.199 72.2278Z" fill="white"/>
</g>
<path d="M198.376 55.1261C194.198 62.8693 179.326 92.6386 177.521 110.977C170.937 94.3098 172.374 57.2987 172.374 57.2987C169.133 57.3878 163.195 58.825 158.694 60.5853C155.786 61.7329 153.781 64.507 153.547 67.6154C152.868 76.651 151.921 98.1758 155.352 124.959C159.975 160.945 164.298 216.896 164.298 216.896C164.298 216.896 201.117 215.359 229.524 209.365C226.06 181.857 214.206 135.755 214.095 123.411C213.961 107.523 214.329 76.4615 214.83 63.4932C214.975 59.6606 212.391 56.374 208.681 55.6164C203.59 54.5802 198.376 55.1261 198.376 55.1261Z" fill="white"/>
<path opacity="0.7" d="M198.376 55.1261C194.198 62.8693 179.326 92.6386 177.521 110.977C170.937 94.3097 172.374 57.2987 172.374 57.2987C169.133 57.3878 163.195 58.825 158.694 60.5853C155.786 61.7329 153.781 64.507 153.547 67.6154C152.868 76.6509 151.921 98.1757 155.352 124.959C159.975 160.945 164.298 216.896 164.298 216.896C164.298 216.896 201.117 215.359 229.524 209.365C226.06 181.857 214.206 135.755 214.095 123.411C213.961 107.523 214.329 76.4504 214.83 63.482C214.975 59.7831 212.591 56.4742 209.026 55.6832C203.835 54.5579 198.376 55.1261 198.376 55.1261Z" fill="white"/>
<path d="M189.698 210.936C183.303 175.652 178.234 123.89 177.822 117.651L178.401 117.606C178.814 123.834 183.882 175.574 190.277 210.824L189.698 210.936Z" fill="white"/>
<path d="M186.5 148.166H152.556C151.219 148.166 149.904 147.074 149.615 145.748L138.252 92.9726C137.962 91.6356 138.82 90.5549 140.157 90.5549H174.101C175.438 90.5549 176.753 91.6468 177.042 92.9726L188.405 145.748C188.695 147.074 187.837 148.166 186.5 148.166Z" fill="white"/>
<path d="M185.453 148.656H150.94C149.581 148.656 148.244 147.553 147.944 146.194L136.391 92.5381C136.102 91.1789 136.97 90.0759 138.318 90.0759H172.831C174.19 90.0759 175.527 91.1789 175.828 92.5381L187.38 146.194C187.681 147.542 186.801 148.656 185.453 148.656Z" fill="#6F6FD8"/>
<path d="M189.408 118.33L180.819 118.007C179.783 117.973 178.758 118.152 177.8 118.531L173.366 120.313C171.55 121.048 170.726 123.087 171.539 124.836L173.321 128.68C174.034 130.207 175.772 131.031 177.443 130.619L182.356 129.404C182.356 129.404 191.58 128.669 191.915 123.845L189.408 118.33Z" fill="#FFCCA9"/>
<path d="M213.126 59.8945C215.254 63.1923 217.203 66.2896 219.119 69.5651C221.035 72.8072 222.918 76.0827 224.689 79.4808C226.45 82.8788 228.143 86.3549 229.669 90.1095C230.416 92.0035 231.117 93.9532 231.697 96.1146C232.254 98.2983 232.788 100.604 232.677 103.769L232.666 104.058L232.655 104.203C232.655 104.237 232.655 104.303 232.633 104.426C232.588 104.827 232.532 105.228 232.443 105.629C232.354 105.986 232.265 106.342 232.153 106.688C232.042 107.033 231.92 107.3 231.797 107.612C231.296 108.749 230.705 109.64 230.171 110.308C229.068 111.712 228.054 112.57 227.085 113.383C225.146 114.943 223.33 116.046 221.537 117.071C217.95 119.077 214.44 120.648 210.92 122.129C207.422 123.622 203.913 124.981 200.392 126.263C196.861 127.577 193.407 128.781 189.742 130.006L185.498 115.968C188.795 115.055 192.249 113.929 195.569 112.793C198.9 111.623 202.208 110.386 205.417 109.061C208.603 107.713 211.733 106.253 214.485 104.671C215.844 103.891 217.136 103.056 218.016 102.32C218.44 101.975 218.785 101.596 218.785 101.563C218.819 101.529 218.707 101.629 218.573 101.93C218.529 102.019 218.507 102.086 218.462 102.22C218.417 102.354 218.373 102.487 218.351 102.621C218.306 102.788 218.273 102.966 218.261 103.145C218.261 103.212 218.261 103.212 218.261 103.189V103.167V103.122C218.273 102.632 218.061 101.34 217.66 100.014C217.259 98.6659 216.702 97.2064 216.067 95.7246C214.786 92.7499 213.193 89.7195 211.455 86.7337C209.717 83.7478 207.879 80.762 205.918 77.843C203.968 74.9463 201.907 71.9716 199.858 69.2977L213.126 59.8945Z" fill="white"/>
<g opacity="0.7">
<path opacity="0.7" d="M213.126 59.8945C215.254 63.1923 217.203 66.2896 219.119 69.5651C221.035 72.8072 222.918 76.0827 224.689 79.4808C226.45 82.8788 228.143 86.3549 229.669 90.1095C230.416 92.0035 231.117 93.9532 231.697 96.1146C232.254 98.2983 232.788 100.604 232.677 103.769L232.666 104.058L232.655 104.203C232.655 104.237 232.655 104.303 232.633 104.426C232.588 104.827 232.532 105.228 232.443 105.629C232.354 105.986 232.265 106.342 232.153 106.688C232.042 107.033 231.92 107.3 231.797 107.612C231.296 108.749 230.705 109.64 230.171 110.308C229.068 111.712 228.054 112.57 227.085 113.383C225.146 114.943 223.33 116.046 221.537 117.071C217.95 119.077 214.44 120.648 210.92 122.129C207.422 123.622 203.913 124.981 200.392 126.263C196.861 127.577 193.407 128.781 189.742 130.006L185.498 115.968C188.795 115.055 192.249 113.929 195.569 112.793C198.9 111.623 202.208 110.386 205.417 109.061C208.603 107.713 211.733 106.253 214.485 104.671C215.844 103.891 217.136 103.056 218.016 102.32C218.44 101.975 218.785 101.596 218.785 101.563C218.819 101.529 218.707 101.629 218.573 101.93C218.529 102.019 218.507 102.086 218.462 102.22C218.417 102.354 218.373 102.487 218.351 102.621C218.306 102.788 218.273 102.966 218.261 103.145C218.261 103.212 218.261 103.212 218.261 103.189V103.167V103.122C218.273 102.632 218.061 101.34 217.66 100.014C217.259 98.6659 216.702 97.2064 216.067 95.7246C214.786 92.7499 213.193 89.7195 211.455 86.7337C209.717 83.7478 207.879 80.762 205.918 77.843C203.968 74.9463 201.907 71.9716 199.858 69.2977L213.126 59.8945Z" fill="white"/>
</g>
<path d="M201.852 98.5543C201.707 98.5543 201.562 98.4874 201.473 98.3537C201.339 98.1532 201.406 97.8747 201.607 97.741L203.345 96.638C206.676 94.5212 208.335 90.644 207.578 86.7669L204.08 69.0412C203.4 65.6209 200.626 64.3062 198.443 64.206C196.259 64.1168 193.385 65.1975 192.427 68.551L187.47 85.9202C186.389 89.7193 187.715 93.719 190.856 96.1032L192.494 97.351C192.683 97.4959 192.728 97.7744 192.583 97.975C192.438 98.1644 192.16 98.2089 191.959 98.0641L190.322 96.8163C186.879 94.1981 185.431 89.8307 186.612 85.6751L191.569 68.3059C192.472 65.1418 195.19 63.2032 198.476 63.3258C201.763 63.4595 204.303 65.6432 204.938 68.8741L208.436 86.5998C209.271 90.8334 207.455 95.0671 203.812 97.3845L202.075 98.4874C202.019 98.532 201.93 98.5543 201.852 98.5543Z" fill="#263238"/>
<path d="M204.525 69.3979C204.514 69.3979 204.514 69.3979 204.503 69.3979L191.993 68.8743C191.747 68.8632 191.558 68.6626 191.569 68.4175C191.58 68.1724 191.792 68.0164 192.026 67.9941L204.537 68.5178C204.782 68.5289 204.971 68.7295 204.96 68.9746C204.949 69.2197 204.759 69.3979 204.525 69.3979Z" fill="#263238"/>
<path d="M198.443 64.2172C198.209 64.2172 198.008 64.0278 197.997 63.7827C197.942 61.599 197.295 57.6884 195.212 56.8306C194.989 56.7414 194.878 56.474 194.967 56.2512C195.056 56.0284 195.312 55.917 195.546 56.0061C198.632 57.2762 198.866 63.0919 198.877 63.7492C198.888 64.0055 198.699 64.206 198.443 64.2172C198.454 64.2172 198.443 64.2172 198.443 64.2172Z" fill="#263238"/>
<path d="M160.176 79.3581C160.142 79.3581 160.12 79.3581 160.087 79.347C159.853 79.3024 159.697 79.0684 159.741 78.8233C161.212 71.5036 167.294 59.939 172.653 56.5632C172.865 56.4295 173.132 56.4964 173.266 56.6969C173.399 56.9086 173.333 57.176 173.132 57.3097C167.952 60.574 162.047 71.8489 160.621 79.0016C160.566 79.2133 160.376 79.3581 160.176 79.3581Z" fill="#263238"/>
<path d="M163.83 80.5056C163.139 82.2771 161.624 83.3466 160.454 82.8898C159.285 82.4331 158.906 80.617 159.596 78.8456C160.287 77.0741 161.802 76.0046 162.972 76.4725C164.142 76.9293 164.532 78.7342 163.83 80.5056Z" fill="white"/>
<path d="M193.24 97.7523C193.207 98.5879 192.728 99.2452 192.182 99.2229C191.636 99.2007 191.213 98.5099 191.246 97.6743C191.28 96.8387 191.759 96.1814 192.304 96.2037C192.85 96.226 193.274 96.9279 193.24 97.7523Z" fill="white"/>
<path d="M202.843 98.1534C202.81 98.989 202.331 99.6464 201.785 99.6241C201.239 99.6018 200.816 98.911 200.849 98.0754C200.883 97.2398 201.362 96.5825 201.907 96.6048C202.464 96.6271 202.877 97.329 202.843 98.1534Z" fill="white"/>
<path d="M391.761 82.7118L390.647 82.6338C390.981 77.7206 389.355 73.0747 386.068 69.5652C382.793 66.0669 378.292 64.1283 373.391 64.1283V63.0142C378.604 63.0142 383.395 65.0641 386.882 68.7964C390.38 72.551 392.106 77.4866 391.761 82.7118Z" fill="#A4A4FF"/>
<path d="M390.295 87.7444L389.683 96.949L390.795 97.023L391.407 87.8183L390.295 87.7444Z" fill="#A4A4FF"/>
<path d="M373.391 66.9248H296.567C288.033 66.9248 280.569 73.9103 279.99 82.4556L279.288 92.8058C278.709 101.34 285.226 108.337 293.771 108.337H370.594L385.5 117.539L387.873 82.4556C388.441 73.9103 381.924 66.9248 373.391 66.9248Z" fill="#A4A4FF"/>
<path d="M369.48 81.7424H298.283V84.3272H369.48V81.7424Z" fill="white"/>
<path d="M368.868 90.9229H316.007V93.5076H368.868V90.9229Z" fill="white"/>
<path d="M257.754 122.296H336.316C345.05 122.296 351.712 129.438 351.121 138.173L350.408 148.757C349.818 157.491 342.187 164.633 333.464 164.633H254.891L238.381 174.047L240.81 138.173C241.389 129.438 249.02 122.296 257.754 122.296Z" fill="white"/>
<path opacity="0.15" d="M257.754 122.296H336.316C345.05 122.296 351.712 129.438 351.121 138.173L350.408 148.757C349.818 157.491 342.187 164.633 333.464 164.633H254.891L238.381 174.047L240.81 138.173C241.389 129.438 249.02 122.296 257.754 122.296Z" fill="#407BFF"/>
<path opacity="0.5" d="M332.327 137.448H259.514V140.1H332.327V137.448Z" fill="#407BFF"/>
<path opacity="0.5" d="M287.655 146.829H258.879V149.481H287.655V146.829Z" fill="#407BFF"/>
<path opacity="0.5" d="M313.088 146.829H294.707V149.481H313.088V146.829Z" fill="#407BFF"/>
</svg>
