<svg width="403" height="451" viewBox="0 0 403 451" fill="none" xmlns="http://www.w3.org/2000/svg">
<g clip-path="url(#clip0_8_246)">
<path d="M295.375 312.091L244.983 315.038L244.446 317.68C244.446 317.68 283.822 314.472 295.375 312.091Z" fill="#4E9DC4"/>
<path d="M385.58 450.536H236.332C227.159 450.536 219.728 443.103 219.728 433.929V353.318C219.728 344.144 227.159 336.711 236.332 336.711H385.58C394.753 336.711 402.184 344.144 402.184 353.318V433.929C402.184 443.089 394.753 450.536 385.58 450.536Z" fill="#736BE5"/>
<path d="M368.004 451H218.741C209.568 451 202.137 443.568 202.137 434.393V353.783C202.137 344.608 209.568 337.176 218.741 337.176H367.989C377.162 337.176 384.593 344.608 384.593 353.783V434.393C384.593 443.568 377.162 451 368.004 451Z" fill="#9D99E5"/>
<path d="M302.429 369.707H274.359C256.434 369.707 241.833 355.118 241.833 337.176C241.833 319.248 256.42 304.644 274.359 304.644H302.429C320.354 304.644 334.955 319.233 334.955 337.176C334.955 355.104 320.368 369.707 302.429 369.707ZM274.373 318.508C264.083 318.508 255.708 326.884 255.708 337.176C255.708 347.468 264.083 355.844 274.373 355.844H302.444C312.734 355.844 321.109 347.468 321.109 337.176C321.109 326.884 312.734 318.508 302.444 318.508H274.373Z" fill="#9D99E5"/>
<path d="M202.152 359.865C202.152 347.076 212.515 336.711 225.302 336.711H370.282C383.069 336.711 385.391 345.9 384.593 359.865H202.152Z" fill="#BDBDFF"/>
<path d="M318.482 393.892H299.134V377.604C299.134 374.425 296.551 371.841 293.372 371.841C290.194 371.841 287.61 374.425 287.61 377.604V393.892H268.263C265.084 393.892 262.501 396.476 262.501 399.655C262.501 402.834 265.084 405.418 268.263 405.418H287.61V427.846C287.61 431.025 290.194 433.609 293.372 433.609C296.551 433.609 299.134 431.025 299.134 427.846V405.418H318.482C321.66 405.418 324.244 402.834 324.244 399.655C324.244 396.476 321.66 393.892 318.482 393.892Z" fill="white"/>
<path d="M212.457 450.782H36.3287C19.0424 450.782 5.03638 436.774 5.03638 419.485V31.2977C5.03638 14.0085 19.0424 0 36.3287 0H212.457C229.743 0 243.749 14.0085 243.749 31.2977V419.485C243.749 436.774 229.743 450.782 212.457 450.782Z" fill="#79C5EC"/>
<path d="M173.675 23.4152H76.5761C70.814 23.4152 66.126 18.7408 66.126 12.9633V6.09692H184.125V12.9487C184.125 18.7263 179.452 23.4152 173.675 23.4152Z" fill="#0065AA"/>
<path d="M373.2 76.5312C369.905 44.4496 311.965 35.5655 256.434 42.1415C200.903 48.7175 198.755 61.3179 200.192 99.1915C200.657 111.632 204.082 121.489 209.612 129.27C206.201 140.912 192.514 143.307 194.416 145.136C204.198 154.529 221.441 145.906 225.592 143.612C252.385 159.348 294.853 157.04 325.492 152.714C366.204 146.965 376.814 111.705 373.2 76.5312Z" fill="#6F6FD8"/>
<path d="M262.327 96.8979C262.327 100.15 259.685 102.792 256.434 102.792C253.183 102.792 250.541 100.15 250.541 96.8979C250.541 93.6462 253.183 91.0042 256.434 91.0042C259.685 91.0187 262.327 93.6462 262.327 96.8979Z" fill="white"/>
<path d="M291.427 96.8979C291.427 100.15 288.786 102.792 285.535 102.792C282.284 102.792 279.642 100.15 279.642 96.8979C279.642 93.6462 282.284 91.0042 285.535 91.0042C288.8 91.0187 291.427 93.6462 291.427 96.8979Z" fill="white"/>
<path d="M319.425 96.8979C319.425 100.15 316.783 102.792 313.532 102.792C310.281 102.792 307.64 100.15 307.64 96.8979C307.64 93.6462 310.281 91.0042 313.532 91.0042C316.783 91.0187 319.425 93.6462 319.425 96.8979Z" fill="white"/>
<path d="M105.749 184.708C106.344 183.765 128.899 195.102 154.241 180.281C179.582 165.474 164.778 321.396 164.778 321.396L162.717 402.326L159.843 441.405H96.7071L83.7461 318.406C83.7461 318.406 96.9394 198.659 105.749 184.708Z" fill="#5DCEC1"/>
<path d="M219.772 207.717C209.452 198.848 161.991 180.833 161.991 180.833L154.241 194.681C154.241 194.681 156.752 366.427 155.46 401.803L155.445 441.405H213.386L213.676 351.968C230.425 347.715 243.299 340.66 250.382 332.908C258.408 324.111 260.353 319.161 260.353 307.46C260.338 295.775 230.091 216.587 219.772 207.717Z" fill="white"/>
<path d="M100.539 335.811C101.09 334.926 101.381 334.447 101.381 334.447V182.371C101.381 182.371 53.9052 200.386 43.6003 209.256C33.2808 218.126 3.29475 300.13 3.00447 311.815C1.87238 358.196 42.2069 416.712 42.2069 416.712C42.2069 416.712 43.5857 416.131 45.9806 414.447C45.1968 425.248 43.8615 441.405 43.8615 441.405H106.794C106.794 441.405 106.998 393.34 106.794 391.148C106.649 389.842 103.267 359.909 100.539 335.811Z" fill="white"/>
<path d="M201.513 294.425L190.903 300.71C190.657 300.855 190.352 300.855 190.105 300.725L178.9 294.425C178.653 294.279 178.494 294.018 178.494 293.728V270.226C178.494 269.79 178.842 269.427 179.292 269.427H201.107C201.542 269.427 201.905 269.776 201.905 270.226V293.742C201.905 294.033 201.76 294.279 201.513 294.425Z" fill="#D5E1ED"/>
<path d="M201.513 294.425L190.903 300.71C190.657 300.855 190.352 300.855 190.105 300.725L178.9 294.425C178.653 294.279 178.494 294.018 178.494 293.728V274.972C178.494 274.537 178.842 274.174 179.292 274.174H201.107C201.542 274.174 201.905 274.522 201.905 274.972V293.742C201.905 294.033 201.76 294.279 201.513 294.425Z" fill="#B8DDFF"/>
<g opacity="0.5">
<g opacity="0.5">
<path opacity="0.5" d="M155.46 403.357V329.061V167.637C155.46 167.637 157.448 171.295 164.749 178.699C173.864 187.946 181.687 201.911 181.687 201.911L165.213 198.717L186.607 220.245L170.511 314.878L159.117 316.577L166.331 339.484L155.46 403.357Z" fill="#8FA7D7"/>
</g>
</g>
<g opacity="0.5">
<path opacity="0.5" d="M94.1236 178.525C85.0088 187.772 77.1858 201.736 77.1858 201.736L93.6592 198.543L72.2655 220.071L106.78 398.537L103.413 167.463C103.413 167.477 101.424 171.136 94.1236 178.525Z" fill="#8FA7D7"/>
</g>
<path d="M155.46 393.471L151.875 165.793C151.875 165.793 155.576 167.376 162.877 174.779C171.991 184.026 178.102 200.053 178.102 200.053L161.628 196.859L183.022 218.387L167.695 315.749L159.843 317.564L165.591 329.105L155.46 393.471Z" fill="white"/>
<path d="M106.78 391.148V165.793C106.78 165.793 103.079 167.376 95.7782 174.779C86.6634 184.026 80.553 200.053 80.553 200.053L97.0264 196.859L75.6327 218.387L106.78 391.148Z" fill="white"/>
<path d="M132.397 409.541C118.028 409.541 107.041 407.378 106.881 407.349V406.028C107.128 406.071 132.15 411.021 155.46 405.97V407.291C147.564 409.004 139.625 409.541 132.397 409.541Z" fill="#38A595"/>
<path d="M129.219 205.583C116.243 205.583 106.925 201.054 106.78 200.982V199.385C106.998 199.501 129.988 210.417 152.383 198.398L152.412 199.936C144.241 204.32 136.36 205.583 129.219 205.583Z" fill="#38A595"/>
<path opacity="0.5" d="M23.9047 311.888C23.9047 311.888 41.0457 315.183 49.9574 324.096C49.9429 324.096 27.7364 312.991 23.9047 311.888Z" fill="#8FA7D7"/>
<path d="M69.3337 388.289L72.9332 392.644C72.9332 392.644 65.7052 410.339 57.6789 419.673L51.1621 410.615C51.1621 410.615 61.1768 402.994 69.3337 388.289Z" fill="#FFCCA9"/>
<path opacity="0.5" d="M44.1954 311.888C44.6017 312.57 50.3638 318.058 52.2797 323.4L43.2374 313.122L44.1954 311.888Z" fill="#8FA7D7"/>
<path opacity="0.5" d="M62.425 252.385C62.3814 251.557 57.1564 320.583 54.9212 329.613L72.2655 382.656C72.2655 382.656 63.1072 403.357 45.9661 414.462C45.9661 414.462 56.9387 412.822 74.2104 388.971C74.2104 388.971 65.5745 413.649 53.3682 424.072C53.3682 424.072 72.5558 412.691 78.1872 378.141L60.0882 329.598C60.0882 329.598 63.2523 267.729 62.425 252.385Z" fill="#8FA7D7"/>
<path opacity="0.5" d="M213.661 351.968L205.316 354.378L206.593 361.854L213.661 359.125V351.968Z" fill="#8FA7D7"/>
<path opacity="0.5" d="M211.658 300.173L205.316 248.189L207.29 301.828C185.998 309.914 163.065 319.567 163.065 319.567C163.065 319.567 175.257 316.432 190.207 312.44C205.171 308.448 232.979 292.828 232.979 292.828C227.304 294.497 219.728 297.168 211.658 300.173Z" fill="#8FA7D7"/>
<path opacity="0.1" d="M241.093 249.496C241.093 249.496 254.489 285.584 254.634 308.999C254.692 317.709 249.714 324.909 246.129 327.508C211.223 352.883 168.203 353.783 168.203 353.783C168.203 353.783 167.855 359.589 167.028 360.693C167.028 360.693 243.197 355.641 257.755 322.659C257.755 322.659 261.064 317.404 260.309 309.144C258.902 293.583 250.251 271.706 241.093 249.496Z" fill="#8FA7D7"/>
<path opacity="0.1" d="M28.9555 236.242C29.4925 234.863 7.24249 291.507 7.44569 311.888C7.85208 354.683 39.4637 408.684 45.966 414.447L42.1923 416.712C42.1923 416.712 0.24672 354.392 2.98987 311.815C3.54141 303.41 4.57191 299.68 28.9555 236.242Z" fill="#8FA7D7"/>
<path d="M167.245 360.359C169.713 335.26 162.499 319.799 163.341 319.422C171.483 315.749 191.731 307.794 208.03 301.465L208.726 264.506L125.43 261.138L123.544 384.195L206.535 380.812L207.043 353.957C186.52 358.747 167.245 360.359 167.245 360.359Z" fill="#AE376D"/>
<path d="M180.729 263.374L180.758 261.878L158.174 260.586L158.131 262.459L180.729 263.374Z" fill="#A1B5BF"/>
<path d="M161.048 264.956C161.048 265.217 160.83 265.42 160.583 265.42C160.322 265.42 160.119 265.203 160.119 264.956C160.119 264.709 160.337 264.491 160.583 264.491C160.845 264.477 161.048 264.695 161.048 264.956Z" fill="#A1B5BF"/>
<path d="M178.958 265.711C178.958 265.871 178.828 266.001 178.668 266.001C178.508 266.001 178.378 265.871 178.378 265.711C178.378 265.551 178.508 265.421 178.668 265.421C178.828 265.421 178.958 265.551 178.958 265.711Z" fill="#A1B5BF"/>
<path d="M165.75 136.136C163.385 144.686 159.19 151.248 157.361 150.74C157.361 150.74 158.639 145.296 160.351 136.586C162.34 126.483 162.615 119.355 166.752 119.732C168.624 119.907 168.116 127.571 165.75 136.136Z" fill="#F0BA92"/>
<g opacity="0.6">
<g opacity="0.6">
<path opacity="0.6" d="M162.572 132.594C160.409 141.202 159.19 151.248 157.361 150.74C157.361 150.74 159.176 142.973 160.888 134.264C162.877 124.16 162.673 120.662 166.795 121.053C166.795 121.039 165.184 122.128 162.572 132.594Z" fill="#D88D64"/>
</g>
</g>
<path d="M93.2093 136.136C95.575 144.686 99.5229 151.291 101.337 150.798C101.337 150.798 99.4067 143.743 98.2601 136.325C96.6781 126.149 96.3443 119.355 92.2078 119.732C90.321 119.907 90.8435 127.571 93.2093 136.136Z" fill="#F0BA92"/>
<g opacity="0.6">
<g opacity="0.6">
<path opacity="0.6" d="M95.1106 131.665C97.2732 140.273 99.5228 151.306 101.337 150.798C101.337 150.798 99.4067 141.928 97.6941 133.218C95.7056 123.115 96.0395 120.72 91.903 121.097C91.903 121.097 92.4835 121.199 95.1106 131.665Z" fill="#D88D64"/>
</g>
</g>
<path d="M152.194 185.841C152.194 185.841 149.059 194.101 129.335 194.101C109.61 194.101 106.78 186.334 106.78 186.334V161.235H151.89L152.194 185.841Z" fill="#F0BA92"/>
<g opacity="0.6">
<g opacity="0.6">
<path opacity="0.6" d="M151.904 167.623C147.826 176.129 131.904 182.821 129.32 182.821C126.751 182.821 113.21 177.682 106.765 167.768V154.674H151.875L151.904 167.623Z" fill="#D88D64"/>
</g>
</g>
<path d="M157.361 150.74C149.843 175.447 129.32 175.853 129.32 175.853C129.32 175.853 107.636 175.795 101.163 150.145C96.8958 133.218 86.6053 107.306 98.9277 88.1009C105.909 77.228 156.636 72.8876 162.615 88.1009C168.595 103.314 161.774 136.252 157.361 150.74Z" fill="#FFCCA9"/>
<path d="M140.351 149.825C141.178 150.522 138.624 159.45 129.335 159.551C121.454 159.638 117.506 151.538 118.217 150.333C119.102 148.838 122.237 149.854 129.015 149.854C135.793 149.84 139.451 149.07 140.351 149.825Z" fill="white"/>
<path d="M129.219 160.001C124.182 160.001 120.496 156.721 118.71 153.629C117.999 152.395 117.39 150.827 117.825 150.087C118.551 148.867 120.234 148.969 123.282 149.158C124.806 149.259 126.693 149.375 129.015 149.375C131.788 149.375 133.994 149.245 135.779 149.143C138.566 148.983 139.973 148.896 140.641 149.462C141.28 149.999 140.786 151.611 140.554 152.279C140.104 153.556 137.419 159.914 129.335 160.001C129.306 160.001 129.262 160.001 129.219 160.001ZM120.699 149.97C119.596 149.97 118.899 150.101 118.623 150.566C118.522 150.783 118.725 151.974 119.799 153.658C120.626 154.935 123.732 159.101 129.219 159.101C129.262 159.101 129.291 159.101 129.335 159.101C134.705 159.043 137.477 155.922 138.667 154.079C139.843 152.235 140.148 150.551 140.032 150.174C139.582 149.883 137.927 149.97 135.851 150.087C134.052 150.188 131.831 150.319 129.03 150.319C126.679 150.319 124.777 150.203 123.239 150.101C122.237 150.014 121.381 149.97 120.699 149.97Z" fill="#D3976E"/>
<path d="M129.349 142.277C128.261 141.493 126.577 139.736 127.549 136.833C128.391 134.336 128.507 129.531 128.507 129.488L129.422 129.502C129.422 129.705 129.306 134.481 128.406 137.123C127.651 139.344 128.783 140.738 129.872 141.522L129.349 142.277Z" fill="#D88D64"/>
<path d="M164.967 326.419L156.461 327.711C145.605 328.655 141.585 320.293 131.991 321.527C122.397 322.761 123.544 326.579 123.544 326.579C117.186 326.753 118.856 335.55 118.856 335.55C115.851 340.021 118.972 345.189 118.972 345.189C116.78 348.281 119.697 352.97 119.697 352.97C120.51 358.065 126.693 362.275 133.341 362.986C133.558 363.015 133.79 363.03 134.023 363.044C134.255 363.059 134.502 363.073 134.734 363.088C134.981 363.088 135.242 363.088 135.489 363.088C135.837 363.088 136.185 363.073 136.548 363.044C136.577 363.044 136.592 363.044 136.621 363.044C136.635 363.044 136.664 363.044 136.679 363.03C136.984 363.001 137.274 362.986 137.579 362.943C145.605 361.854 167.71 352.897 167.71 352.897C168.058 335.622 164.967 326.419 164.967 326.419Z" fill="#FFCCA9"/>
<path d="M123.544 326.564C123.544 326.564 129.044 327.638 132.034 327.842C135.01 328.045 141.933 329.192 143.558 329.584C143.558 329.584 134.603 328.829 131.976 328.669C129.973 328.553 122.716 326.651 123.544 326.564Z" fill="#D88D64"/>
<path d="M125.271 337.989C125.271 337.989 121.221 336.334 120.046 334.722C118.855 333.111 118.812 331.282 118.783 331.398C118.42 332.951 118.87 335.55 118.87 335.55L125.271 337.989Z" fill="#D88D64"/>
<path d="M125.43 347.584C125.43 347.584 121.584 345.871 120.017 344.637C118.26 343.244 117.636 341.081 117.651 341.197C117.854 343.316 119.03 345.145 119.03 345.145L125.43 347.584Z" fill="#D88D64"/>
<path d="M126.156 355.379C126.156 355.379 122.31 353.681 120.742 352.433C118.986 351.039 118.202 348.615 118.217 348.745C118.42 350.865 119.755 352.941 119.755 352.941L126.156 355.379Z" fill="#D88D64"/>
<path d="M124.342 324.314C124.342 324.314 123.369 326.55 125.126 326.855L125.416 327.261L123.544 326.564C123.544 326.564 123.384 325.287 124.342 324.314Z" fill="#D88D64"/>
<g opacity="0.1">
<g opacity="0.1">
<g opacity="0.1">
<path opacity="0.1" d="M93.8913 222.031L94.2977 197.396L92.2367 197.788L91.8303 222.176C80.669 224.092 78.4339 243.907 78.0565 269.195V269.209L78.0275 270.617C78.0275 275.785 80.7706 277.063 84.283 277.614C85.5603 277.818 86.8955 277.89 88.1438 277.934C88.4776 278.674 89.2033 279.197 90.0596 279.197C91.2207 279.197 92.1641 278.253 92.1641 277.092V275.379C92.1641 274.217 91.2207 273.274 90.0596 273.274C89.0001 273.274 88.1583 274.072 88.0131 275.088C85.2119 274.943 81.7721 274.348 80.6545 272.287C79.566 270.269 80.2046 265.987 80.2917 263.098C81.0319 240.989 83.4267 224.193 93.6881 224.193C103.935 224.193 108.725 240.946 109.465 263.011C109.552 265.783 110.045 269.848 109 271.909C108.057 273.782 105.546 274.609 103.035 274.943C102.759 273.956 101.816 273.274 100.756 273.405C99.5953 273.55 98.7825 274.595 98.9132 275.742L99.1164 277.455C99.2615 278.616 100.307 279.429 101.453 279.298C102.324 279.197 103.021 278.558 103.224 277.759C107.244 277.208 111.787 275.422 111.642 270.153L111.613 268.077C111.627 268.048 111.627 268.019 111.642 267.975C111.178 242.107 106.127 222.292 93.8913 222.031Z" fill="#0E3368"/>
</g>
</g>
<g opacity="0.1">
<g opacity="0.1">
<path opacity="0.1" d="M193.849 241.947C191.774 193.128 169.118 182.037 168.16 181.573C168.16 181.573 169.466 182.618 175.155 190.472C181.063 198.659 190.25 213.408 191.498 241.991C186.607 242.673 182.848 246.868 182.848 251.935C182.848 257.494 187.347 261.995 192.906 261.995C198.465 261.995 202.964 257.494 202.964 251.935C202.95 246.723 198.958 242.441 193.849 241.947Z" fill="#0E3368"/>
</g>
</g>
<path opacity="0.1" d="M206.927 353.942L206.52 381.001L131.28 383.875L131.163 393.384L211.658 389.972V352.767L206.927 353.942Z" fill="#0E3368"/>
</g>
<path d="M108.826 265.406C108.318 239.392 104.429 219.65 92.0045 219.65C79.3773 219.65 75.6036 240.046 75.2118 266.654V266.669L75.1827 268.077C75.1827 273.245 77.9259 274.522 81.4383 275.074C82.7155 275.277 84.0508 275.35 85.299 275.393C85.6329 276.134 86.3586 276.656 87.2149 276.656C88.376 276.656 89.3194 275.713 89.3194 274.551V272.838C89.3194 271.677 88.376 270.734 87.2149 270.734C86.1554 270.734 85.3135 271.532 85.1684 272.548C82.3672 272.403 78.9274 271.808 77.8098 269.746C76.7212 267.729 77.3598 263.446 77.4469 260.557C78.1871 238.449 81.7866 221.827 92.0336 221.827C102.28 221.827 105.865 238.405 106.62 260.47C106.707 263.243 107.201 267.308 106.156 269.369C105.212 271.242 102.701 272.069 100.19 272.403C99.9147 271.416 98.9713 270.734 97.9117 270.864C96.7506 271.009 95.9378 272.055 96.0685 273.201L96.2717 274.914C96.4168 276.076 97.4618 276.889 98.6084 276.758C99.4793 276.656 100.176 276.018 100.379 275.219C104.4 274.668 108.942 272.882 108.797 267.612L108.768 265.537C108.797 265.464 108.812 265.435 108.826 265.406Z" fill="#383F47"/>
<path d="M92.2368 220.724H90.1758V198.194L92.2368 197.802V220.724Z" fill="#383F47"/>
<path d="M186.273 236.242C185.214 206.991 175.881 192.01 169.887 183.721C164.212 175.853 162.891 174.823 162.891 174.823C163.864 175.273 186.825 186.494 188.639 236.155L186.273 236.242Z" fill="#383F47"/>
<path d="M187.608 236.794C186.012 206.382 178.755 193.07 172.775 184.781C167.1 176.913 162.877 174.779 162.877 174.779C163.849 175.229 186.839 187.38 188.654 237.055L187.608 236.794Z" fill="#1A2026"/>
<path d="M197.697 245.185C197.697 250.745 193.197 255.245 187.638 255.245C182.079 255.245 177.58 250.745 177.58 245.185C177.58 239.625 182.079 235.125 187.638 235.125C193.197 235.125 197.697 239.64 197.697 245.185Z" fill="#BCBCBC"/>
<path d="M187.638 255.535C181.934 255.535 177.289 250.889 177.289 245.184C177.289 239.479 181.934 234.834 187.638 234.834C193.342 234.834 197.986 239.479 197.986 245.184C197.986 250.889 193.342 255.535 187.638 255.535ZM187.638 235.429C182.253 235.429 177.87 239.813 177.87 245.199C177.87 250.585 182.253 254.969 187.638 254.969C193.022 254.969 197.406 250.585 197.406 245.199C197.391 239.799 193.022 235.429 187.638 235.429Z" fill="#444444"/>
<g opacity="0.3">
<g opacity="0.3">
<path opacity="0.3" d="M192.63 254.286L190.09 248.944L191.89 244.023L197.435 241.642C197.42 241.642 200.657 248.755 192.63 254.286Z" fill="white"/>
</g>
</g>
<path d="M192.151 245.925C192.151 248.552 190.134 250.672 187.638 250.672C185.141 250.672 183.124 248.552 183.124 245.925C183.124 243.297 185.141 241.178 187.638 241.178C190.12 241.163 192.151 243.297 192.151 245.925Z" fill="#635B53"/>
<g opacity="0.4">
<g opacity="0.4">
<path opacity="0.4" d="M186.041 234.776L186.593 240.873L183.211 244.865L177.187 245.17C177.187 245.184 176.592 237.186 186.041 234.776Z" fill="white"/>
</g>
</g>
<path d="M191.659 245.185C191.659 247.406 189.859 249.206 187.638 249.206C185.418 249.206 183.618 247.406 183.618 245.185C183.618 242.964 185.418 241.164 187.638 241.164C189.859 241.164 191.659 242.964 191.659 245.185Z" fill="#D3D3D3"/>
<path d="M187.638 249.496C185.257 249.496 183.327 247.565 183.327 245.184C183.327 242.804 185.257 240.873 187.638 240.873C190.018 240.873 191.948 242.804 191.948 245.184C191.948 247.565 190.018 249.496 187.638 249.496ZM187.638 241.468C185.577 241.468 183.907 243.138 183.907 245.199C183.907 247.246 185.577 248.93 187.638 248.93C189.699 248.93 191.368 247.26 191.368 245.199C191.368 243.138 189.684 241.468 187.638 241.468Z" fill="#A8A6A0"/>
<path d="M189.205 245.663C189.205 246.534 188.494 247.246 187.623 247.246C186.752 247.246 186.041 246.534 186.041 245.663C186.041 244.792 186.752 244.081 187.623 244.081C188.494 244.081 189.205 244.792 189.205 245.663Z" fill="#BABABA"/>
<path d="M187.623 246.767C188.497 246.767 189.205 246.058 189.205 245.184C189.205 244.311 188.497 243.602 187.623 243.602C186.749 243.602 186.041 244.311 186.041 245.184C186.041 246.058 186.749 246.767 187.623 246.767Z" fill="white"/>
<path d="M86.9682 275.655H86.5328C86.1699 275.655 85.8796 275.364 85.8796 275.001V272.229C85.8796 271.866 86.1699 271.576 86.5328 271.576H86.9682C87.3311 271.576 87.6213 271.866 87.6213 272.229V275.001C87.6213 275.364 87.3311 275.655 86.9682 275.655Z" fill="#AAA9A2"/>
<path d="M98.7536 275.626L98.3181 275.669C97.9553 275.698 97.6505 275.437 97.607 275.089L97.3457 272.33C97.3167 271.967 97.5779 271.663 97.9263 271.619L98.3617 271.576C98.7245 271.546 99.0293 271.808 99.0729 272.156L99.3341 274.914C99.3777 275.277 99.1164 275.597 98.7536 275.626Z" fill="#AAA9A2"/>
<g opacity="0.4">
<g opacity="0.4">
<path opacity="0.4" d="M186.607 241.744C184.285 242.513 184.125 244.662 184.125 244.662L186.389 244.822L186.984 244.226L186.607 241.744Z" fill="white"/>
</g>
</g>
<g opacity="0.4">
<g opacity="0.4">
<path opacity="0.4" d="M189.786 248.131C191.701 246.607 191.106 244.546 191.106 244.546L188.929 245.17L188.581 245.939L189.786 248.131Z" fill="white"/>
</g>
</g>
<path d="M96.62 133.567C96.62 133.567 92.2803 116.379 91.511 107.698C90.7418 99.0173 89.8274 87.3605 99.6099 83.383C109.392 79.42 106.388 91.5268 106.388 91.5268C106.388 91.5268 98.6519 96.7237 97.0989 109.76C96.2571 116.844 96.62 133.567 96.62 133.567Z" fill="#2A445D"/>
<path d="M161.628 133.305C161.628 133.305 166.447 116.379 167.216 107.698C167.985 99.0173 168.9 87.3605 159.117 83.383C149.335 79.42 152.339 91.5268 152.339 91.5268C152.339 91.5268 160.075 96.7237 161.628 109.76C162.47 116.844 161.628 133.305 161.628 133.305Z" fill="#2A445D"/>
<path d="M153.646 95.7076C153.646 95.7076 141.73 97.6092 133.747 93.8494C131.41 92.7462 120.06 97.5802 114.85 96.6076C104.864 94.7349 100.481 86.6057 100.278 85.7782C99.697 83.3249 97.3167 79.841 104.53 74.4263C114.516 66.9358 126.838 68.7503 128.899 66.5583C130.96 64.3663 133.036 63.0308 137.027 63.4228C147.724 64.497 148.246 70.7681 154.27 71.7117C162.107 72.9311 164.749 76.0957 165.257 82.6717C166.215 95.185 153.646 95.7076 153.646 95.7076Z" fill="#2A445D"/>
<path d="M130.96 64.8889C130.96 64.8889 127.607 67.2987 119.189 77.0973C110.771 86.896 106.388 86.3008 105.444 86.4605C105.444 86.4605 112.716 87.7089 120.394 77.6054C128.072 67.5019 130.96 64.8889 130.96 64.8889Z" fill="#1F384C"/>
<path d="M144.168 95.3737C144.168 95.3737 158.218 97.0286 164.342 89.6977C164.342 89.6977 163.051 97.3769 144.487 95.5043L144.168 95.3737Z" fill="#1F384C"/>
<path d="M121.062 95.5915C104.501 97.8996 99.7405 84.225 99.8276 84.4863C102.44 92.7752 109.029 95.9689 113.848 97.2173C115.3 97.6093 116.736 97.856 118.159 97.9577C118.943 98.0157 119.422 98.0157 119.422 98.0157C119.422 98.0157 119.436 98.0157 119.451 98.0012C135.285 98.1464 148.101 81.3943 148.101 81.3943C137.361 90.6413 127.825 94.2559 121.062 95.5915Z" fill="#1F384C"/>
<path d="M149.321 116.307C147.303 114.913 144.995 114.289 142.528 114.652C141.483 114.811 140.627 113.824 140.859 112.794C140.975 112.285 141.352 111.85 141.846 111.69C145.257 110.631 148.682 111.197 151.309 113.911C151.657 114.274 151.773 114.797 151.657 115.29L151.628 115.392C151.396 116.423 150.191 116.902 149.321 116.307Z" fill="#2A445D"/>
<path d="M142.122 128.747C143.099 128.747 143.892 127.74 143.892 126.497C143.892 125.254 143.099 124.247 142.122 124.247C141.144 124.247 140.351 125.254 140.351 126.497C140.351 127.74 141.144 128.747 142.122 128.747Z" fill="#210601"/>
<path d="M117.128 124.058C116.156 124.058 115.358 125.075 115.358 126.308C115.358 127.557 116.156 128.559 117.128 128.559C118.101 128.559 118.899 127.542 118.899 126.308C118.914 125.06 118.115 124.058 117.128 124.058Z" fill="#210601"/>
<path d="M149.219 124.204C148.247 121.199 145.445 119.007 142.136 119.007C138.406 119.007 135.329 121.765 134.763 125.35C134.763 125.35 134.763 125.35 134.748 125.35C133.442 123.87 131.555 122.912 129.436 122.912C127.506 122.912 125.779 123.695 124.487 124.944C123.848 121.46 120.8 118.818 117.143 118.818C113.819 118.818 111.033 121.01 110.06 124.015C97.6215 119.602 94.5591 119.021 93.7318 119.181C93.485 119.224 93.2818 119.602 93.2383 119.805L93.8769 120.066C93.8769 120.066 93.993 119.907 94.0075 119.907C95.0816 119.776 102.818 122.302 109.828 124.784C109.726 125.278 109.668 125.8 109.668 126.323C109.668 130.446 113.021 133.814 117.157 133.814C119.93 133.814 122.324 132.289 123.616 130.039C123.834 130.01 124.066 129.923 124.255 129.821C124.473 129.72 124.676 129.56 124.835 129.386C125.155 129.038 125.358 128.588 125.416 128.123C125.576 126.962 125.314 126.105 124.98 125.612C126.127 124.45 127.695 123.725 129.451 123.725C131.367 123.725 133.065 124.596 134.226 125.946C133.936 126.454 133.732 127.252 133.878 128.312C133.936 128.776 134.139 129.226 134.458 129.575C134.618 129.749 134.821 129.894 135.039 130.01C135.227 130.097 135.46 130.199 135.677 130.228C136.969 132.478 139.364 134.002 142.136 134.002C146.258 134.002 149.625 130.649 149.625 126.512C149.625 125.989 149.567 125.467 149.466 124.973C156.578 122.447 164.299 119.892 165.184 120.095C165.155 120.081 165.983 119.762 165.983 119.762C165.707 119.224 165.373 118.47 149.219 124.204ZM117.128 133.015C113.442 133.015 110.437 130.01 110.437 126.323C110.437 122.636 113.442 119.631 117.128 119.631C120.815 119.631 123.819 122.636 123.819 126.323C123.834 130.01 120.829 133.015 117.128 133.015ZM124.603 128.486C124.516 128.646 124.429 128.805 124.284 128.921C124.226 128.965 124.153 128.994 124.095 129.038C124.4 128.254 124.574 127.412 124.603 126.541C124.676 126.686 124.734 126.817 124.763 126.976C124.835 127.455 124.777 128.021 124.603 128.486ZM134.981 129.11C134.836 128.98 134.734 128.834 134.661 128.675C134.487 128.21 134.429 127.644 134.502 127.165C134.531 127.005 134.589 126.86 134.661 126.729C134.69 127.615 134.865 128.457 135.169 129.226C135.097 129.183 135.039 129.154 134.981 129.11ZM142.122 133.189C138.435 133.189 135.431 130.184 135.431 126.497C135.431 122.81 138.435 119.805 142.122 119.805C145.808 119.805 148.813 122.81 148.813 126.497C148.813 130.184 145.808 133.189 142.122 133.189Z" fill="#302420"/>
<path d="M109.944 116.118C111.961 114.724 114.269 114.1 116.736 114.463C117.781 114.623 118.638 113.636 118.406 112.605C118.289 112.097 117.912 111.661 117.419 111.502C114.008 110.442 110.583 111.008 107.955 113.723C107.607 114.086 107.491 114.608 107.607 115.102L107.636 115.203C107.868 116.234 109.073 116.728 109.944 116.118Z" fill="#2A445D"/>
<path d="M77.1712 266.364C77.1712 266.364 75.2118 226.647 88.6228 221.493C91.6853 220.318 94.5591 221.029 96.6636 222.132C103.761 225.877 105.532 239.465 106.069 245.649C106.78 253.648 107.868 265.275 106.446 268.527C106.446 268.527 106.94 250.062 103.848 236.576C100.757 223.105 94.9219 221.624 91.1918 221.827C87.4617 222.031 83.122 226.211 80.7127 234.384C78.3033 242.557 77.1712 266.364 77.1712 266.364Z" fill="#1A2026"/>
<path d="M75.2408 269.296C75.2408 269.151 76.1697 272.809 79.7402 273.622C83.3107 274.45 85.1685 272.519 85.1685 272.519C85.1685 272.519 84.9217 274.798 85.2991 275.379C85.2846 275.379 75.5602 276.424 75.2408 269.296Z" fill="#1A2026"/>
<path d="M108.812 266.582C108.812 266.495 108.957 268.208 108.246 269.63C106.998 272.127 105.88 272.243 104.559 272.94C101.323 274.653 100.191 272.359 100.191 272.359C100.191 272.359 100.626 274.522 100.408 275.161C100.394 275.176 109.538 274.871 108.812 266.582Z" fill="#1A2026"/>
<path d="M90.1758 198.194L92.2368 197.802L92.1062 198.848L90.1758 199.225V198.194Z" fill="#1A2026"/>
</g>
<defs>
<clipPath id="clip0_8_246">
<rect width="402.184" height="451" fill="white"/>
</clipPath>
</defs>
</svg>
