<svg width="97" height="108" viewBox="0 0 97 108" fill="none" xmlns="http://www.w3.org/2000/svg">
<path d="M48.5355 107.003C46.1267 107.003 43.7178 106.384 41.5766 105.146L7.28418 85.3445C3.0018 82.8693 0.325317 78.2533 0.325317 73.3029V33.6996C0.325317 28.7492 2.98507 24.1333 7.28418 21.6581L41.5766 1.85641C45.8758 -0.618802 51.1953 -0.618802 55.4944 1.85641L89.7869 21.6581C94.0692 24.1333 96.7457 28.7492 96.7457 33.6996V73.3029C96.7457 78.2533 94.086 82.8693 89.7869 85.3445L55.4944 105.146C53.3532 106.384 50.9443 107.003 48.5355 107.003ZM48.5355 5.85353C47.1471 5.85353 45.7419 6.20474 44.5041 6.92389L10.2116 26.7255C7.71911 28.1638 6.18013 30.8397 6.18013 33.6996V73.3029C6.18013 76.1628 7.71911 78.8387 10.2116 80.277L44.5041 100.079C46.9965 101.517 50.0745 101.517 52.567 100.079L86.8762 80.277C89.3686 78.8387 90.9076 76.1628 90.9076 73.3029V33.6996C90.9076 30.8397 89.3686 28.1638 86.8762 26.7255L52.567 6.92389C51.3291 6.20474 49.9407 5.85353 48.5355 5.85353Z" fill="#F8FBFF"/>
<g opacity="0.5">
<path opacity="0.5" d="M48.5355 107.003C46.1267 107.003 43.7178 106.384 41.5766 105.146L7.28418 85.3445C3.0018 82.8693 0.325317 78.2533 0.325317 73.3029V33.6996C0.325317 28.7492 2.98507 24.1333 7.28418 21.6581L41.5766 1.85641C45.8758 -0.618802 51.1953 -0.618802 55.4944 1.85641L89.7869 21.6581C94.0692 24.1333 96.7457 28.7492 96.7457 33.6996V73.3029C96.7457 78.2533 94.086 82.8693 89.7869 85.3445L55.4944 105.146C53.3532 106.384 50.9443 107.003 48.5355 107.003ZM48.5355 5.85353C47.1471 5.85353 45.7419 6.20474 44.5041 6.92389L10.2116 26.7255C7.71911 28.1638 6.18013 30.8397 6.18013 33.6996V73.3029C6.18013 76.1628 7.71911 78.8387 10.2116 80.277L44.5041 100.079C46.9965 101.517 50.0745 101.517 52.567 100.079L86.8762 80.277C89.3686 78.8387 90.9076 76.1628 90.9076 73.3029V33.6996C90.9076 30.8397 89.3686 28.1638 86.8762 26.7255L52.567 6.92389C51.3291 6.20474 49.9407 5.85353 48.5355 5.85353Z" fill="white"/>
</g>
<path opacity="0.1" d="M89.8035 21.658L81.5399 16.8916L77.5252 21.3403L86.8594 26.7255C89.3519 28.1638 90.8909 30.8397 90.8909 33.6996V73.3029C90.8909 76.1628 89.3519 78.8387 86.8594 80.277L52.5669 100.079C50.0912 101.517 46.9965 101.517 44.504 100.079L19.5458 85.6789L15.5311 90.1276L41.5766 105.163C43.7178 106.4 46.1266 107.019 48.5355 107.019C50.9443 107.019 53.3532 106.4 55.4943 105.163L89.7868 85.3612C94.0692 82.886 96.7457 78.27 96.7457 73.3196V33.6996C96.7457 28.7492 94.0859 24.1333 89.8035 21.658Z" fill="black"/>
<path d="M58.1876 81.1799L57.2174 73.4198C57.184 73.4031 57.1505 73.4031 57.1003 73.3863C56.9832 73.3529 56.8829 73.3362 56.7658 73.3027C56.6988 73.286 56.6319 73.2693 56.565 73.2525C56.4479 73.2191 56.3141 73.1857 56.197 73.1522C55.6952 73.0017 55.1933 72.8512 54.7082 72.6672C54.5409 72.617 54.3904 72.5501 54.2231 72.4832C53.5373 72.2156 52.8681 71.9313 52.2157 71.6136C52.0317 71.5299 51.8477 71.4296 51.6804 71.346C51.3124 71.1453 50.9444 70.9446 50.5931 70.7272C50.4258 70.6268 50.2418 70.5097 50.0745 70.4094C49.8905 70.2923 49.7233 70.192 49.556 70.0749C49.3887 69.9578 49.2214 69.8575 49.0541 69.7237C48.9036 69.6234 48.7698 69.523 48.6359 69.4227C48.4352 69.2889 48.2512 69.1384 48.0672 68.9878C47.8999 68.8708 47.7494 68.737 47.5988 68.6032C46.662 67.8171 45.7754 66.9642 44.9725 66.0443L44.203 65.3252L54.0056 82.6015C54.4071 83.2872 55.1599 83.722 55.9628 83.722C57.3011 83.7387 58.3717 82.5346 58.1876 81.1799Z" fill="#A0A0FA"/>
<path opacity="0.1" d="M57.7694 77.9019L57.2174 73.4198C57.184 73.4031 57.1505 73.4031 57.1003 73.3863C56.9832 73.3529 56.8829 73.3362 56.7658 73.3027C56.6988 73.286 56.6319 73.2693 56.565 73.2525C56.4479 73.2191 56.3141 73.1857 56.197 73.1522C55.6952 73.0017 55.1933 72.8512 54.7082 72.6672C54.5409 72.617 54.3904 72.5501 54.2231 72.4832C53.5372 72.2156 52.8681 71.9313 52.2157 71.6136C52.0317 71.5299 51.8477 71.4296 51.6804 71.346C51.3124 71.1453 50.9444 70.9446 50.5931 70.7272C50.4258 70.6268 50.2418 70.5097 50.0745 70.4094C49.8905 70.2923 49.7233 70.192 49.556 70.0749C49.3887 69.9578 49.2214 69.8575 49.0541 69.7237C48.9036 69.6234 48.7698 69.523 48.6359 69.4227C48.4352 69.2889 48.2512 69.1384 48.0672 68.9878C47.8999 68.8708 47.7494 68.737 47.5988 68.6032C46.662 67.8171 45.7754 66.9642 44.9725 66.0443L44.203 65.3252L49.1545 74.0553C51.5299 75.8114 54.5911 77.5005 57.7694 77.9019Z" fill="black"/>
<path d="M81.9414 53.5681C81.6236 51.5779 81.1552 49.6546 80.5195 47.7982C75.7353 33.5323 62.2358 23.2468 46.3274 23.2468C35.2869 23.2468 25.3839 28.214 18.7764 36.0242C18.4084 36.4591 18.0403 36.9106 17.7058 37.3622C17.7058 37.3622 17.7058 37.3622 17.7058 37.3789C16.033 39.7203 15.0627 42.5969 15.0627 45.6909C15.0627 53.6183 21.4863 60.0405 29.4154 60.0405C29.8336 60.0405 30.2518 60.0237 30.6533 59.9903C31.406 64.4055 35.2702 67.7671 39.9039 67.7671C40.8406 67.7671 41.7607 67.6333 42.6138 67.3657C44.1695 66.8974 45.8423 67.4493 46.9296 68.6702C50.6098 72.8513 55.9962 75.4938 62.0016 75.4938C73.0756 75.4938 82.0585 66.5128 82.0585 55.4412C82.0418 54.8057 82.0083 54.1869 81.9414 53.5681Z" fill="#A0A0FA"/>
<g opacity="0.5">
<path opacity="0.5" d="M81.9414 53.5681C81.6236 51.5779 81.1552 49.6546 80.5195 47.7982C75.7353 33.5323 62.2358 23.2468 46.3274 23.2468C35.2869 23.2468 25.3839 28.214 18.7764 36.0242C18.4084 36.4591 18.0403 36.9106 17.7058 37.3622C17.7058 37.3622 17.7058 37.3622 17.7058 37.3789C16.033 39.7203 15.0627 42.5969 15.0627 45.6909C15.0627 53.6183 21.4863 60.0405 29.4154 60.0405C29.8336 60.0405 30.2518 60.0237 30.6533 59.9903C31.406 64.4055 35.2702 67.7671 39.9039 67.7671C40.8406 67.7671 41.7607 67.6333 42.6138 67.3657C44.1695 66.8974 45.8423 67.4493 46.9296 68.6702C50.6098 72.8513 55.9962 75.4938 62.0016 75.4938C73.0756 75.4938 82.0585 66.5128 82.0585 55.4412C82.0418 54.8057 82.0083 54.1869 81.9414 53.5681Z" fill="white"/>
</g>
<g opacity="0.2">
<path opacity="0.2" d="M71.0013 68.9378C66.9196 65.8438 61.8343 64.1379 56.6988 64.1379H50.7938C50.225 64.1379 49.7567 64.6062 49.7567 65.1749C49.7567 65.7435 50.225 66.2118 50.7938 66.2118H56.6988C61.3826 66.2118 66.0163 67.7671 69.6965 70.5434L70.6667 71.3963C70.8674 71.5636 71.1016 71.6472 71.3525 71.6472C71.6369 71.6472 71.9213 71.5301 72.122 71.296C72.49 70.8611 72.4566 70.2256 72.0217 69.841L71.0013 68.9378Z" fill="black"/>
<path opacity="0.2" d="M58.4553 48.3837C58.7564 48.4004 58.9404 48.4171 59.024 48.4171C59.0575 48.4171 59.0742 48.4004 59.091 48.4004L61.6336 50.3572C61.8176 50.5077 62.0351 50.5746 62.2693 50.5746C62.5704 50.5746 62.8882 50.4408 63.089 50.1732C63.4402 49.7216 63.3566 49.0694 62.9049 48.7349L60.6467 46.9788C61.3325 46.2764 62.3362 45.2897 62.8548 44.7545C63.3064 44.3029 63.6242 43.9852 63.641 43.9684C64.009 43.5503 63.9755 42.9148 63.5573 42.5301C63.1391 42.1455 62.5035 42.1789 62.1187 42.5803C62.0685 42.6305 61.7842 42.9148 61.3994 43.2995C59.8437 44.8716 58.9571 45.758 58.4887 46.3266C56.1134 46.1761 53.9555 46.1426 51.9648 46.2095C52.3663 44.9886 52.5168 43.6841 52.383 42.3964C52.3328 41.8277 51.831 41.4096 51.2622 41.4598C50.6935 41.51 50.2753 42.0117 50.3255 42.5803C50.4426 43.8514 50.2084 45.1726 49.6898 46.3433C46.9464 46.5607 44.5877 46.9956 42.5637 47.5642C41.0247 45.2395 40.021 42.5636 39.6864 39.7874C39.6195 39.2187 39.101 38.8173 38.5489 38.8842C37.9802 38.9511 37.5787 39.4696 37.6456 40.0382C37.9969 42.9483 39.0006 45.758 40.5396 48.2332C37.8965 49.2199 35.9394 50.4909 34.4673 51.8456C32.8279 49.5544 30.4358 47.8652 27.7259 47.1126C27.1739 46.9621 26.6051 47.2799 26.4546 47.8318C26.304 48.3837 26.6218 48.9523 27.1739 49.1028C29.566 49.7718 31.6737 51.3272 33.0287 53.401C31.8577 54.8727 31.1719 56.3445 30.7704 57.6155C30.6031 58.1507 30.9042 58.7361 31.4395 58.9033C31.5399 58.9368 31.6403 58.9535 31.7406 58.9535C32.1756 58.9535 32.5938 58.6692 32.7276 58.2343C35.9226 48.0325 51.7808 47.9488 58.4553 48.3837Z" fill="black"/>
<path opacity="0.2" d="M39.9038 26.6753C42.3629 27.3443 43.7513 28.6656 44.0022 30.5889C44.0189 30.6558 44.0357 30.7059 44.0691 30.7728C43.2829 33.2815 43.1993 36.4926 43.8517 40.3224C43.8684 40.4395 43.8851 40.5231 43.9018 40.5733C43.9018 40.8576 44.0357 41.1252 44.2531 41.3259C44.4539 41.4931 44.6881 41.5768 44.9222 41.5768C45.2066 41.5768 45.491 41.4597 45.7085 41.2256C46.043 40.8409 45.9761 40.4897 45.8925 39.9712C44.9724 34.6696 45.1063 28.0969 50.9276 26.8593C51.4796 26.7422 51.8476 26.1903 51.7138 25.6384C51.5967 25.0865 51.0447 24.7353 50.4927 24.8357C48.2511 25.304 46.5281 26.4412 45.3404 28.1304C44.4539 26.4914 42.7978 25.3207 40.4559 24.6684C39.9038 24.5179 39.3351 24.8357 39.1845 25.3876C39.0173 25.9562 39.3518 26.5248 39.9038 26.6753Z" fill="black"/>
<path opacity="0.2" d="M73.7614 55.4076C75.1499 52.9826 75.7855 50.106 75.4175 47.2963C74.7651 42.4295 71.1853 38.1648 66.5015 36.7098C65.9662 36.5426 65.3807 36.8436 65.2134 37.3788C65.0461 37.914 65.3472 38.4993 65.8825 38.6666C69.7634 39.8874 72.8414 43.5333 73.3767 47.5639C73.912 51.5945 71.8879 55.9261 68.4587 58.1003C67.9735 58.4013 67.8397 59.0368 68.1408 59.5218C68.3416 59.8229 68.6761 60.0068 69.0107 60.0068C69.1947 60.0068 69.3954 59.9567 69.5627 59.8396C70.7169 59.1037 71.7374 58.1672 72.5905 57.0968C74.8989 58.7692 75.819 62.3148 74.5142 64.8569C74.2633 65.3586 74.4473 65.9774 74.9659 66.245C75.1164 66.3287 75.2837 66.3621 75.4342 66.3621C75.8023 66.3621 76.1703 66.1614 76.3543 65.8102C78.1442 62.3483 76.923 57.6654 73.7614 55.4076Z" fill="black"/>
<path opacity="0.2" d="M27.6757 35.9405C29.5994 34.5859 32.1755 34.1678 34.4171 34.8869C34.9524 35.0542 35.5379 34.7531 35.7052 34.2179C35.8724 33.6828 35.5713 33.0974 35.036 32.9302C32.1923 32.027 28.8968 32.5288 26.4713 34.2681C24.397 35.7566 22.9584 38.1482 22.5569 40.7237C21.1183 40.5732 19.6462 40.9411 18.4585 41.7774C16.9363 42.8644 15.9828 44.7041 15.9828 46.5772C15.9828 47.1459 16.4344 47.6142 17.0032 47.6142C17.572 47.6142 18.0236 47.1626 18.0403 46.594C18.0403 45.3731 18.6593 44.1857 19.663 43.4665C20.6499 42.7641 21.9882 42.5634 23.1424 42.9648C23.4602 43.0819 23.7948 43.0317 24.0624 42.831C24.3301 42.647 24.4974 42.346 24.4974 42.0115C24.5643 39.6199 25.7854 37.2952 27.6757 35.9405Z" fill="black"/>
</g>
</svg>
