<svg width="98" height="108" viewBox="0 0 98 108" fill="none" xmlns="http://www.w3.org/2000/svg">
<path d="M49.1707 17.1926L45.8752 18.7982L45.0555 16.6407C44.7544 15.7209 45.2563 14.7341 46.193 14.4331C47.1298 14.1321 48.1335 14.6338 48.4346 15.5536L49.1707 17.1926Z" fill="#A0A0FA"/>
<path d="M68.8931 38.7337C66.1998 35.255 62.1015 33.6327 58.1035 33.6327C54.6073 33.6327 51.1948 34.8703 48.8529 37.1783L48.719 37.0947L50.9439 33.6829C53.2356 30.8899 55.7114 30.4551 59.977 30.6892C61.4491 30.7729 63.0048 30.9903 64.1925 31.1575C65.2464 31.308 66.2333 30.5889 66.3839 29.5353C66.4006 29.4516 66.4006 29.368 66.4006 29.2677C66.4006 28.3144 65.6813 27.4949 64.6943 27.3778C61.884 27.0601 57.0161 26.5082 56.4808 26.3744C54.072 25.7556 52.1316 25.0364 51.3286 22.9124L50.6762 21.1898L52.0981 20.5041C53.1687 19.9857 53.6036 18.6979 53.0683 17.661C52.533 16.6073 51.245 16.1725 50.1744 16.7077L49.1707 17.1927L45.8753 18.7982L44.3196 19.5508C44.169 18.9655 43.9683 18.3801 43.7341 17.7948C43.2992 16.7077 42.0445 16.1558 40.9405 16.5906C39.8364 17.0087 39.2844 18.2463 39.7194 19.3501C42.2955 25.9061 38.1469 32.3951 38.0633 32.5122C38.0298 32.5624 38.0131 32.6126 37.9796 32.646C37.7622 33.0474 37.16 33.4488 36.7585 33.6996C36.4574 33.8836 36.1396 34.0341 35.7883 34.1177C33.0951 34.8369 30.6026 36.3421 28.7458 38.7337C26.4707 41.6939 24.9485 47.029 24.9485 51.2435C24.9485 62.7164 36.8589 90.3116 48.5685 90.3116C60.964 90.3116 72.6903 62.7164 72.6903 51.2268C72.6903 47.029 71.1681 41.6939 68.8931 38.7337ZM46.8957 33.0139L46.1095 33.9672C45.7749 34.3686 45.2898 34.6028 44.7879 34.6195C44.5705 34.6195 44.3363 34.586 44.1188 34.5024H44.1021C43.9181 34.4355 43.7341 34.3352 43.5835 34.2181C42.998 33.7331 42.7639 32.9136 43.0817 32.1777C43.9348 30.221 44.8716 27.3444 44.8883 24.0497L47.2303 22.9124L47.9161 24.9695C47.9496 25.0531 47.983 25.1368 48.0165 25.2204C49.2042 27.7792 48.7023 30.8063 46.8957 33.0139Z" fill="#A0A0FA"/>
<path opacity="0.2" d="M47.8995 24.9528C47.9329 25.0364 47.9664 25.12 47.9998 25.2037C48.0166 25.2538 48.0333 25.2873 48.05 25.3375L51.7135 23.7319C51.5629 23.4811 51.4291 23.2302 51.312 22.9292L50.6596 21.2065L47.2136 22.8957L47.8995 24.9528Z" fill="black"/>
<path opacity="0.1" d="M53.7207 80.2268C45.2898 79.3906 44.4534 39.4361 42.9311 48.1997C41.4089 56.9632 46.1262 77.1997 39.5521 77.1997C33.898 77.1997 29.2309 67.9679 28.0432 65.3923C32.3423 77.2833 40.4889 90.3283 48.5518 90.3283C60.9472 90.3283 72.6736 62.7331 72.6736 51.2435C71.0844 64.0711 62.1516 81.0798 53.7207 80.2268Z" fill="black"/>
<path opacity="0.2" d="M45.8753 18.7982L49.1707 17.1927L48.4513 15.5704C48.4346 15.537 48.4179 15.4868 48.4012 15.4534L45.1895 16.9753L45.8753 18.7982Z" fill="black"/>
<path opacity="0.2" d="M35.4537 38.282C37.8124 38.6667 41.0242 39.7872 42.7472 43.0318C43.1152 43.7342 44.1691 43.5168 44.2025 42.7307C44.3363 38.9343 43.2323 33.733 35.3367 36.827C34.6006 37.1113 34.6843 38.165 35.4537 38.282Z" fill="white"/>
<g opacity="0.2">
<path opacity="0.2" d="M66.3671 50.1396C65.5809 50.1396 64.9118 49.5376 64.8616 48.7348C64.6107 45.4234 63.5401 43.1489 61.6833 41.9782C60.9807 41.5266 60.7633 40.59 61.2149 39.8876C61.6666 39.1852 62.6033 38.9678 63.3059 39.4193C66.0158 41.1252 67.5548 44.1858 67.8894 48.5007C67.9563 49.3369 67.3374 50.0727 66.501 50.1229C66.4508 50.1396 66.4173 50.1396 66.3671 50.1396Z" fill="white"/>
</g>
<g opacity="0.2">
<path opacity="0.2" d="M56.6816 41.1921C55.979 41.1921 55.3433 40.7071 55.1927 39.9879C55.0255 39.1684 55.5273 38.3656 56.347 38.1984C56.4641 38.1817 57.4511 37.9643 58.8228 38.0479C59.6592 38.0981 60.2948 38.8172 60.2446 39.6534C60.1944 40.4896 59.4751 41.1419 58.6387 41.075C57.6852 41.0248 56.9827 41.1586 56.9827 41.1586C56.8823 41.1753 56.7819 41.1921 56.6816 41.1921Z" fill="white"/>
</g>
<path d="M48.8195 107.003C46.4106 107.003 44.0018 106.384 41.8606 105.146L7.56812 85.3445C3.28574 82.8693 0.609253 78.2533 0.609253 73.3029V33.6996C0.609253 28.7492 3.26902 24.1333 7.56812 21.6581L41.8606 1.85641C46.1597 -0.618802 51.4792 -0.618802 55.7783 1.85641L90.0708 21.6581C94.3532 24.1333 97.0297 28.7492 97.0297 33.6996V73.3029C97.0297 78.2533 94.3699 82.8693 90.0708 85.3445L55.7783 105.146C53.6204 106.384 51.2283 107.003 48.8195 107.003ZM48.8195 5.85353C47.431 5.85353 46.0259 6.20474 44.788 6.92389L10.4955 26.7255C8.00305 28.1638 6.46406 30.8397 6.46406 33.6996V73.3029C6.46406 76.1628 8.00305 78.8387 10.4955 80.277L44.788 100.079C47.2805 101.517 50.3584 101.517 52.8509 100.079L87.1434 80.277C89.6359 78.8387 91.1749 76.1628 91.1749 73.3029V33.6996C91.1749 30.8397 89.6359 28.1638 87.1434 26.7255L52.8509 6.92389C51.5963 6.20474 50.2079 5.85353 48.8195 5.85353Z" fill="#F6F9FF"/>
<g opacity="0.5">
<path opacity="0.5" d="M48.8195 107.003C46.4106 107.003 44.0018 106.384 41.8606 105.146L7.56812 85.3445C3.28574 82.8693 0.609253 78.2533 0.609253 73.3029V33.6996C0.609253 28.7492 3.26902 24.1333 7.56812 21.6581L41.8606 1.85641C46.1597 -0.618802 51.4792 -0.618802 55.7783 1.85641L90.0708 21.6581C94.3532 24.1333 97.0297 28.7492 97.0297 33.6996V73.3029C97.0297 78.2533 94.3699 82.8693 90.0708 85.3445L55.7783 105.146C53.6204 106.384 51.2283 107.003 48.8195 107.003ZM48.8195 5.85353C47.431 5.85353 46.0259 6.20474 44.788 6.92389L10.4955 26.7255C8.00305 28.1638 6.46406 30.8397 6.46406 33.6996V73.3029C6.46406 76.1628 8.00305 78.8387 10.4955 80.277L44.788 100.079C47.2805 101.517 50.3584 101.517 52.8509 100.079L87.1434 80.277C89.6359 78.8387 91.1749 76.1628 91.1749 73.3029V33.6996C91.1749 30.8397 89.6359 28.1638 87.1434 26.7255L52.8509 6.92389C51.5963 6.20474 50.2079 5.85353 48.8195 5.85353Z" fill="white"/>
</g>
<path opacity="0.1" d="M90.0708 21.658L81.8072 16.8916L77.7925 21.3403L87.1267 26.7255C89.6192 28.1638 91.1581 30.8397 91.1581 33.6996V73.3029C91.1581 76.1628 89.6192 78.8387 87.1267 80.277L52.8342 100.079C50.3585 101.517 47.2638 101.517 44.7713 100.079L19.8131 85.6789L15.7983 90.1276L41.8439 105.163C43.9851 106.4 46.3939 107.019 48.8028 107.019C51.2116 107.019 53.6204 106.4 55.7616 105.163L90.0541 85.3612C94.3365 82.886 97.013 78.27 97.013 73.3196V33.6996C97.0297 28.7492 94.3699 24.1333 90.0708 21.658Z" fill="black"/>
</svg>
