<svg width="97" height="108" viewBox="0 0 97 108" fill="none" xmlns="http://www.w3.org/2000/svg">
<path d="M27.9768 73.8794C27.9768 73.8794 35.22 80.8201 48.4352 77.5254L62.5201 73.8794L71.202 67.8085L74.3301 59.8644L76.2371 47.8563V37.621V31.5835L69.1277 33.1054L56.6319 36.4001L48.4519 38.4739H37.5452L26.4378 34.3096L20.8841 35.6977V49.2946L21.754 65.9019L27.9768 73.8794Z" fill="#A0A0FA"/>
<path opacity="0.6" d="M27.9768 73.8794C27.9768 73.8794 35.22 80.8201 48.4352 77.5254L62.5201 73.8794L71.202 67.8085L74.3301 59.8644L76.2371 47.8563V37.621V31.5835L69.1277 33.1054L56.6319 36.4001L48.4519 38.4739H37.5452L26.4378 34.3096L20.8841 35.6977V49.2946L21.754 65.9019L27.9768 73.8794Z" fill="white"/>
<g opacity="0.3">
<path opacity="0.3" d="M69.5626 55.1813C63.2561 53.1576 58.8399 56.3352 57.5686 57.439C55.7118 55.9004 52.6673 56.0509 51.6134 56.1513C50.9945 55.0308 50.1915 54.1276 49.3217 53.375C50.1581 52.6392 51.2956 50.7827 50.1413 46.4344C50.0744 46.1668 49.79 45.9829 49.5057 46.0665C49.2213 46.1334 49.0707 46.4177 49.1376 46.702C50.2752 50.9667 49.0206 52.3381 48.4853 52.706C45.6582 50.6489 42.4966 50.1138 42.2959 50.0803L41.9446 50.0302L41.7606 50.3479C40.3889 52.7228 38.8666 53.9604 37.2273 54.0106C37.1938 54.0106 37.1604 54.0106 37.1102 54.0106C34.4839 54.0106 32.2256 51.0503 31.7907 50.4315C31.7572 49.612 31.5398 45.9327 30.5361 44.3773C30.3855 44.1264 30.051 44.0595 29.8168 44.2268C29.5826 44.3773 29.4989 44.7118 29.6662 44.9459C30.4524 46.1668 30.7201 49.4448 30.7535 50.6155V50.766L30.8372 50.8831C30.9543 51.0503 33.6809 55.2147 37.2607 55.0475C39.2012 54.9806 40.9576 53.6928 42.4632 51.1841C43.8014 51.4852 48.7362 52.8231 50.8439 56.954L51.0112 57.2885L51.3792 57.2384C51.4127 57.2384 55.4274 56.653 57.1671 58.5094L57.5518 58.9108L57.9366 58.5094C57.9868 58.4592 62.3528 53.9604 69.2447 56.168C69.5124 56.2516 69.8135 56.1011 69.8971 55.8335C69.9975 55.5492 69.8469 55.2649 69.5626 55.1813Z" fill="black"/>
<path opacity="0.3" d="M44.7382 65.6507C45.5578 65.2326 46.411 64.5135 46.7455 63.2257C46.8124 62.9414 46.6452 62.6571 46.3775 62.5902C46.1099 62.5233 45.8088 62.6905 45.7419 62.9581C45.2066 65.0152 42.8144 65.1658 42.7141 65.1658C42.7141 65.1658 42.7141 65.1658 42.6973 65.1658H42.6806C40.4223 65.4166 37.2105 65.149 37.1938 65.149C36.9094 65.1156 36.6585 65.333 36.6251 65.6173C36.6083 65.9016 36.8091 66.1525 37.0934 66.1859C37.2273 66.2027 40.3889 66.4535 42.7475 66.2027H42.7643H42.7977C44.4538 66.0689 46.4779 68.3266 47.1136 69.2297C47.2139 69.3803 47.3812 69.4472 47.5318 69.4472C47.6321 69.4472 47.7325 69.4137 47.8329 69.3468C48.0671 69.1796 48.1172 68.8618 47.9667 68.6277C47.8998 68.5273 46.4946 66.5706 44.7382 65.6507Z" fill="black"/>
<path opacity="0.3" d="M59.9105 51.8196C59.877 52.1039 60.0778 52.3715 60.3621 52.405C60.3789 52.405 60.4123 52.405 60.4291 52.405C60.68 52.405 60.9142 52.221 60.9476 51.9534C61.2655 49.5786 60.9978 47.5716 60.4291 45.8992C61.1484 45.3306 63.5572 43.6916 66.585 44.21C66.8694 44.2435 67.137 44.0595 67.1872 43.7752C67.2374 43.4909 67.0366 43.2233 66.7523 43.1731C63.6241 42.6547 61.1149 44.1097 60.0443 44.879C58.2711 40.8484 54.8586 39.0757 54.8084 39.0589C54.5575 38.9419 54.2397 39.0422 54.1059 39.2931C53.972 39.5439 54.0891 39.8617 54.34 39.9955C54.407 40.0289 61.0145 43.4407 59.9105 51.8196Z" fill="black"/>
<path opacity="0.3" d="M76.6553 47.5884C76.5048 47.3375 76.1869 47.2706 75.936 47.4212C71.7038 50.0134 66.8861 48.4246 66.836 48.4246C66.5683 48.3243 66.2672 48.4748 66.1836 48.7424C66.0832 49.01 66.2337 49.311 66.5014 49.3946C66.6185 49.4281 68.1909 49.9632 70.3656 49.9632C72.1722 49.9632 74.3636 49.5953 76.488 48.3075C76.739 48.157 76.8059 47.8392 76.6553 47.5884Z" fill="black"/>
<path opacity="0.3" d="M35.8389 48.5752C35.8055 48.8595 35.9895 49.127 36.2739 49.1605C36.2906 49.1605 36.3241 49.1605 36.3408 49.1605C36.5917 49.1605 36.8259 48.9765 36.8594 48.7089C37.6623 42.939 32.761 37.8214 32.5603 37.604C32.3595 37.4033 32.025 37.3866 31.8242 37.5872C31.6235 37.7879 31.6068 38.1224 31.8075 38.3231C31.8577 38.39 36.575 43.307 35.8389 48.5752Z" fill="black"/>
<path opacity="0.3" d="M57.7693 63.5436C57.5184 63.1255 57.1504 62.7743 56.682 62.5234C55.0259 61.6203 52.3829 62.0551 51.0279 62.3562C51.1952 60.9848 50.8272 59.0949 48.6024 58.2922C44.4873 56.8204 40.4224 59.2287 39.402 59.8977C32.4933 57.4559 26.7054 63.761 26.4712 64.0286C26.2872 64.246 26.3039 64.5638 26.5046 64.7645C26.7221 64.9652 27.0399 64.9317 27.2407 64.731C27.2909 64.6641 32.9282 58.5263 39.2849 60.968L39.5525 61.0684L39.7867 60.9012C39.8369 60.8677 44.136 57.8071 48.2678 59.2789C50.7101 60.1486 49.9573 62.6405 49.857 62.9081L49.5391 63.8781L50.5094 63.577C51.5632 63.2425 54.6412 62.5903 56.1969 63.4433C56.6486 63.6941 56.9329 64.0453 57.0668 64.5303L57.2842 65.3331L57.9032 64.7812C58.9236 63.8948 61.9848 61.7875 63.9754 62.6906C64.2431 62.8077 64.5442 62.6907 64.6613 62.4398C64.7784 62.1722 64.6613 61.8712 64.4104 61.7541C62.035 60.6336 59.0072 62.6238 57.7693 63.5436Z" fill="black"/>
<path opacity="0.3" d="M39.0841 71.4707C39.4689 71.2198 39.8536 70.9522 40.2216 70.6177C40.4391 70.417 40.4558 70.0993 40.2551 69.8818C40.0543 69.6644 39.7365 69.6477 39.519 69.8484C35.2032 73.7117 28.5622 70.9689 28.4953 70.9355C28.2276 70.8184 27.9265 70.9522 27.8094 71.2198C27.6923 71.4874 27.8261 71.7884 28.0771 71.9055C28.2443 71.9724 30.6699 72.9926 33.614 72.9926C34.7683 72.9926 36.0062 72.8254 37.2273 72.3905C37.5284 72.3738 40.4893 72.2233 41.9112 74.1968C42.0115 74.3306 42.1788 74.4142 42.3294 74.4142C42.4297 74.4142 42.5468 74.3807 42.6305 74.3138C42.8646 74.1466 42.9148 73.8121 42.7476 73.578C41.7773 72.2233 40.2885 71.6881 39.0841 71.4707Z" fill="black"/>
</g>
<path d="M81.5733 38.5072C81.5733 37.3365 80.9711 36.2662 80.0009 35.5136C81.5399 34.6439 82.5603 33.2223 82.5603 31.6001C82.5603 28.9409 79.8336 26.7834 76.4546 26.7834C73.293 26.7834 70.7168 28.7068 70.4157 31.1485C69.044 30.0614 66.953 29.5932 64.7784 30.0447C62.5536 30.513 60.8138 31.8175 60.0109 33.3896C59.1243 32.3192 57.8028 31.6168 56.314 31.6168C53.8215 31.6168 51.7974 33.5066 51.5465 35.9317C50.6599 34.9617 49.4053 34.3429 48.0002 34.3429C46.4277 34.3429 45.056 35.0955 44.1862 36.2494C43.5338 34.3763 41.7606 33.0217 39.6529 33.0217C38.047 33.0217 36.6418 33.8077 35.772 35.0119C35.22 32.9548 33.3632 31.4328 31.1383 31.4328C29.9506 31.4328 28.8633 31.8844 28.0269 32.6035C27.0065 30.7304 24.7148 29.4092 22.0215 29.4092C18.3916 29.4092 15.4642 31.8008 15.4642 34.7443C15.4642 35.7644 15.8322 36.7177 16.4511 37.5372C15.1798 38.5072 14.3434 40.0292 14.3434 41.7685C14.3434 43.558 15.23 45.1301 16.5849 46.1001C15.8991 47.0032 15.4642 48.107 15.4642 49.3279C15.4642 51.2847 16.5348 52.9905 18.1072 53.9104C17.3042 54.8469 16.8024 56.0344 16.8024 57.3723C16.8024 59.5632 18.1239 61.4363 20.0142 62.2726C18.7261 63.2426 17.8897 64.7812 17.8897 66.5038C17.8897 68.6445 19.1611 70.4842 21.0011 71.3372C20.1815 72.3239 19.6796 73.5782 19.6796 74.9496C19.6796 78.1105 22.239 80.6694 25.4006 80.6694C28.5622 80.6694 31.1216 78.1105 31.1216 74.9496C31.1216 72.5413 29.6328 70.4842 27.5251 69.648C28.1775 68.7616 28.5789 67.6745 28.5789 66.5038C28.5789 64.3129 27.2574 62.4398 25.3672 61.6036C26.6552 60.6336 27.4916 59.0949 27.4916 57.3723C27.4916 55.4156 26.421 53.7097 24.8486 52.7898C25.6515 51.8533 26.1534 50.6659 26.1534 49.3279C26.1534 47.5384 25.2668 45.9663 23.9118 44.9963C24.5977 44.0932 25.0326 42.9894 25.0326 41.7685C25.0326 41.0159 24.882 40.3135 24.5977 39.6612C25.4508 39.3602 26.2036 38.9086 26.8225 38.3734C27.6087 39.9623 29.2313 41.0661 31.1383 41.0661C32.7442 41.0661 34.1494 40.28 35.0192 39.0759C35.5713 41.133 37.4281 42.6549 39.6529 42.6549C41.2253 42.6549 42.597 41.9023 43.4669 40.7483C44.1193 42.6214 45.8924 43.9761 48.0002 43.9761C50.4927 43.9761 52.5167 42.0863 52.7677 39.6612C53.6543 40.6312 54.9089 41.25 56.314 41.25C58.3883 41.25 60.1447 39.9288 60.8139 38.1059C62.1688 39.3769 64.3936 39.9623 66.7356 39.4773C69.5626 38.8919 71.6034 36.9519 71.9213 34.8111C72.2056 35.062 72.5402 35.3129 72.8915 35.5136C71.9045 36.2662 71.2856 37.3365 71.2856 38.524C71.2856 39.9957 72.2224 41.2668 73.6442 42.0193C72.8078 42.7887 72.2558 43.8925 72.2558 45.1301C72.2558 46.5349 72.9584 47.7893 74.0123 48.5419C72.9584 49.1607 72.2725 50.1641 72.2725 51.2847C72.2725 52.2212 72.7409 53.0742 73.4937 53.693C72.1722 54.4121 71.2689 55.7835 71.2689 57.389C71.2689 58.3758 71.6201 59.2789 72.1889 59.998C69.8135 60.483 68.0404 62.5736 68.0404 65.0823C68.0404 65.3833 68.0738 65.6843 68.124 65.9687C68.0905 65.9687 68.0738 65.9519 68.0404 65.9519C65.1799 65.9519 62.8547 68.2766 62.8547 71.1365C62.8547 71.287 62.8881 71.4208 62.9049 71.5713C61.8008 70.8689 60.312 70.5846 58.7563 70.9023C57.1002 71.2535 55.762 72.2068 55.0594 73.411C54.3066 72.2905 53.0186 71.4041 51.4127 71.103C48.6191 70.5678 46.0095 71.9727 45.5913 74.2305C45.4241 75.1503 45.6415 76.0534 46.1434 76.8562C45.0895 77.8095 44.4037 79.1642 44.4037 80.7028C44.4037 82.6763 45.5077 84.3654 47.1303 85.2351C46.2103 86.1048 45.4073 87.4427 45.491 89.5165C45.6583 94.1994 49.1879 95.0691 49.5893 97.6613H51.4629C51.4629 97.6613 51.5632 95.922 53.6375 93.6642C55.2769 91.8914 55.6449 86.9076 52.7342 84.7836C53.9721 83.8303 54.775 82.3585 54.775 80.6861C54.775 79.8499 54.5576 79.0639 54.2063 78.3782C54.6078 78.0938 54.9256 77.7426 55.1765 77.3412C56.2136 78.7461 58.2712 79.4987 60.4458 79.0471C62.771 78.5621 64.4438 76.8897 64.6613 75.0333C65.5646 75.8193 66.7356 76.321 68.0404 76.321C70.9009 76.321 73.226 73.9963 73.226 71.1365C73.226 70.8354 73.1926 70.5344 73.1424 70.2501C73.1759 70.2501 73.2093 70.2668 73.226 70.2668C76.0865 70.2668 78.4117 67.9421 78.4117 65.0823C78.4117 63.6272 77.8095 62.3227 76.856 61.3862C78.5288 60.8175 79.7332 59.2622 79.7332 57.4058C79.7332 56.1849 79.2147 55.0978 78.3783 54.3285C79.75 53.7599 80.6867 52.6393 80.6867 51.3014C80.6867 50.1641 80.0009 49.1774 78.947 48.5586C80.0176 47.7893 80.7035 46.5517 80.7035 45.1468C80.7035 43.8925 80.1515 42.772 79.2816 42.0026C80.67 41.1999 81.5733 39.9455 81.5733 38.5072Z" fill="#A0A0FA"/>
<path d="M48.5355 107.261C46.1267 107.261 43.7178 106.642 41.5766 105.405L7.28418 85.603C3.0018 83.1278 0.325317 78.5119 0.325317 73.5615V33.9582C0.325317 29.0078 2.98507 24.3918 7.28418 21.9166L41.5766 2.11495C45.8758 -0.360257 51.1953 -0.360257 55.4944 2.11495L89.7869 21.9166C94.0692 24.3918 96.7457 29.0078 96.7457 33.9582V73.5615C96.7457 78.5119 94.086 83.1278 89.7869 85.603L55.4944 105.405C53.3532 106.642 50.9443 107.261 48.5355 107.261ZM48.5355 6.12882C47.1471 6.12882 45.7419 6.48003 44.5041 7.19917L10.2116 27.0008C7.71911 28.4391 6.18013 31.115 6.18013 33.9749V73.5782C6.18013 76.4381 7.71911 79.114 10.2116 80.5523L44.5041 100.354C46.9965 101.792 50.0745 101.792 52.567 100.354L86.8594 80.5523C89.3519 79.114 90.8909 76.4381 90.8909 73.5782V33.9749C90.8909 31.115 89.3519 28.4391 86.8594 27.0008L52.567 7.19917C51.3291 6.48003 49.9407 6.12882 48.5355 6.12882Z" fill="#F3F7FF"/>
<path opacity="0.1" d="M89.8035 21.9334L81.5399 17.167L77.5252 21.6157L86.8594 27.0009C89.3519 28.4392 90.8909 31.1151 90.8909 33.975V73.5783C90.8909 76.4382 89.3519 79.1141 86.8594 80.5523L52.5669 100.354C50.0912 101.792 46.9965 101.792 44.504 100.354L19.5458 85.9543L15.5311 90.403L41.5766 105.438C43.7178 106.676 46.1266 107.295 48.5355 107.295C50.9443 107.295 53.3532 106.676 55.4943 105.438L89.7868 85.6366C94.0692 83.1614 96.7457 78.5454 96.7457 73.595V33.9917C96.7457 29.0246 94.0859 24.4087 89.8035 21.9334Z" fill="black"/>
</svg>
