<svg width="97" height="108" viewBox="0 0 97 108" fill="none" xmlns="http://www.w3.org/2000/svg">
<path d="M48.7898 107.806C46.381 107.806 43.9721 107.187 41.8309 105.95L7.53846 86.1482C3.23935 83.673 0.57959 79.0571 0.57959 74.1067V34.5033C0.57959 29.5529 3.23935 24.937 7.53846 22.4618L41.8309 2.66012C46.13 0.184909 51.4496 0.184909 55.7487 2.66012L90.0411 22.4618C94.3235 24.937 97 29.5529 97 34.5033V74.1067C97 79.0571 94.3402 83.673 90.0411 86.1482L55.7487 105.95C53.6075 107.187 51.1986 107.806 48.7898 107.806ZM48.7898 6.65724C47.4014 6.65724 45.9962 7.00845 44.7583 7.7276L10.4659 27.5293C7.97339 28.9676 6.4344 31.6434 6.4344 34.5033V74.1067C6.4344 76.9665 7.97339 79.6424 10.4659 81.0807L44.7583 100.882C47.2508 102.321 50.3288 102.321 52.8213 100.882L87.1137 81.0807C89.6062 79.6424 91.1452 76.9665 91.1452 74.1067V34.5033C91.1452 31.6434 89.6062 28.9676 87.1137 27.5293L52.8213 7.7276C51.5834 7.00845 50.1782 6.65724 48.7898 6.65724Z" fill="#E9F0FF"/>
<g opacity="0.5">
<path opacity="0.5" d="M48.7898 107.806C46.381 107.806 43.9721 107.187 41.8309 105.95L7.53846 86.1482C3.23935 83.673 0.57959 79.0571 0.57959 74.1067V34.5033C0.57959 29.5529 3.23935 24.937 7.53846 22.4618L41.8309 2.66012C46.13 0.184909 51.4496 0.184909 55.7487 2.66012L90.0411 22.4618C94.3235 24.937 97 29.5529 97 34.5033V74.1067C97 79.0571 94.3402 83.673 90.0411 86.1482L55.7487 105.95C53.6075 107.187 51.1986 107.806 48.7898 107.806ZM48.7898 6.65724C47.4014 6.65724 45.9962 7.00845 44.7583 7.7276L10.4659 27.5293C7.97339 28.9676 6.4344 31.6434 6.4344 34.5033V74.1067C6.4344 76.9665 7.97339 79.6424 10.4659 81.0807L44.7583 100.882C47.2508 102.321 50.3288 102.321 52.8213 100.882L87.1137 81.0807C89.6062 79.6424 91.1452 76.9665 91.1452 74.1067V34.5033C91.1452 31.6434 89.6062 28.9676 87.1137 27.5293L52.8213 7.7276C51.5834 7.00845 50.1782 6.65724 48.7898 6.65724Z" fill="white"/>
</g>
<path opacity="0.1" d="M90.0411 22.4618L81.7775 17.6953L77.7627 22.144L87.097 27.5293C89.5894 28.9675 91.1284 31.6434 91.1284 34.5033V74.1066C91.1284 76.9665 89.5894 79.6424 87.097 81.0807L52.8045 100.882C50.3288 102.321 47.2341 102.321 44.7416 100.882L19.7834 86.4827L15.7687 90.9314L41.8142 105.967C43.9554 107.204 46.3642 107.823 48.773 107.823C51.1819 107.823 53.5907 107.204 55.7319 105.967L90.0244 86.1649C94.3067 83.6897 96.9832 79.0738 96.9832 74.1234V34.5201C97 29.5529 94.3402 24.937 90.0411 22.4618Z" fill="black"/>
<path d="M64.1463 54.7231L57.7395 54.3384L62.1557 52.4988L61.5702 51.5288C61.5702 51.5288 59.1111 53.5859 51.0649 54.3719V55.8436C55.4142 55.4255 61.7207 55.0241 64.5645 55.7935L64.1463 54.7231Z" fill="#407BFF"/>
<path opacity="0.5" d="M64.1463 54.7231L57.7395 54.3384L62.1557 52.4988L61.5702 51.5288C61.5702 51.5288 59.1111 53.5859 51.0649 54.3719V55.8436C55.4142 55.4255 61.7207 55.0241 64.5645 55.7935L64.1463 54.7231Z" fill="white"/>
<path d="M51.0649 58.3188C55.364 58.7537 62.6408 59.6735 65.5347 61.1453L65.3507 60.0247L59.1614 58.3523L63.8619 57.4324L63.4939 56.3621C63.4939 56.3621 60.3156 58.068 51.0817 56.8303V58.3188H51.0649Z" fill="#8080C8"/>
<path opacity="0.2" d="M51.0649 58.3188C55.364 58.7537 62.6408 59.6735 65.5347 61.1453L65.3507 60.0247L59.1614 58.3523L63.8619 57.4324L63.4939 56.3621C63.4939 56.3621 60.3156 58.068 51.0817 56.8303V58.3188H51.0649Z" fill="black"/>
<path d="M62.0719 57.9508C48.9905 57.9508 48.8567 78.9566 62.8916 78.9566C77.8966 78.9566 76.6253 62.8845 76.6253 55.9272C76.6253 48.9698 77.8966 32.9312 62.8916 32.9312C48.8567 32.9312 49.0073 53.937 62.0719 53.937C62.0719 53.937 61.6035 54.723 61.6035 55.9272C61.6035 56.9641 62.0719 57.9508 62.0719 57.9508Z" fill="#A0A0FA"/>
<g opacity="0.3">
<path opacity="0.3" d="M73.0789 46.8459C72.5938 46.8459 72.1757 46.4779 72.1255 45.9762C71.6571 41.5443 69.7166 38.7513 66.3376 37.6475C65.8358 37.4803 65.5514 36.9284 65.7187 36.4266C65.886 35.9249 66.438 35.6406 66.9399 35.8078C69.8003 36.7444 73.38 39.2196 74.0659 45.7755C74.116 46.3107 73.7313 46.779 73.196 46.8459C73.1458 46.8459 73.1124 46.8459 73.0789 46.8459Z" fill="white"/>
</g>
<g opacity="0.3">
<path opacity="0.3" d="M62.3229 37.2292C61.8378 37.2292 61.4363 36.878 61.3694 36.393C61.3025 35.8578 61.6706 35.3728 62.1891 35.3059C62.2226 35.3059 63.0423 35.1888 64.2132 35.2892C64.7485 35.3226 65.15 35.7909 65.0998 36.3261C65.0663 36.8612 64.6147 37.2459 64.0627 37.2125C63.1092 37.1456 62.4568 37.2292 62.4568 37.2292C62.4066 37.2292 62.3564 37.2292 62.3229 37.2292Z" fill="white"/>
</g>
<path d="M62.8749 78.9565C77.8799 78.9565 76.6086 62.8844 76.6086 55.9271C76.6086 54.0539 76.6922 51.5118 76.5417 48.8025C76.5417 51.7962 75.17 53.1341 73.631 53.686C72.4266 54.1208 71.9582 55.509 72.5437 56.6462C73.9823 59.4559 74.0659 63.1687 72.7109 62.0315C72.276 61.6635 71.8077 61.4294 71.3225 61.2621C69.9843 60.8273 68.7799 62.2154 69.3821 63.4865C71.8578 68.6042 68.0606 76.1803 61.7541 76.1803C54.5611 76.1803 52.5203 70.4271 52.4534 70.2264C53.2229 74.8256 56.6521 78.9565 62.8749 78.9565Z" fill="#8080C8"/>
<path d="M65.9695 50.6591C65.1666 47.7826 57.0201 54.1378 52.4701 45.6084C53.2061 50.0403 56.4346 53.9204 62.0552 53.9204C62.0719 53.9204 66.6721 53.1343 65.9695 50.6591Z" fill="#8080C8"/>
<path d="M33.4336 51.4451L39.8404 51.0604L35.4242 49.2207L36.0097 48.2507C36.0097 48.2507 38.4687 50.3078 46.5149 51.0939V52.5656C42.1656 52.1475 35.8591 51.7461 33.0154 52.5154L33.4336 51.4451Z" fill="#407BFF"/>
<path opacity="0.5" d="M33.4336 51.4451L39.8404 51.0604L35.4242 49.2207L36.0097 48.2507C36.0097 48.2507 38.4687 50.3078 46.5149 51.0939V52.5656C42.1656 52.1475 35.8591 51.7461 33.0154 52.5154L33.4336 51.4451Z" fill="white"/>
<path d="M46.5149 55.0576C42.2158 55.4925 34.9391 56.4123 32.0452 57.8841L32.2292 56.7635L38.4185 55.091L33.718 54.1712L34.086 53.1008C34.086 53.1008 37.2643 54.8067 46.4982 53.5691V55.0576H46.5149Z" fill="#8080C8"/>
<path opacity="0.2" d="M46.5149 55.0576C42.2158 55.4925 34.9391 56.4123 32.0452 57.8841L32.2292 56.7635L38.4185 55.091L33.718 54.1712L34.086 53.1008C34.086 53.1008 37.2643 54.8067 46.4982 53.5691V55.0576H46.5149Z" fill="black"/>
<path d="M35.5078 54.6896C48.5892 54.6896 48.723 75.6954 34.6882 75.6954C19.6831 75.6954 20.9544 59.6233 20.9544 52.6659C20.9544 45.7086 19.6831 29.6699 34.6882 29.6699C48.723 29.6699 48.5724 50.6757 35.5078 50.6757C35.5078 50.6757 35.9762 51.4618 35.9762 52.6659C35.9762 53.7028 35.5078 54.6896 35.5078 54.6896Z" fill="#A0A0FA"/>
<g opacity="0.3">
<path opacity="0.3" d="M24.5009 43.5845C24.986 43.5845 25.4042 43.2165 25.4544 42.7148C25.9228 38.2828 27.8633 35.4899 31.2423 34.386C31.7442 34.2188 32.0285 33.6669 31.8613 33.1651C31.694 32.6634 31.1419 32.3791 30.6401 32.5464C27.7796 33.4829 24.1998 35.9581 23.5139 42.5141C23.4637 43.0493 23.8485 43.5176 24.3838 43.5845C24.434 43.5845 24.4675 43.5845 24.5009 43.5845Z" fill="white"/>
</g>
<g opacity="0.3">
<path opacity="0.3" d="M35.2569 33.9682C35.742 33.9682 36.1435 33.617 36.2104 33.132C36.2773 32.5968 35.9092 32.1118 35.3907 32.0449C35.3572 32.0449 34.5376 31.9278 33.3666 32.0282C32.8313 32.0616 32.4299 32.5299 32.4801 33.0651C32.5135 33.6003 32.9652 33.9849 33.5172 33.9515C34.4707 33.8846 35.123 33.9682 35.123 33.9682C35.1732 33.9682 35.2234 33.9682 35.2569 33.9682Z" fill="white"/>
</g>
<path d="M34.7049 75.6955C19.6998 75.6955 20.9712 59.6234 20.9712 52.6661C20.9712 50.7929 20.8875 48.2508 21.0381 45.5415C21.0381 48.5352 22.4098 49.8731 23.9487 50.425C25.1532 50.8598 25.6215 52.248 25.0361 53.3852C23.5974 56.1949 23.5138 59.9077 24.8688 58.7705C25.3037 58.4025 25.7721 58.1684 26.2572 58.0011C27.5955 57.5663 28.7999 58.9544 28.1977 60.2255C25.7219 65.3431 29.5192 72.9192 35.8257 72.9192C43.0187 72.9192 45.0596 67.1661 45.1265 66.9654C44.357 71.5479 40.9277 75.6955 34.7049 75.6955Z" fill="#8080C8"/>
<path d="M31.6103 47.3979C32.4133 44.5213 40.5598 50.8766 45.1098 42.3472C44.3738 46.7791 41.1453 50.6591 35.5247 50.6591C35.508 50.6591 30.9078 49.8731 31.6103 47.3979Z" fill="#8080C8"/>
</svg>
