<svg width="97" height="108" viewBox="0 0 97 108" fill="none" xmlns="http://www.w3.org/2000/svg">
<path d="M20.1908 74.1056C20.1908 74.1056 21.8803 76.5139 23.5866 73.2526C25.2761 70.0081 27.9693 66.4793 31.2145 65.9106C34.4598 65.342 30.2276 58 30.2276 58L18.9194 67.6165L20.1908 74.1056Z" fill="#9090E1"/>
<path d="M28.2537 63.1356C28.2537 63.1356 25.2929 68.7884 29.9432 68.5041C34.6104 68.2198 37.0025 62.4331 37.0025 62.4331L28.2537 63.1356Z" fill="#9090E1"/>
<path d="M40.967 59.7572C40.967 59.7572 37.2868 66.1124 30.2276 64.8414C23.1684 63.5703 22.3152 75.0098 20.1908 75.0098C18.0663 75.0098 12.1446 56.7969 17.9325 43.9359C23.7204 31.0916 39.8295 31.5097 49.8496 34.4699L56.0724 35.4566C56.0724 35.4566 80.6459 33.9013 80.9303 38.5674C81.2146 43.2335 77.685 40.8252 72.7335 46.8961C67.782 52.9671 52.2584 58.3356 52.2584 58.3356C52.2584 58.3356 47.608 66.3967 40.967 59.7572Z" fill="#A0A0FA"/>
<path d="M39.8295 63.7042V57.767C39.8295 57.767 37.404 36.3933 51.4722 34.7208C51.4722 34.7208 53.4461 34.102 53.145 34.9884C53.145 34.9884 46.7884 35.4902 43.3759 42.5144C39.9633 49.5386 42.2384 61.9983 42.2384 61.9983C42.2384 61.9983 40.3314 65.6275 39.8295 63.7042Z" fill="#9090E1"/>
<path d="M48.2102 107.806C45.8014 107.806 43.3925 107.187 41.2513 105.95L6.95886 86.1482C2.67649 83.673 0 79.0571 0 74.1067V34.5033C0 29.5529 2.65976 24.937 6.95886 22.4618L41.2513 2.66012C45.5504 0.184909 50.87 0.184909 55.1691 2.66012L89.4615 22.4618C93.7439 24.937 96.4204 29.5529 96.4204 34.5033V74.1067C96.4204 79.0571 93.7606 83.673 89.4615 86.1482L55.1691 105.95C53.0279 107.187 50.619 107.806 48.2102 107.806ZM48.2102 6.65724C46.8218 6.65724 45.4333 7.00845 44.1787 7.7276L9.88627 27.5293C7.39379 28.9676 5.85481 31.6434 5.85481 34.5033V74.1067C5.85481 76.9665 7.39379 79.6424 9.88627 81.0807L44.1787 100.882C46.6712 102.321 49.7492 102.321 52.2416 100.882L86.5341 81.0807C89.0266 79.6424 90.5656 76.9665 90.5656 74.1067V34.5033C90.5656 31.6434 89.0266 28.9676 86.5341 27.5293L52.2416 7.7276C51.0038 7.00845 49.5986 6.65724 48.2102 6.65724Z" fill="#F3F7FF"/>
<g opacity="0.5">
<path opacity="0.5" d="M48.2102 107.806C45.8014 107.806 43.3925 107.187 41.2513 105.95L6.95886 86.1482C2.67649 83.673 0 79.0571 0 74.1067V34.5033C0 29.5529 2.65976 24.937 6.95886 22.4618L41.2513 2.66012C45.5504 0.184909 50.87 0.184909 55.1691 2.66012L89.4615 22.4618C93.7439 24.937 96.4204 29.5529 96.4204 34.5033V74.1067C96.4204 79.0571 93.7606 83.673 89.4615 86.1482L55.1691 105.95C53.0279 107.187 50.619 107.806 48.2102 107.806ZM48.2102 6.65724C46.8218 6.65724 45.4333 7.00845 44.1787 7.7276L9.88627 27.5293C7.39379 28.9676 5.85481 31.6434 5.85481 34.5033V74.1067C5.85481 76.9665 7.39379 79.6424 9.88627 81.0807L44.1787 100.882C46.6712 102.321 49.7492 102.321 52.2416 100.882L86.5341 81.0807C89.0266 79.6424 90.5656 76.9665 90.5656 74.1067V34.5033C90.5656 31.6434 89.0266 28.9676 86.5341 27.5293L52.2416 7.7276C51.0038 7.00845 49.5986 6.65724 48.2102 6.65724Z" fill="white"/>
</g>
<path opacity="0.1" d="M89.4615 22.4618L81.1978 17.6953L77.1831 22.144L86.5174 27.5293C89.0098 28.9675 90.5488 31.6434 90.5488 34.5033V74.1066C90.5488 76.9665 89.0098 79.6424 86.5174 81.0807L52.2249 100.882C49.7491 102.321 46.6545 102.321 44.162 100.882L19.2038 86.4827L15.189 90.9314L41.2346 105.967C43.3758 107.204 45.7846 107.823 48.1934 107.823C50.6023 107.823 53.0111 107.204 55.1523 105.967L89.4448 86.1649C93.7271 83.6897 96.4036 79.0738 96.4036 74.1234V34.5201C96.4204 29.5529 93.7606 24.937 89.4615 22.4618Z" fill="black"/>
</svg>
