<svg width="97" height="108" viewBox="0 0 97 108" fill="none" xmlns="http://www.w3.org/2000/svg">
<path d="M48.2102 107.53C45.8014 107.53 43.3925 106.912 41.2513 105.674L6.95886 85.8724C2.67649 83.3972 0 78.7813 0 73.8309V34.2443C0 29.2939 2.65976 24.6779 6.95886 22.2027L41.2513 2.40108C45.5504 -0.074124 50.87 -0.074124 55.1691 2.40108L89.4615 22.2027C93.7439 24.6779 96.4204 29.2939 96.4204 34.2443V73.8476C96.4204 78.798 93.7606 83.4139 89.4615 85.8891L55.1691 105.691C53.0279 106.912 50.619 107.53 48.2102 107.53ZM48.2102 6.39821C46.8218 6.39821 45.4333 6.74942 44.1787 7.46857L9.88627 27.2702C7.39379 28.7085 5.85481 31.3844 5.85481 34.2443V73.8476C5.85481 76.7075 7.39379 79.3834 9.88627 80.8217L44.1787 100.623C46.6712 102.062 49.7492 102.062 52.2416 100.623L86.5341 80.8217C89.0266 79.3834 90.5656 76.7075 90.5656 73.8476V34.2443C90.5656 31.3844 89.0266 28.7085 86.5341 27.2702L52.2416 7.46857C51.0038 6.74942 49.5986 6.39821 48.2102 6.39821Z" fill="#F6F9FF"/>
<g opacity="0.5">
<path opacity="0.5" d="M48.2102 107.53C45.8014 107.53 43.3925 106.912 41.2513 105.674L6.95886 85.8724C2.67649 83.3972 0 78.7813 0 73.8309V34.2443C0 29.2939 2.65976 24.6779 6.95886 22.2027L41.2513 2.40108C45.5504 -0.074124 50.87 -0.074124 55.1691 2.40108L89.4615 22.2027C93.7439 24.6779 96.4204 29.2939 96.4204 34.2443V73.8476C96.4204 78.798 93.7606 83.4139 89.4615 85.8891L55.1691 105.691C53.0279 106.912 50.619 107.53 48.2102 107.53ZM48.2102 6.39821C46.8218 6.39821 45.4333 6.74942 44.1787 7.46857L9.88627 27.2702C7.39379 28.7085 5.85481 31.3844 5.85481 34.2443V73.8476C5.85481 76.7075 7.39379 79.3834 9.88627 80.8217L44.1787 100.623C46.6712 102.062 49.7492 102.062 52.2416 100.623L86.5341 80.8217C89.0266 79.3834 90.5656 76.7075 90.5656 73.8476V34.2443C90.5656 31.3844 89.0266 28.7085 86.5341 27.2702L52.2416 7.46857C51.0038 6.74942 49.5986 6.39821 48.2102 6.39821Z" fill="white"/>
</g>
<path opacity="0.1" d="M89.4615 22.2027L81.1978 17.4363L77.1831 21.885L86.5174 27.2702C89.0098 28.7085 90.5488 31.3844 90.5488 34.2443V73.8476C90.5488 76.7074 89.0098 79.3833 86.5174 80.8216L52.2249 100.623C49.7491 102.062 46.6545 102.062 44.162 100.623L19.2038 86.2236L15.189 90.6723L41.2346 105.707C43.3758 106.945 45.7846 107.564 48.1934 107.564C50.6023 107.564 53.0111 106.945 55.1523 105.707L89.4448 85.9058C93.7271 83.4306 96.4036 78.8147 96.4036 73.8643V34.2443C96.4204 29.2939 93.7606 24.6779 89.4615 22.2027Z" fill="black"/>
<path d="M50.803 17.2523C50.803 17.2523 50.6692 20.9818 50.7528 23.3734C50.8699 26.7016 51.907 29.8959 53.446 32.7893C54.6002 34.9801 56.1058 37.0205 57.9458 38.8268L61.7598 42.573L58.2971 45.9848L54.4831 42.2385C54.0649 41.8204 53.6635 41.4023 53.262 40.9675C51.2212 38.693 49.5484 36.1509 48.3105 33.3579H48.0428C46.805 36.1509 45.1322 38.693 43.0914 40.9675C42.7066 41.4023 42.2884 41.8204 41.8702 42.2385L38.0562 45.9848L34.5935 42.573L38.4075 38.8268C40.2309 37.0205 41.7531 34.9969 42.9073 32.7893C44.4296 29.8792 45.4667 26.7016 45.6006 23.3734C45.6842 20.9818 45.5504 17.2523 45.5504 17.2523C45.5504 17.2523 48.2436 14.7604 50.803 17.2523Z" fill="#A0A0FA"/>
<g opacity="0.3">
<path opacity="0.3" d="M50.803 17.2523C50.803 17.2523 50.6692 20.9818 50.7528 23.3734C50.8699 26.7016 51.907 29.8959 53.446 32.7893C54.6002 34.9801 56.1058 37.0205 57.9458 38.8268L61.7598 42.573L58.2971 45.9848L54.4831 42.2385C54.0649 41.8204 53.6635 41.4023 53.262 40.9675C51.2212 38.693 49.5484 36.1509 48.3105 33.3579H48.0428C46.805 36.1509 45.1322 38.693 43.0914 40.9675C42.7066 41.4023 42.2884 41.8204 41.8702 42.2385L38.0562 45.9848L34.5935 42.573L38.4075 38.8268C40.2309 37.0205 41.7531 34.9969 42.9073 32.7893C44.4296 29.8792 45.4667 26.7016 45.6006 23.3734C45.6842 20.9818 45.5504 17.2523 45.5504 17.2523C45.5504 17.2523 48.2436 14.7604 50.803 17.2523Z" fill="white"/>
</g>
<path d="M50.803 17.2523C48.2269 14.7604 45.5169 17.2523 45.5169 17.2523C45.5169 17.2523 48.6116 19.9617 50.803 17.2523Z" fill="#A0A0FA"/>
<path d="M53.7472 41.8537C53.8475 41.8537 53.8475 61.3376 53.8475 61.3376C53.6468 69.4322 58.0797 76.6738 66.243 79.1156L75.1088 81.758C77.7184 82.5441 81.0975 80.4368 81.1978 77.8613V64.5988C81.1978 36.0169 62.8974 20.296 62.8974 20.296C59.6354 16.9845 53.7806 18.841 53.6635 23.3565L53.8475 33.6922L53.7472 41.8537Z" fill="#A0A0FA"/>
<path d="M42.5728 33.3914L42.7568 23.3233C42.6565 18.8078 36.7849 16.9513 33.5229 20.2628C33.5229 20.2628 15.2225 35.9837 15.2225 64.5656V77.8281C15.3228 80.4036 18.7019 82.5109 21.3115 81.7248L30.1773 79.0824C38.3574 76.6406 42.7736 69.4157 42.5728 61.3044C42.5728 61.3044 42.5728 41.8205 42.6732 41.8205L42.5728 33.3914Z" fill="#A0A0FA"/>
<g opacity="0.2">
<path opacity="0.2" d="M28.3874 59.0632C36.8853 59.0632 42.5895 52.5908 42.5895 52.5908C42.5895 50.5337 42.6063 48.4265 42.6063 46.637C42.6063 46.637 38.5413 53.7448 31.2981 54.9991C24.0549 56.2535 25.5938 50.9017 23.6868 50.9017C21.7966 50.9017 19.8896 59.0632 28.3874 59.0632Z" fill="black"/>
<path opacity="0.2" d="M21.3115 81.7245L30.1773 79.0821C38.3573 76.6403 42.7736 69.4154 42.5728 61.3041C42.5728 61.3041 42.5728 60.2504 42.5728 58.6616C42.5728 58.6616 40.4316 70.7701 28.2536 75.7038C16.0923 80.6542 15.2057 68.1611 15.2057 68.1611V77.7943C15.3061 80.42 18.7019 82.5106 21.3115 81.7245Z" fill="black"/>
</g>
<g opacity="0.3">
<path opacity="0.3" d="M48.6451 31.8193C48.2269 31.8193 47.8923 31.4848 47.8923 31.05V25.2968C47.8923 24.8787 48.2269 24.5442 48.6451 24.5442C49.0633 24.5442 49.3979 24.8787 49.3979 25.2968V31.0667C49.3979 31.4848 49.0633 31.8193 48.6451 31.8193Z" fill="white"/>
</g>
<g opacity="0.3">
<path opacity="0.3" d="M48.6451 23.4237C48.2269 23.4237 47.8923 23.0892 47.8923 22.6711V21.3164C47.8923 20.8983 48.2269 20.5471 48.6451 20.5471C49.0633 20.5471 49.3979 20.8816 49.3979 21.3164V22.6711C49.3979 23.0892 49.0633 23.4237 48.6451 23.4237Z" fill="white"/>
</g>
<path opacity="0.1" d="M63.7839 69.7668C56.273 66.0373 54.3326 56.3372 53.8307 51.0188C53.8475 56.0696 53.8475 61.321 53.8475 61.321C53.6467 69.4156 58.0797 76.6573 66.2429 79.099L75.1088 81.7415C77.7184 82.5275 81.0974 80.4203 81.1978 77.8447V64.5823C81.1978 73.7305 74.3561 75.0016 63.7839 69.7668Z" fill="black"/>
<g opacity="0.2">
<path opacity="0.2" d="M73.3357 46.2526C72.6498 46.2526 72.0309 45.801 71.8636 45.1153C70.609 40.2151 67.7987 35.733 65.6575 32.8229C65.1557 32.154 65.3062 31.2007 65.9753 30.6989C66.6444 30.1972 67.5979 30.3477 68.0998 31.0167C70.3915 34.1441 73.4193 38.9775 74.791 44.3627C74.9917 45.1822 74.5066 46.0017 73.6869 46.2191C73.5866 46.2358 73.4528 46.2526 73.3357 46.2526Z" fill="white"/>
</g>
<g opacity="0.2">
<path opacity="0.2" d="M64.1352 29.9965C63.717 29.9965 63.2821 29.8125 62.981 29.478C62.0108 28.3742 61.3584 27.7387 61.3584 27.722C60.7562 27.1366 60.7562 26.1666 61.3416 25.5645C61.9271 24.9624 62.8974 24.9624 63.4996 25.5478C63.533 25.5812 64.2356 26.2669 65.2895 27.4711C65.8415 28.1066 65.7746 29.0599 65.1389 29.6118C64.8378 29.8794 64.4865 29.9965 64.1352 29.9965Z" fill="white"/>
</g>
</svg>
