<svg width="97" height="108" viewBox="0 0 97 108" fill="none" xmlns="http://www.w3.org/2000/svg">
<path d="M48.7898 107.53C46.381 107.53 43.9721 106.912 41.8309 105.674L7.53846 85.8724C3.23935 83.3972 0.57959 78.7813 0.57959 73.8309V34.2443C0.57959 29.2939 3.23935 24.6779 7.53846 22.2027L41.8309 2.40108C46.13 -0.074124 51.4496 -0.074124 55.7487 2.40108L90.0411 22.2027C94.3235 24.6779 97 29.2939 97 34.2443V73.8476C97 78.798 94.3402 83.4139 90.0411 85.8891L55.7487 105.691C53.6075 106.912 51.1986 107.53 48.7898 107.53ZM48.7898 6.39821C47.4014 6.39821 45.9962 6.74942 44.7583 7.46857L10.4659 27.2702C7.97339 28.7085 6.4344 31.3844 6.4344 34.2443V73.8476C6.4344 76.7075 7.97339 79.3834 10.4659 80.8217L44.7583 100.623C47.2508 102.062 50.3288 102.062 52.8213 100.623L87.1137 80.8217C89.6062 79.3834 91.1452 76.7075 91.1452 73.8476V34.2443C91.1452 31.3844 89.6062 28.7085 87.1137 27.2702L52.8213 7.46857C51.5834 6.74942 50.1782 6.39821 48.7898 6.39821Z" fill="#EFF4FF"/>
<g opacity="0.5">
<path opacity="0.5" d="M48.7898 107.53C46.381 107.53 43.9721 106.912 41.8309 105.674L7.53846 85.8724C3.23935 83.3972 0.57959 78.7813 0.57959 73.8309V34.2443C0.57959 29.2939 3.23935 24.6779 7.53846 22.2027L41.8309 2.40108C46.13 -0.074124 51.4496 -0.074124 55.7487 2.40108L90.0411 22.2027C94.3235 24.6779 97 29.2939 97 34.2443V73.8476C97 78.798 94.3402 83.4139 90.0411 85.8891L55.7487 105.691C53.6075 106.912 51.1986 107.53 48.7898 107.53ZM48.7898 6.39821C47.4014 6.39821 45.9962 6.74942 44.7583 7.46857L10.4659 27.2702C7.97339 28.7085 6.4344 31.3844 6.4344 34.2443V73.8476C6.4344 76.7075 7.97339 79.3834 10.4659 80.8217L44.7583 100.623C47.2508 102.062 50.3288 102.062 52.8213 100.623L87.1137 80.8217C89.6062 79.3834 91.1452 76.7075 91.1452 73.8476V34.2443C91.1452 31.3844 89.6062 28.7085 87.1137 27.2702L52.8213 7.46857C51.5834 6.74942 50.1782 6.39821 48.7898 6.39821Z" fill="white"/>
</g>
<path opacity="0.1" d="M90.0411 22.2027L81.7775 17.4363L77.7627 21.885L87.097 27.2702C89.5894 28.7085 91.1284 31.3844 91.1284 34.2443V73.8476C91.1284 76.7074 89.5894 79.3833 87.097 80.8216L52.8045 100.623C50.3288 102.062 47.2341 102.062 44.7416 100.623L19.7834 86.2236L15.7687 90.6723L41.8142 105.707C43.9554 106.945 46.3642 107.564 48.773 107.564C51.1819 107.564 53.5907 106.945 55.7319 105.707L90.0244 85.9058C94.3067 83.4306 96.9832 78.8147 96.9832 73.8643V34.2443C97 29.2939 94.3402 24.6779 90.0411 22.2027Z" fill="black"/>
<path d="M29.7199 82.4606V76.0384C29.7199 75.5869 29.77 75.1353 29.8537 74.7005C30.0879 73.5298 31.6436 73.2455 32.2793 74.2489C34.5877 77.8279 41.028 80.9387 50.3455 79.1826C72.4098 73.4629 80.3389 50.5839 80.3389 50.5839C81.6939 47.423 82.1623 43.8106 81.4764 40.0309C79.904 31.5014 72.1589 25.28 63.477 25.3803C60.1984 25.4138 57.3378 26.3336 54.6781 27.9224C54.3268 28.1399 53.8752 27.889 53.8752 27.4709V20.1122C50.7805 18.2223 48.8734 20.1122 48.8734 20.1122V29.5447C48.8734 30.8492 49.0575 32.137 49.4088 33.3913C50.7805 38.2414 53.2395 52.039 37.8497 55.4507H37.833L37.7828 55.4675C37.5486 55.6013 37.3144 55.7183 37.0635 55.8187C36.8794 55.919 36.6955 56.0194 36.5282 56.1197C32.9986 58.227 30.5563 61.9732 30.2384 66.3049L28.2144 67.4254C26.023 68.6295 24.668 70.9375 24.668 73.4462V82.4606C24.6847 82.4606 27.0601 84.802 29.7199 82.4606Z" fill="#A0A0FA"/>
<g opacity="0.3">
<path opacity="0.3" d="M76.5416 47.2892C76.4747 47.2892 76.391 47.2892 76.3241 47.2725C75.5379 47.1554 75.0026 46.4195 75.1197 45.6335C75.3706 43.9443 75.2703 42.3053 74.8353 40.7834C74.116 38.2747 72.4265 36.0337 70.1013 34.4449C69.4489 33.9933 69.2649 33.1069 69.7166 32.4547C70.1682 31.8024 71.0548 31.6184 71.7072 32.07C74.6011 34.0268 76.6921 36.8364 77.5954 39.9806C78.1475 41.9039 78.2813 43.961 77.9635 46.0516C77.8631 46.7874 77.2441 47.2892 76.5416 47.2892Z" fill="white"/>
</g>
<g opacity="0.3">
<path opacity="0.3" d="M67.2742 32.923C67.1237 32.923 66.9732 32.9063 66.8226 32.8561C66.0699 32.6052 65.2836 32.4213 64.4974 32.3042C63.7112 32.1871 63.1592 31.468 63.2763 30.6819C63.3934 29.8959 64.1294 29.3607 64.8989 29.4611C65.8524 29.5948 66.8059 29.829 67.7259 30.13C68.4787 30.3809 68.8801 31.2004 68.6292 31.953C68.4452 32.5383 67.8765 32.923 67.2742 32.923Z" fill="white"/>
</g>
<path opacity="0.1" d="M50.3454 79.1994C61.5365 76.2894 69.0976 68.9809 73.8149 62.4751C73.9487 62.2577 78.3649 54.899 74.4673 53.5945C70.5028 52.2732 68.947 61.6723 57.8061 67.4255C46.6485 73.1787 36.5783 65.2681 33.584 70.2854C30.7235 75.0518 37.5987 78.2796 38.2678 78.5807C41.3959 79.7012 45.4776 80.1193 50.3454 79.1994Z" fill="black"/>
<path opacity="0.2" d="M53.8584 20.1122C50.7637 18.2223 48.8567 20.1122 48.8567 20.1122C48.8567 20.1122 51.1317 22.5372 53.8584 20.1122Z" fill="black"/>
</svg>
