<svg width="98" height="108" viewBox="0 0 98 108" fill="none" xmlns="http://www.w3.org/2000/svg">
<path d="M48.8195 107.261C46.4106 107.261 44.0018 106.642 41.8606 105.405L7.56812 85.603C3.28574 83.1278 0.609253 78.5119 0.609253 73.5615V33.9582C0.609253 29.0078 3.26902 24.3918 7.56812 21.9166L41.8606 2.11495C46.1597 -0.360257 51.4792 -0.360257 55.7783 2.11495L90.0708 21.9166C94.3532 24.3918 97.0297 29.0078 97.0297 33.9582V73.5615C97.0297 78.5119 94.3699 83.1278 90.0708 85.603L55.7783 105.405C53.6204 106.642 51.2283 107.261 48.8195 107.261ZM48.8195 6.12882C47.431 6.12882 46.0259 6.48003 44.788 7.19917L10.4955 27.0008C8.00305 28.4391 6.46406 31.115 6.46406 33.9749V73.5782C6.46406 76.4381 8.00305 79.114 10.4955 80.5523L44.788 100.354C47.2805 101.792 50.3584 101.792 52.8509 100.354L87.1434 80.5523C89.6359 79.114 91.1749 76.4381 91.1749 73.5782V33.9749C91.1749 31.115 89.6359 28.4391 87.1434 27.0008L52.8509 7.19917C51.5963 6.48003 50.2079 6.12882 48.8195 6.12882Z" fill="#E2EBFF"/>
<g opacity="0.5">
<path opacity="0.5" d="M48.8195 107.261C46.4106 107.261 44.0018 106.642 41.8606 105.405L7.56812 85.603C3.28574 83.1278 0.609253 78.5119 0.609253 73.5615V33.9582C0.609253 29.0078 3.26902 24.3918 7.56812 21.9166L41.8606 2.11495C46.1597 -0.360257 51.4792 -0.360257 55.7783 2.11495L90.0708 21.9166C94.3532 24.3918 97.0297 29.0078 97.0297 33.9582V73.5615C97.0297 78.5119 94.3699 83.1278 90.0708 85.603L55.7783 105.405C53.6204 106.642 51.2283 107.261 48.8195 107.261ZM48.8195 6.12882C47.431 6.12882 46.0259 6.48003 44.788 7.19917L10.4955 27.0008C8.00305 28.4391 6.46406 31.115 6.46406 33.9749V73.5782C6.46406 76.4381 8.00305 79.114 10.4955 80.5523L44.788 100.354C47.2805 101.792 50.3584 101.792 52.8509 100.354L87.1434 80.5523C89.6359 79.114 91.1749 76.4381 91.1749 73.5782V33.9749C91.1749 31.115 89.6359 28.4391 87.1434 27.0008L52.8509 7.19917C51.5963 6.48003 50.2079 6.12882 48.8195 6.12882Z" fill="white"/>
</g>
<path opacity="0.1" d="M90.0708 21.9334L81.8072 17.167L77.7925 21.6157L87.1267 27.0009C89.6192 28.4392 91.1581 31.1151 91.1581 33.975V73.5783C91.1581 76.4382 89.6192 79.1141 87.1267 80.5523L52.8342 100.354C50.3585 101.792 47.2638 101.792 44.7713 100.354L19.8131 85.9543L15.7983 90.403L41.8439 105.438C43.9851 106.676 46.3939 107.295 48.8028 107.295C51.2116 107.295 53.6204 106.676 55.7616 105.438L90.0541 85.6366C94.3365 83.1614 97.013 78.5454 97.013 73.595V33.9917C97.0297 29.0246 94.3699 24.4087 90.0708 21.9334Z" fill="black"/>
<path d="M45.0037 44.5038C45.1018 45.7327 45.2028 72.1231 45.2028 74.6644C45.2028 75.709 41.8993 76.54 40.5052 76.8955C39.8774 77.0564 40.9569 82.8179 41.9037 82.9949C42.3814 83.0841 45.6473 80.4477 48.9263 80.4477C52.2053 80.4477 54.5649 82.5355 55.1422 82.3804C55.6531 82.2429 56.1929 77.1193 55.8451 76.897C55.4756 76.6599 52.7364 76.1259 52.7364 74.6658C52.7364 72.2562 53.2329 44.8608 53.2502 44.6618C53.3613 43.3729 54.5649 43.1797 54.9575 41.7226C55.7873 38.6399 57.2349 36.5068 57.4759 33.7534C57.6909 31.294 54.7511 25.237 54.1262 24.2846C53.7582 23.7228 53.4566 24.2202 53.1145 24.5728C52.4016 25.3087 51.3957 26.1251 49.2178 26.1251C47.1541 26.1251 46.2665 25.4404 45.223 24.2568C44.9301 23.9247 44.6703 23.8735 44.3023 24.3504C43.8549 24.9283 41.1936 28.9912 41.0464 33.7212C40.9612 36.4585 42.25 37.9406 43.5345 41.8469C43.9314 43.0583 44.8868 43.0583 45.0037 44.5038Z" fill="#A0A0FA"/>
<path d="M58.9856 42.9166C58.9841 42.9444 58.9827 42.9737 58.9812 43.0014C58.9798 43.0541 58.9769 43.1053 58.974 43.158C58.9639 43.3614 58.948 43.5676 58.9307 43.7739C58.9221 43.8676 58.9134 43.9612 58.9047 44.0563C58.899 44.1148 58.8932 44.1719 58.886 44.2304C58.8788 44.2977 58.8716 44.3635 58.8629 44.4323C58.8571 44.4806 58.8513 44.5274 58.8456 44.5757C58.8355 44.6503 58.8268 44.7234 58.8167 44.7981C58.8066 44.8697 58.7965 44.9414 58.7864 45.0146C58.7749 45.0951 58.7633 45.1755 58.7503 45.256C58.7446 45.2999 58.7373 45.3438 58.7287 45.3877C58.7258 45.4067 58.7229 45.4242 58.72 45.4447C58.7157 45.4696 58.7114 45.4959 58.707 45.5208C58.694 45.594 58.681 45.6686 58.6681 45.7417C58.6637 45.7724 58.658 45.8017 58.6522 45.831C58.404 47.1974 58.0302 48.5478 57.5582 49.727C57.5553 49.7344 57.5525 49.7417 57.5496 49.749C57.5294 49.7987 57.5092 49.8485 57.489 49.8968C57.0776 50.8902 56.5971 51.7504 56.0631 52.3839C56.053 52.3942 56.0443 52.4059 56.0356 52.4161C56.0169 52.4381 55.9996 52.4585 55.9794 52.4805C55.9606 52.5024 55.9433 52.5229 55.9231 52.5434C55.9043 52.5639 55.8856 52.5844 55.8668 52.6034C55.848 52.6239 55.8293 52.6429 55.8105 52.6619C55.7917 52.6809 55.773 52.6999 55.7528 52.719C55.734 52.738 55.7153 52.7555 55.695 52.7746C55.6763 52.7921 55.6561 52.8111 55.6373 52.8272C55.6113 52.8506 55.5868 52.8726 55.5608 52.8945C55.5349 52.9165 55.5089 52.9384 55.4829 52.9589C55.4598 52.9779 55.4367 52.9969 55.4136 53.013C55.3905 53.0306 55.3674 53.0481 55.3443 53.0657C55.3241 53.0803 55.3039 53.095 55.2852 53.1081C55.2606 53.1242 55.2376 53.1403 55.213 53.1564C55.1971 53.1666 55.1813 53.1769 55.1654 53.1871C55.125 53.212 55.0846 53.2354 55.0442 53.2574C55.0038 53.2793 54.9619 53.2998 54.9215 53.3203C54.8551 53.3525 54.7873 53.3802 54.7194 53.4037C54.7036 53.4095 54.6877 53.4139 54.6718 53.4198C54.6646 53.4227 54.6574 53.4256 54.6502 53.4271C54.6401 53.4315 54.6285 53.4344 54.6184 53.4373C54.5737 53.4505 54.5289 53.4622 54.4828 53.4724C54.4611 53.4768 54.4409 53.4812 54.4193 53.4856C54.3947 53.49 54.3716 53.4944 54.3471 53.4973C54.3442 53.4973 54.3413 53.4973 54.3384 53.4973C54.3226 53.5002 54.3067 53.5017 54.2908 53.5031C54.2692 53.5061 54.249 53.5075 54.2273 53.509C54.2071 53.5105 54.1855 53.5119 54.1652 53.5134C54.1422 53.5134 54.1191 53.5149 54.096 53.5149C54.0758 53.5149 54.0541 53.5148 54.0339 53.5134C54.0195 53.5134 54.0051 53.5134 53.9906 53.5119C53.8651 53.5075 53.7438 53.4958 53.6284 53.4753C53.6082 53.4724 53.588 53.468 53.5692 53.4651C53.5403 53.4593 53.5115 53.4534 53.4826 53.4476C53.4725 53.4446 53.4624 53.4432 53.4523 53.4402C53.448 53.4402 53.4451 53.4388 53.4408 53.4373C53.409 53.43 53.3773 53.4212 53.3455 53.411C53.3441 53.411 53.3426 53.411 53.3426 53.411C53.3138 53.4022 53.2849 53.3934 53.2575 53.3846C53.1507 53.3495 53.0468 53.3071 52.9472 53.2603C52.7321 53.1579 52.5359 53.0291 52.3526 52.8828C52.2429 52.795 52.1375 52.7014 52.0351 52.6034C52.0134 52.5829 51.9932 52.5624 51.9716 52.5419C51.9557 52.5258 51.9398 52.5112 51.9254 52.4951C51.5314 52.0942 51.1908 51.6319 50.8386 51.2252C50.6886 51.0511 50.537 50.8872 50.3783 50.7424C50.3552 50.7219 50.3321 50.7014 50.309 50.6809C50.2614 50.64 50.2137 50.6019 50.1661 50.5639C50.1531 50.5537 50.1401 50.5434 50.1257 50.5332C50.068 50.4893 50.0074 50.4498 49.9467 50.4132C49.9338 50.4044 49.9208 50.3971 49.9078 50.3898C49.8674 50.3664 49.827 50.3459 49.7865 50.3254C49.7793 50.321 49.7707 50.3181 49.762 50.3137C49.6985 50.2845 49.635 50.2581 49.5686 50.2362C49.5499 50.2303 49.5311 50.2245 49.5123 50.2186C49.4979 50.2142 49.4835 50.2098 49.4676 50.2069C49.4532 50.2025 49.4387 50.1996 49.4229 50.1967C49.3882 50.1879 49.3521 50.1806 49.3161 50.1747C49.2901 50.1703 49.2655 50.1674 49.2396 50.1645C49.2179 50.1616 49.1948 50.1601 49.1717 50.1586C49.1602 50.1586 49.1501 50.1572 49.1385 50.1572C49.1082 50.1557 49.0779 50.1542 49.0462 50.1542C49.0289 50.1542 49.0115 50.1542 48.9942 50.1542C48.9812 50.1542 48.9682 50.1557 48.9567 50.1557C48.9148 50.1572 48.873 50.1616 48.8326 50.166C48.8153 50.1674 48.798 50.1703 48.7821 50.1733C48.7619 50.1762 48.7402 50.1791 48.7186 50.1835C48.7027 50.1864 48.6883 50.1894 48.6738 50.1937C48.6551 50.1981 48.6363 50.2025 48.619 50.2069C48.5497 50.2245 48.4819 50.2479 48.4169 50.2742C48.4011 50.2801 48.3852 50.2874 48.3693 50.2947C48.3664 50.2962 48.3635 50.2976 48.3607 50.2991C48.3361 50.3093 48.3116 50.321 48.2871 50.3342C48.2625 50.3459 48.2365 50.3591 48.212 50.3737C48.1875 50.3869 48.1629 50.4015 48.1384 50.4161C48.137 50.4161 48.137 50.4176 48.1355 50.4176C48.1182 50.4278 48.0994 50.4395 48.0836 50.4512C48.0533 50.4703 48.0229 50.4907 47.9941 50.5127C47.9695 50.5302 47.9465 50.5478 47.9234 50.5654C47.8931 50.5888 47.8642 50.6122 47.8339 50.6371C47.831 50.6385 47.8281 50.6414 47.8252 50.6444C47.7935 50.6707 47.7617 50.6985 47.73 50.7278C47.6939 50.7599 47.6578 50.7936 47.6232 50.8287C47.6015 50.8507 47.5784 50.8711 47.5568 50.8945C47.4457 51.0057 47.3374 51.1272 47.2306 51.2515C46.9016 51.6334 46.5812 52.0635 46.2175 52.4439C46.2175 52.4439 46.2175 52.4439 46.216 52.4439C46.2146 52.4468 46.2117 52.4483 46.2103 52.4512C46.1468 52.5185 46.0804 52.5829 46.014 52.6458C45.9794 52.678 45.9447 52.7102 45.9086 52.7424C45.8726 52.7746 45.8365 52.8053 45.8004 52.836C45.7643 52.8667 45.7268 52.896 45.6893 52.9252C45.6489 52.956 45.6085 52.9852 45.5666 53.0145C45.5421 53.032 45.5175 53.0481 45.4916 53.0657C45.4396 53.0993 45.3862 53.133 45.3328 53.1637C44.9547 53.3803 44.5203 53.5149 44.0022 53.5149C43.0699 53.5149 42.2054 52.7789 41.4664 51.6231C41.3683 51.4695 41.2731 51.31 41.1807 51.1433C41.1489 51.0877 41.1186 51.0321 41.0883 50.975C41.0277 50.8609 40.9671 50.7439 40.9094 50.6239C40.8791 50.5639 40.8502 50.5039 40.8213 50.4425C40.7925 50.3825 40.7636 50.3196 40.7362 50.2581C40.7073 50.1952 40.6799 50.1323 40.6525 50.0694C40.4591 49.6246 40.2787 49.1535 40.1142 48.6619C39.9222 48.0899 39.7519 47.4915 39.6061 46.8814C39.5253 46.542 39.4517 46.1997 39.3853 45.8558C39.3723 45.7871 39.3594 45.7183 39.3464 45.6495C39.2713 45.237 39.2078 44.8244 39.1573 44.4133C39.14 44.2758 39.1241 44.1412 39.1097 44.0051C39.0953 43.869 39.0823 43.7344 39.0707 43.5998C39.0505 43.3672 39.0346 43.136 39.0245 42.9093C39.0231 42.8756 39.0202 42.842 39.0188 42.8083C39.0144 42.7132 39.0115 42.6181 39.0087 42.5245C39.0072 42.4879 39.0072 42.4499 39.0058 42.4148C39.0043 42.3782 39.0043 42.3416 39.0043 42.305C39 42.2319 39 42.1573 39 42.0827C39 42.0197 39 41.9568 39.0014 41.8939C39.0014 41.831 39.0029 41.7696 39.0058 41.7081V41.7052C39.0072 41.6437 39.0087 41.5838 39.0115 41.5238V41.5223C39.0144 41.4623 39.0173 41.4009 39.0202 41.3409C39.0274 41.1961 39.0375 41.0541 39.0491 40.9137C39.0736 40.6416 39.1054 40.3797 39.1487 40.1295C39.1515 40.1163 39.153 40.1032 39.1559 40.09C39.166 40.0271 39.1775 39.9656 39.1891 39.9057C39.2251 39.7228 39.267 39.5472 39.3146 39.3804C39.3175 39.3673 39.3218 39.3541 39.3247 39.3424C39.3868 39.1273 39.4575 38.9254 39.5383 38.7396C39.5484 38.7177 39.5585 38.6943 39.5686 38.6723C39.6163 38.567 39.6682 38.466 39.723 38.3724C39.7303 38.3592 39.7389 38.3461 39.7461 38.3329C39.7736 38.2861 39.8024 38.2422 39.8313 38.1998C39.8501 38.172 39.8688 38.1456 39.8876 38.1207C39.941 38.0476 39.9973 37.9803 40.055 37.9174C40.0752 37.8969 40.0954 37.875 40.1156 37.8545C40.1531 37.8179 40.1906 37.7828 40.2296 37.7491C40.2513 37.7301 40.2744 37.7126 40.2974 37.695C40.3595 37.6467 40.4244 37.6043 40.4923 37.5663C40.5125 37.5546 40.5327 37.5443 40.5543 37.5326C40.5947 37.5107 40.6352 37.4931 40.6756 37.4785C40.716 37.4624 40.7549 37.4507 40.7954 37.4404C40.8343 37.4302 40.8747 37.4229 40.9123 37.4185C40.9613 37.4126 41.0104 37.4112 41.0595 37.4126C41.185 37.417 41.3091 37.4463 41.4318 37.5004C41.465 37.515 41.4996 37.5311 41.5314 37.5502C41.6281 37.6028 41.7248 37.6716 41.82 37.7521C41.833 37.7623 41.846 37.774 41.8576 37.7857C41.8705 37.7974 41.885 37.8091 41.898 37.8223L41.934 37.8574C42.0279 37.9481 42.1217 38.052 42.2155 38.1661C42.2371 38.1924 42.2602 38.2217 42.2819 38.2495C42.3035 38.2773 42.3266 38.3066 42.3482 38.3358C42.3511 38.3402 42.354 38.3431 42.3569 38.3475C42.3757 38.3739 42.3959 38.4002 42.4146 38.4265C42.4363 38.4572 42.4579 38.488 42.481 38.5202C42.5994 38.6899 42.7163 38.8728 42.8346 39.0688C42.8505 39.0951 42.8664 39.1215 42.8822 39.1493C42.914 39.2034 42.9457 39.2575 42.9789 39.3131C43.1131 39.5428 43.2474 39.7871 43.383 40.0388C43.5894 40.4206 43.8001 40.8215 44.0195 41.2282C44.0556 41.2955 44.0931 41.3643 44.1292 41.4316C44.1667 41.5004 44.2028 41.5677 44.2403 41.6364C44.3399 41.8178 44.4409 41.9993 44.5448 42.1792C44.5636 42.2114 44.5823 42.2451 44.6025 42.2787C44.6415 42.3445 44.6805 42.4104 44.7194 42.4762C44.7382 42.5084 44.757 42.5421 44.7772 42.5742C44.7974 42.6064 44.8161 42.6401 44.8363 42.6723C44.8753 42.7366 44.9157 42.8025 44.9561 42.8668C44.9994 42.9356 45.0427 43.0044 45.0875 43.0731C45.125 43.1317 45.1639 43.1902 45.2029 43.2487C45.2246 43.2809 45.2448 43.3116 45.265 43.3423C45.2866 43.3745 45.3068 43.4052 45.3285 43.4345C45.4454 43.6042 45.5666 43.771 45.6907 43.9305C45.7167 43.9656 45.7441 43.9992 45.7715 44.0329C45.799 44.068 45.8278 44.1017 45.8552 44.1353C45.9303 44.226 46.0068 44.3153 46.0847 44.403C46.1064 44.4279 46.128 44.4513 46.1497 44.4747C46.1699 44.4967 46.1886 44.5172 46.2103 44.5391C46.2334 44.5654 46.2579 44.5903 46.2824 44.6152C46.3315 44.6664 46.382 44.7176 46.434 44.7659C46.4571 44.7878 46.4816 44.8112 46.5047 44.8332C46.5971 44.9195 46.6909 45.0014 46.7861 45.079C46.8179 45.1053 46.8511 45.1316 46.8843 45.1565C46.9434 45.2033 47.0026 45.2472 47.0632 45.2882C47.0834 45.3028 47.1036 45.3174 47.1253 45.3306C47.1859 45.3716 47.2465 45.4111 47.3086 45.4477C47.3187 45.455 47.3302 45.4608 47.3418 45.4681C47.3547 45.4769 47.3677 45.4842 47.3807 45.4901C47.4081 45.5062 47.437 45.5223 47.4644 45.5384C47.4933 45.5545 47.5222 45.5691 47.5496 45.5837C47.7964 45.7095 48.0547 45.8061 48.326 45.869C48.3765 45.8807 48.4256 45.891 48.4776 45.8997C48.4934 45.9027 48.5108 45.9056 48.5266 45.9085C48.5411 45.9114 48.5555 45.9144 48.5699 45.9158C48.5916 45.9187 48.6103 45.9217 48.6305 45.9246C48.6378 45.9261 48.6464 45.9275 48.6536 45.9275C48.6839 45.9319 48.7142 45.9348 48.746 45.9378C48.7792 45.9407 48.8124 45.9436 48.8456 45.9451C48.8672 45.9465 48.8903 45.948 48.9134 45.948C48.9293 45.9495 48.9466 45.9495 48.9625 45.9495C48.9899 45.9495 49.0188 45.9509 49.0462 45.9509C49.0808 45.9509 49.1155 45.9509 49.1487 45.9495C49.2511 45.9465 49.3521 45.9392 49.4503 45.9261C49.4864 45.9202 49.5239 45.9158 49.56 45.91C49.5657 45.9085 49.5701 45.9085 49.5758 45.907C49.6119 45.9012 49.648 45.8953 49.6826 45.8866C49.7158 45.8807 49.7505 45.8734 49.7822 45.8646C49.7909 45.8632 49.801 45.8602 49.8096 45.8588C49.8457 45.85 49.8804 45.8412 49.915 45.831C49.9352 45.8251 49.9554 45.8193 49.9742 45.8134C50.016 45.8017 50.0564 45.7871 50.0968 45.7739C50.1271 45.7637 50.1575 45.752 50.1863 45.7417C50.2123 45.7315 50.2383 45.7212 50.2643 45.711C50.2816 45.7051 50.2974 45.6978 50.3148 45.6891C50.3379 45.6788 50.3624 45.6686 50.3855 45.6583C50.4201 45.6422 50.4533 45.6261 50.4879 45.61C50.5385 45.5852 50.5875 45.5588 50.638 45.531C50.6582 45.5208 50.677 45.5091 50.6972 45.4974C50.7174 45.4872 50.7362 45.4754 50.7549 45.4637C50.7751 45.452 50.7954 45.4389 50.8156 45.4272C50.8444 45.4111 50.8718 45.3921 50.8993 45.3745C50.9267 45.3569 50.9541 45.3379 50.9815 45.3189C51.0537 45.2692 51.1244 45.2165 51.1951 45.1624C51.2211 45.1419 51.2471 45.1199 51.2745 45.098C51.3149 45.0658 51.3553 45.0307 51.3957 44.997C51.4174 44.9795 51.4376 44.9605 51.4578 44.9414C51.5097 44.8961 51.5603 44.8493 51.6093 44.801C51.6584 44.7542 51.7075 44.7059 51.7551 44.6561C51.7811 44.6298 51.8056 44.6035 51.8301 44.5771C51.9831 44.4147 52.1318 44.2421 52.2746 44.0592C52.2977 44.0314 52.3194 44.0022 52.341 43.9744C52.3627 43.9451 52.3858 43.9173 52.4074 43.8881C52.4305 43.8588 52.4522 43.8295 52.4724 43.8003C52.4839 43.7856 52.494 43.771 52.5041 43.7564C52.5157 43.7417 52.5258 43.7271 52.5359 43.7125C52.5575 43.6832 52.5792 43.6525 52.5994 43.6218C52.6037 43.6159 52.608 43.6101 52.6124 43.6042C52.6282 43.5808 52.6441 43.5574 52.66 43.5355C52.6614 43.534 52.6614 43.5325 52.6629 43.5311C52.6845 43.5003 52.7047 43.4696 52.7264 43.4389C52.813 43.3116 52.8981 43.1829 52.9804 43.0512C53.0179 42.9912 53.0554 42.9327 53.0915 42.8712C53.0987 42.8595 53.1059 42.8478 53.1131 42.8361C53.2257 42.6503 53.3368 42.4616 53.4436 42.2714C53.7049 41.812 53.9517 41.3438 54.1869 40.8874C54.2215 40.8215 54.2547 40.7557 54.2879 40.6913C54.2937 40.6811 54.2995 40.6694 54.3052 40.6577C54.35 40.5713 54.3947 40.4865 54.438 40.4002C54.4842 40.3124 54.5304 40.2246 54.5751 40.1397C54.63 40.0329 54.6862 39.9276 54.7411 39.8252C54.7685 39.7725 54.7974 39.7199 54.8248 39.6686C54.8594 39.6043 54.8941 39.5414 54.9287 39.4784C54.946 39.4463 54.9633 39.417 54.9807 39.3863C55.0153 39.3248 55.0499 39.2634 55.0846 39.2049C55.1019 39.1756 55.1192 39.1463 55.1365 39.1156C55.2433 38.9313 55.3501 38.7586 55.4569 38.5977C55.4742 38.5699 55.493 38.5436 55.5118 38.5172C55.6748 38.2773 55.8394 38.0681 56.0053 37.8984C56.0241 37.8793 56.0414 37.8603 56.0616 37.8428C56.2103 37.6994 56.3604 37.5882 56.5162 37.515C56.6447 37.4536 56.776 37.42 56.9102 37.4156C56.9579 37.4141 57.0055 37.4156 57.0546 37.4214C57.0935 37.4258 57.1325 37.4331 57.1729 37.4434C57.2119 37.4536 57.2523 37.4653 57.2927 37.4814C57.3331 37.4975 57.3735 37.515 57.4139 37.5355C57.743 37.7038 58.0157 37.9847 58.2365 38.3563C58.3332 38.5187 58.4198 38.6972 58.4978 38.8932C58.9062 39.9057 59.0505 41.3409 58.9856 42.9166Z" fill="#8080C8"/>
<path d="M50.9295 49.4108C51.7637 48.8973 51.0406 46.7905 49.7187 47.699C49.5801 47.7927 49.482 47.9024 49.4127 48.018C48.9249 48.8256 50.0001 49.9828 50.9295 49.4108Z" fill="#8080C8"/>
<path d="M45.1365 52.9105C45.9562 52.0107 44.6544 49.626 43.8679 49.7035C43.4739 49.7415 42.9399 50.1614 42.6556 50.6881C42.3698 51.2163 42.2702 51.863 42.354 52.1351C42.6253 53.0202 44.3153 53.8117 45.1365 52.9105Z" fill="#8080C8"/>
<path d="M43.7929 44.5389C43.1968 44.6793 41.9816 46.0546 42.4882 47.2616C42.7552 47.8951 44.3225 48.9953 45.3717 47.5952C46.4195 46.195 44.4712 44.3794 43.7929 44.5389Z" fill="#8080C8"/>
<path d="M51.6612 46.2331C51.9311 45.6127 51.9744 45.0275 51.8329 44.5667C51.0579 45.3903 50.1516 45.9434 49.0475 45.9448C48.7979 45.9448 48.5583 45.9156 48.3274 45.8629C48.2494 46.2448 48.2523 46.571 48.3404 46.7363C48.6752 47.3611 50.9988 47.7561 51.6612 46.2331Z" fill="#8080C8"/>
<path d="M48.2018 48.1774C48.5612 47.0582 47.6693 46.113 46.7067 46.7261C46.2477 47.0187 45.6257 47.5732 45.2692 48.211C44.9113 48.8489 44.8161 49.5673 45.4107 50.1964C46.1655 50.9967 47.8439 49.2952 48.2018 48.1774Z" fill="#8080C8"/>
<path d="M46.2924 45.6594C46.7788 45.854 47.219 45.8013 47.5726 45.5877C46.304 44.9498 45.3298 43.5453 44.4928 42.0764C43.7712 43.1737 44.7987 45.0625 46.2924 45.6594Z" fill="#8080C8"/>
<path d="M50.3782 50.7407C50.2902 50.2726 50.0622 49.8088 49.6465 49.4386C48.6146 48.5242 47.6867 49.3187 47.3302 50.1833C47.2118 50.4715 47.157 50.7627 47.183 51.0055C47.1916 51.0875 47.2089 51.1694 47.232 51.2499C47.7516 50.6427 48.2899 50.1526 49.0476 50.1511C49.5758 50.1526 49.9958 50.3911 50.3782 50.7407Z" fill="#8080C8"/>
<path d="M58.2409 38.3502C58.2048 38.4526 58.1197 38.5214 57.958 38.5214C57.4644 38.5214 57.222 38.2083 57.0156 37.7138C56.9737 37.6157 56.9406 37.5133 56.916 37.408C56.9636 37.4065 57.0113 37.408 57.0603 37.4138C57.0993 37.4197 57.1397 37.427 57.1787 37.4358C57.2176 37.446 57.2581 37.4592 57.2985 37.4738C57.3389 37.4899 57.3793 37.5075 57.4197 37.528C57.7473 37.6962 58.0201 37.9786 58.2409 38.3502Z" fill="#8080C8"/>
<path d="M54.9706 42.46C55.4916 42.0606 55.2001 40.7395 54.5824 40.1309C54.2274 40.8082 53.855 41.5471 53.4495 42.2625C53.9113 42.6429 54.5319 42.7951 54.9706 42.46Z" fill="#8080C8"/>
<path d="M41.1013 47.7517C40.6612 47.8717 40.3754 48.1467 40.1921 48.4876C40.1618 48.5432 40.1358 48.6017 40.1099 48.6602C40.4851 49.7824 40.9426 50.8065 41.4636 51.62C42.1679 51.2045 42.7957 49.7209 42.9573 49.1621C43.1392 48.5373 42.2747 47.4328 41.1013 47.7517Z" fill="#8080C8"/>
<path d="M53.3599 52.0179C53.8506 51.5044 54.5275 51.0377 54.4048 50.4027C54.1623 49.1547 52.3872 48.71 51.5198 49.4766C51.3033 49.6683 51.1244 49.9521 51.006 50.2769C50.8992 50.571 50.8401 50.8987 50.8386 51.222C51.3106 51.7677 51.7637 52.4144 52.3511 52.8796C52.6874 52.7333 53.0294 52.3632 53.3599 52.0179Z" fill="#8080C8"/>
<path d="M52.7797 45.844C53.6572 46.1981 54.6905 44.6136 54.5621 43.8236C54.4567 43.1813 53.7394 42.6517 53.1174 42.8258C52.849 43.2661 52.5632 43.689 52.2587 44.0737C52.1317 44.814 52.2933 45.6465 52.7797 45.844Z" fill="#8080C8"/>
<path d="M39.8126 42.8637C39.5008 43.0393 39.2613 43.3026 39.0679 43.6011C39.1602 44.6764 39.3435 45.7971 39.6019 46.8812C40.5876 47.1197 41.5545 46.9529 42.1866 46.037C43.0049 44.852 42.5907 43.8044 41.4665 43.0612C40.8863 42.675 40.4635 42.498 39.8126 42.8637Z" fill="#8080C8"/>
<path d="M54.7468 39.8162C55.1322 39.8938 55.5189 39.8543 55.8494 39.6378C56.3546 39.3086 56.6288 38.362 56.5191 37.5076C55.9014 37.8002 55.3429 38.7029 54.7468 39.8162Z" fill="#8080C8"/>
<path d="M56.9608 48.2258C56.1382 47.9288 55.4656 48.3238 55.1597 48.852C54.9749 49.1694 54.9187 49.5498 55.0283 49.9053C55.3011 50.7817 56.626 51.1723 57.4904 49.8966C57.5135 49.841 57.5366 49.7839 57.5597 49.7269C57.616 49.0977 57.3476 48.3648 56.9608 48.2258Z" fill="#8080C8"/>
<path d="M58.6997 44.0387C58.3981 44.5069 58.3779 45.1872 58.6016 45.7198C58.6175 45.7578 58.6348 45.7944 58.6521 45.828C58.7777 45.1389 58.8715 44.4469 58.9292 43.771C58.8412 43.85 58.7647 43.9407 58.6997 44.0387Z" fill="#8080C8"/>
<path d="M58.9855 42.9149C58.9841 42.9427 58.9826 42.972 58.9812 42.9998C58.9797 43.0524 58.9768 43.1037 58.974 43.1563C58.8527 43.269 58.7171 43.3611 58.5655 43.427C57.2565 43.9946 55.6055 43.1622 55.5377 41.6391C55.5175 41.2134 55.5853 40.7833 55.7339 40.3956C55.8581 40.0708 56.0399 39.7723 56.2766 39.5294C56.3098 39.4943 56.3444 39.4607 56.3819 39.4285C56.8019 39.0466 57.8107 38.8184 58.5035 38.8872C58.9061 39.904 59.0504 41.3392 58.9855 42.9149Z" fill="#8080C8"/>
<path d="M39.0216 42.9104C39.5354 42.3778 39.8255 41.5746 39.4834 41.2206C39.355 41.0874 39.2078 40.9865 39.049 40.9133C38.9942 41.5337 38.987 42.2081 39.0216 42.9104Z" fill="#8080C8"/>
<path d="M54.806 48.7055C55.2606 47.9228 52.7119 45.1299 51.8273 46.6353C50.9397 48.1423 54.1234 49.8818 54.806 48.7055Z" fill="#8080C8"/>
<path d="M39.1471 40.1278C39.492 40.0796 39.8268 39.9596 40.1169 39.7694C40.6971 39.3949 41.1041 38.7453 41.094 37.8514C41.0925 37.6933 41.0796 37.547 41.0593 37.4081C40.8963 37.4022 40.7274 37.4402 40.5542 37.5295C39.8124 37.9069 39.3607 38.8623 39.1471 40.1278Z" fill="#8080C8"/>
<path d="M56.9563 47.7049C58.0272 47.2441 58.5438 45.5513 57.8251 44.574C57.3763 43.9625 55.3673 43.2061 54.6645 44.7262C54.5649 44.9427 54.4711 45.2017 54.3888 45.4987C53.7365 47.8673 56.4137 47.9376 56.9563 47.7049Z" fill="#8080C8"/>
<path d="M42.3727 39.3276C42.5748 39.3554 42.7826 39.3495 42.9803 39.3071C42.4665 38.419 41.9686 37.7329 41.4332 37.4958C41.3697 37.9011 41.413 38.3108 41.5689 38.6882C41.7074 39.0291 42.0105 39.2778 42.3727 39.3276Z" fill="#8080C8"/>
<path d="M56.0646 52.3822C55.7904 52.1876 55.4382 52.0574 54.9952 52.0223C53.9589 51.9374 53.3773 52.3763 53.0815 52.9367C53.0266 53.0405 52.9819 53.1488 52.9458 53.2571C53.2806 53.4165 53.6573 53.5131 54.0946 53.5131C54.8018 53.5131 55.4671 53.0903 56.0646 52.3822Z" fill="#8080C8"/>
<path d="M41.465 42.4513C42.4045 43.076 43.5548 43.2662 44.0974 42.0475C44.1609 41.9041 44.21 41.7651 44.2432 41.632C43.943 41.0863 43.6601 40.542 43.3845 40.0344C43.3195 40.011 43.2517 39.989 43.1795 39.97C42.2184 39.711 41.045 39.9144 40.7968 41.0395C40.6554 41.6759 40.9685 42.1221 41.465 42.4513Z" fill="#8080C8"/>
<path d="M45.3313 53.162C45.6632 52.9718 45.9519 52.7201 46.2174 52.4436C45.8581 52.5914 45.5492 52.843 45.3313 53.162Z" fill="#8080C8"/>
</svg>
