<svg width="36" height="48" viewBox="0 0 36 48" fill="none" xmlns="http://www.w3.org/2000/svg">
<path fill-rule="evenodd" clip-rule="evenodd" d="M18.0156 9.50042C18.9671 9.50042 19.8795 9.12507 20.5523 8.45694C21.2251 7.78882 21.603 6.88264 21.603 5.93776C21.603 4.99289 21.2251 4.08671 20.5523 3.41858C19.8795 2.75046 18.9671 2.37511 18.0156 2.37511C17.0642 2.37511 16.1517 2.75046 15.4789 3.41858C14.8062 4.08671 14.4282 4.99289 14.4282 5.93776C14.4282 6.88264 14.8062 7.78882 15.4789 8.45694C16.1517 9.12507 17.0642 9.50042 18.0156 9.50042ZM18.0156 11.8755C19.6013 11.8755 21.1221 11.2499 22.2434 10.1364C23.3647 9.02285 23.9946 7.51256 23.9946 5.93776C23.9946 4.36297 23.3647 2.85268 22.2434 1.73913C21.1221 0.625584 19.6013 0 18.0156 0C16.4299 0 14.9091 0.625584 13.7878 1.73913C12.6665 2.85268 12.0366 4.36297 12.0366 5.93776C12.0366 7.51256 12.6665 9.02285 13.7878 10.1364C14.9091 11.2499 16.4299 11.8755 18.0156 11.8755Z" fill="white"/>
<path fill-rule="evenodd" clip-rule="evenodd" d="M10.0926 16.9984C10.6397 17.1019 11.1333 17.3917 11.4883 17.8179C11.8433 18.2442 12.0373 18.78 12.037 19.3332V43.9393C12.037 44.2542 12.1629 44.5563 12.3872 44.779C12.6115 45.0017 12.9156 45.1268 13.2328 45.1268H13.3368C13.6353 45.1268 13.9231 45.0159 14.1435 44.816C14.3638 44.616 14.5009 44.3414 14.5278 44.0461L15.6244 32.0637C15.6244 31.4338 15.8763 30.8297 16.3248 30.3843C16.7734 29.9389 17.3817 29.6886 18.016 29.6886C18.6503 29.6886 19.2586 29.9389 19.7071 30.3843C20.1556 30.8297 20.4076 31.4338 20.4076 32.0637L21.5041 44.0461C21.531 44.3414 21.6681 44.616 21.8885 44.816C22.1089 45.0159 22.3966 45.1268 22.6951 45.1268H22.7992C23.1163 45.1268 23.4205 45.0017 23.6447 44.779C23.869 44.5563 23.995 44.2542 23.995 43.9393V19.3771C23.9949 18.8242 24.189 18.2886 24.544 17.8626C24.8989 17.4366 25.3924 17.147 25.9393 17.0436C28.0392 16.6469 30.2598 16.0971 32.7004 15.3905C32.8511 15.3468 32.9918 15.2741 33.1142 15.1765C33.2367 15.0788 33.3385 14.9582 33.4141 14.8215C33.4896 14.6847 33.5372 14.5345 33.5543 14.3795C33.5713 14.2245 33.5575 14.0676 33.5135 13.9179C33.4696 13.7682 33.3963 13.6286 33.298 13.507C33.1997 13.3853 33.0782 13.2842 32.9405 13.2092C32.8028 13.1342 32.6516 13.0869 32.4955 13.0699C32.3394 13.053 32.1815 13.0667 32.0307 13.1104C26.4894 14.7136 22.2371 15.457 18.0207 15.438C13.7996 15.419 9.54252 14.6376 3.98564 13.1068C3.83328 13.0617 3.67338 13.0472 3.51531 13.0642C3.35724 13.0812 3.20417 13.1293 3.06505 13.2057C2.92592 13.2822 2.80355 13.3854 2.70508 13.5094C2.60661 13.6333 2.53402 13.7756 2.49156 13.9277C2.4491 14.0799 2.43763 14.2389 2.4578 14.3955C2.47797 14.5522 2.5294 14.7032 2.60906 14.8399C2.68872 14.9765 2.79502 15.096 2.92174 15.1914C3.04847 15.2867 3.19307 15.356 3.34708 15.3952C5.77814 16.065 7.99396 16.6018 10.0926 16.9984ZM16.7939 44.8929C16.584 45.6432 16.1323 46.3046 15.5079 46.7758C14.8836 47.247 14.121 47.502 13.3368 47.5019H13.2328C12.2813 47.5019 11.3689 47.1266 10.6961 46.4584C10.0233 45.7903 9.64536 44.8841 9.64536 43.9393V19.3332C7.46183 18.9199 5.17905 18.3641 2.70733 17.6825C2.24394 17.566 1.80865 17.3588 1.42704 17.0729C1.04544 16.787 0.725204 16.4283 0.485159 16.0178C0.245115 15.6073 0.090098 15.1533 0.0292168 14.6824C-0.0316644 14.2116 0.00281749 13.7334 0.130636 13.276C0.258455 12.8186 0.477034 12.3912 0.773531 12.0188C1.07003 11.6465 1.43846 11.3367 1.8572 11.1078C2.27593 10.8788 2.73651 10.7353 3.21188 10.6856C3.68726 10.6359 4.16784 10.6811 4.62539 10.8184C10.0902 12.323 14.1141 13.0451 18.0315 13.0629C21.937 13.0795 25.9453 12.3979 31.3623 10.8303C31.8167 10.6921 32.2942 10.645 32.7671 10.6916C33.24 10.7382 33.6989 10.8777 34.117 11.102C34.5352 11.3262 34.9043 11.6307 35.203 11.9978C35.5017 12.3649 35.7239 12.7873 35.8568 13.2404C35.9897 13.6935 36.0307 14.1683 35.9773 14.6373C35.9239 15.1062 35.7771 15.56 35.5457 15.9722C35.3142 16.3843 35.0026 16.7467 34.6289 17.0383C34.2552 17.3299 33.8269 17.5448 33.3688 17.6706C30.8768 18.3926 28.5797 18.9626 26.3866 19.3771V43.9393C26.3866 44.8841 26.0086 45.7903 25.3358 46.4584C24.6631 47.1266 23.7506 47.5019 22.7992 47.5019H22.6951C21.7999 47.502 20.937 47.1697 20.2759 46.5703C19.6148 45.9709 19.2032 45.1476 19.1221 44.2623L18.0255 32.2799C18.0193 32.21 18.0161 32.1398 18.016 32.0697C18.016 32.1397 18.0124 32.2086 18.0064 32.2787L16.9086 44.2611C16.8893 44.4746 16.8509 44.6861 16.7939 44.8929Z" fill="white"/>
</svg>
