<svg width="37" height="42" viewBox="0 0 37 42" fill="none" xmlns="http://www.w3.org/2000/svg">
<path d="M36.3348 10.5415C36.3387 9.88856 36.1763 9.24538 35.8629 8.67253C35.5496 8.09969 35.0956 7.61602 34.5437 7.26706C33.9918 6.91811 33.3602 6.71537 32.7083 6.67791C32.0564 6.64046 31.4057 6.76953 30.8175 7.05298C30.7787 6.39544 30.5758 5.75808 30.2275 5.19902C29.8792 4.63996 29.3964 4.17698 28.8233 3.8523C28.2502 3.52762 27.6049 3.35156 26.9464 3.34018C26.2878 3.3288 25.6368 3.48245 25.0528 3.78714C24.9869 2.84155 24.5931 1.94861 23.9392 1.26238C23.2854 0.576147 22.4125 0.13966 21.4712 0.028229C20.5299 -0.0832023 19.5792 0.137411 18.7832 0.652006C17.9871 1.1666 17.3957 1.9429 17.1109 2.84697C16.4905 2.47489 15.7807 2.27822 15.0573 2.27792C14.5251 2.27954 13.9984 2.38618 13.5074 2.59175C13.0164 2.79731 12.5708 3.09775 12.1962 3.47584C11.8215 3.85393 11.5252 4.30225 11.3241 4.79508C11.1231 5.28792 11.0213 5.81559 11.0245 6.34786V22.0091C9.44107 20.0298 7.89474 18.0752 7.6597 17.7412C7.30194 17.1731 6.80517 16.7057 6.21637 16.3832C5.62758 16.0606 4.96623 15.8936 4.29489 15.898C3.72546 15.8808 3.15854 15.9804 2.62913 16.1909C2.09972 16.4013 1.61906 16.718 1.2168 17.1214C0.814552 17.5248 0.49925 18.0064 0.290361 18.5364C0.0814715 19.0664 -0.0165713 19.6336 0.0022842 20.203C0.11362 22.4297 4.4186 30.2974 7.31332 34.5776C11.6925 41.0598 15.8738 42 16.0594 42H29.0733C29.3195 41.9973 29.5582 41.9149 29.7536 41.765C31.9751 39.7178 33.5816 37.0917 34.3926 34.1818C35.6297 30.3592 36.2853 24.8667 36.3472 17.4072L36.3348 10.5415ZM32.2772 33.489C31.5826 35.8435 30.3357 37.998 28.6403 39.7733H16.381C15.7996 39.6001 12.5832 38.4125 9.11944 33.2787C5.65566 28.1449 2.29085 21.3039 2.229 20.0916C2.21903 19.8327 2.26341 19.5745 2.35929 19.3337C2.45517 19.093 2.60042 18.875 2.78568 18.6937C2.96816 18.5059 3.18786 18.3583 3.43071 18.2603C3.67356 18.1623 3.93419 18.1161 4.19593 18.1247C4.52272 18.1057 4.84839 18.1777 5.13668 18.3328C5.42497 18.4878 5.66458 18.7199 5.82885 19.003C6.1876 19.5349 8.74832 22.7142 10.2452 24.6069L13.2512 22.5781V6.34786C13.2304 6.09561 13.2622 5.84179 13.3444 5.60242C13.4267 5.36306 13.5577 5.14336 13.7292 4.95718C13.9006 4.771 14.1088 4.6224 14.3406 4.52076C14.5724 4.41911 14.8228 4.36663 15.0759 4.36663C15.329 4.36663 15.5794 4.41911 15.8111 4.52076C16.0429 4.6224 16.2512 4.771 16.4226 4.95718C16.5941 5.14336 16.7251 5.36306 16.8073 5.60242C16.8896 5.84179 16.9213 6.09561 16.9006 6.34786V20.1287H19.1273V4.04692C19.1799 3.5917 19.3981 3.17172 19.7402 2.86687C20.0824 2.56202 20.5246 2.39358 20.9829 2.39358C21.4411 2.39358 21.8834 2.56202 22.2255 2.86687C22.5677 3.17172 22.7858 3.5917 22.8385 4.04692V20.2896H25.0652V7.36225C25.0447 7.11834 25.0751 6.87284 25.1544 6.64128C25.2337 6.40971 25.3602 6.19713 25.5259 6.01697C25.6916 5.83681 25.8929 5.69299 26.117 5.59462C26.3411 5.49624 26.5832 5.44545 26.828 5.44545C27.0728 5.44545 27.3149 5.49624 27.539 5.59462C27.7631 5.69299 27.9644 5.83681 28.1301 6.01697C28.2958 6.19713 28.4223 6.40971 28.5016 6.64128C28.5809 6.87284 28.6113 7.11834 28.5908 7.36225V21.5142H30.8175V10.5044C30.8532 10.0942 31.0413 9.71238 31.3448 9.43417C31.6482 9.15596 32.0449 9.00162 32.4566 9.00162C32.8683 9.00162 33.265 9.15596 33.5685 9.43417C33.8719 9.71238 34.0601 10.0942 34.0957 10.5044V17.3701C34.0586 24.6811 33.4648 29.8892 32.2772 33.489V33.489Z" fill="white"/>
</svg>
