<svg width="42" height="46" viewBox="0 0 42 46" fill="none" xmlns="http://www.w3.org/2000/svg">
<path d="M2.00669 23.9735C1.94638 23.1511 2.30823 22.5081 2.51499 22.1548C4.03129 19.5484 5.3839 18.1554 6.28564 16.7219C7.58655 14.6512 6.6963 14.4833 8.09773 11.5148C8.61465 10.423 9.73751 8.10042 12.0637 6.03556C14.5966 3.78535 17.2242 3.01501 18.3557 2.69934C19.8002 2.2939 24.8143 0.970413 30.176 3.55946C36.692 6.70744 38.5816 13.1598 38.8688 14.1995C38.9808 14.602 41.3098 23.487 36.8729 27.7847C35.0666 29.5368 32.7519 29.9306 31.8387 32.5631C31.54 33.4261 31.5142 34.46 31.5056 36.5046C31.4826 41.5032 32.2465 42.0244 31.6348 43.012C30.6929 44.5324 28.697 43.7968 19.3063 43.9706C15.079 44.0488 13.356 43.9793 12.7184 42.818C11.9373 41.3989 13.6833 39.6642 12.7155 38.1351C11.9631 36.9448 10.6766 37.6341 9.01957 36.3714C7.20748 34.99 6.43497 32.401 6.3402 30.5272C6.24543 28.6419 6.89733 27.5096 6.18225 26.8782C5.52462 26.2961 4.62862 26.9477 3.54883 26.357C2.6873 25.8878 2.07848 24.9205 2.00669 23.9735Z" stroke="#FFFDFD" stroke-width="3" stroke-miterlimit="10"/>
</svg>
