<svg width="47" height="44" viewBox="0 0 47 44" fill="none" xmlns="http://www.w3.org/2000/svg">
<path d="M46.0253 21.6468L25.9937 1.80123L24.651 0.470318C24.345 0.169071 23.9313 0 23.5001 0C23.0689 0 22.6551 0.169071 22.3492 0.470318L0.97484 21.6468C0.661359 21.9563 0.413609 22.3249 0.246215 22.7309C0.0788212 23.1369 -0.00482454 23.572 0.000214883 24.0106C0.0209516 25.8194 1.53992 27.2633 3.36475 27.2633H5.56802V44H41.4322V27.2633H43.6821C44.5686 27.2633 45.4032 26.9191 46.0305 26.2973C46.3394 25.9921 46.5841 25.6292 46.7505 25.2296C46.9169 24.8301 47.0017 24.4017 47 23.9695C47 23.0959 46.6526 22.2686 46.0253 21.6468ZM26.4032 40.3002H20.597V29.8173H26.4032V40.3002ZM37.6996 23.5635V40.3002H29.7211V28.584C29.7211 27.4483 28.7931 26.5285 27.6474 26.5285H19.3528C18.207 26.5285 17.2791 27.4483 17.2791 28.584V40.3002H9.30063V23.5635H4.32382L23.5053 4.56584L24.7028 5.75287L42.6816 23.5635H37.6996Z" fill="white"/>
</svg>
