<svg width="32" height="42" viewBox="0 0 32 42" fill="none" xmlns="http://www.w3.org/2000/svg">
<path fill-rule="evenodd" clip-rule="evenodd" d="M15.9291 8.40004C16.7703 8.40004 17.5771 8.06816 18.1719 7.47742C18.7668 6.88668 19.101 6.08546 19.101 5.25002C19.101 4.41459 18.7668 3.61337 18.1719 3.02263C17.5771 2.43189 16.7703 2.10001 15.9291 2.10001C15.0878 2.10001 14.281 2.43189 13.6862 3.02263C13.0914 3.61337 12.7572 4.41459 12.7572 5.25002C12.7572 6.08546 13.0914 6.88668 13.6862 7.47742C14.281 8.06816 15.0878 8.40004 15.9291 8.40004ZM15.9291 10.5C17.3311 10.5 18.6758 9.94692 19.6672 8.96235C20.6586 7.97778 21.2155 6.64242 21.2155 5.25002C21.2155 3.85763 20.6586 2.52227 19.6672 1.5377C18.6758 0.553126 17.3311 0 15.9291 0C14.527 0 13.1824 0.553126 12.191 1.5377C11.1995 2.52227 10.6426 3.85763 10.6426 5.25002C10.6426 6.64242 11.1995 7.97778 12.191 8.96235C13.1824 9.94692 14.527 10.5 15.9291 10.5V10.5Z" fill="white"/>
<path fill-rule="evenodd" clip-rule="evenodd" d="M8.92362 15.0296C9.40738 15.121 9.84383 15.3773 10.1577 15.7541C10.4715 16.131 10.6431 16.6048 10.6428 17.0939V38.85C10.6428 39.1285 10.7542 39.3955 10.9525 39.5924C11.1507 39.7894 11.4197 39.9 11.7001 39.9H11.7921C12.056 39.9 12.3104 39.802 12.5053 39.6252C12.7002 39.4483 12.8214 39.2055 12.8451 38.9445L13.8147 28.3499C13.8147 27.793 14.0375 27.2588 14.434 26.865C14.8306 26.4712 15.3684 26.2499 15.9293 26.2499C16.4901 26.2499 17.0279 26.4712 17.4245 26.865C17.8211 27.2588 18.0439 27.793 18.0439 28.3499L19.0134 38.9445C19.0372 39.2055 19.1584 39.4483 19.3532 39.6252C19.5481 39.802 19.8025 39.9 20.0665 39.9H20.1585C20.4389 39.9 20.7078 39.7894 20.9061 39.5924C21.1044 39.3955 21.2158 39.1285 21.2158 38.85V17.1327C21.2157 16.6439 21.3874 16.1703 21.7012 15.7936C22.015 15.417 22.4513 15.1609 22.9349 15.0695C24.7915 14.7188 26.7549 14.2326 28.9129 13.6079C29.0462 13.5693 29.1705 13.505 29.2788 13.4186C29.387 13.3323 29.4771 13.2256 29.5439 13.1047C29.6106 12.9838 29.6528 12.8511 29.6679 12.714C29.683 12.5769 29.6707 12.4382 29.6318 12.3059C29.593 12.1735 29.5282 12.05 29.4413 11.9425C29.3544 11.835 29.247 11.7455 29.1252 11.6792C29.0035 11.6129 28.8698 11.5711 28.7317 11.5561C28.5937 11.5411 28.4541 11.5532 28.3208 11.5919C23.4213 13.0094 19.6615 13.6667 15.9335 13.6499C12.2012 13.6331 8.43726 12.9422 3.524 11.5887C3.38929 11.5488 3.24791 11.536 3.10815 11.551C2.96839 11.566 2.83304 11.6086 2.71004 11.6762C2.58703 11.7437 2.47883 11.835 2.39176 11.9446C2.3047 12.0542 2.24052 12.18 2.20298 12.3145C2.16544 12.4491 2.15529 12.5897 2.17313 12.7282C2.19096 12.8666 2.23643 13.0002 2.30687 13.121C2.3773 13.2418 2.47129 13.3475 2.58333 13.4318C2.69538 13.5161 2.82323 13.5774 2.95941 13.6121C5.10889 14.2043 7.06806 14.6789 8.92362 15.0296V15.0296ZM14.8487 39.6931C14.6631 40.3566 14.2638 40.9413 13.7117 41.358C13.1597 41.7746 12.4854 42.0001 11.7921 42H11.7001C10.8588 42 10.0521 41.6681 9.45721 41.0774C8.86237 40.4866 8.52819 39.6854 8.52819 38.85V17.0939C6.59757 16.7285 4.57919 16.2371 2.39375 15.6344C1.98403 15.5314 1.59916 15.3482 1.26176 15.0954C0.924348 14.8426 0.641207 14.5255 0.428966 14.1625C0.216724 13.7995 0.0796624 13.3981 0.0258328 12.9818C-0.0279968 12.5655 0.00249116 12.1427 0.115505 11.7383C0.22852 11.3339 0.421782 10.9559 0.683937 10.6267C0.946092 10.2975 1.27185 10.0236 1.64209 9.82119C2.01232 9.61875 2.41955 9.49184 2.83987 9.44791C3.26018 9.40397 3.6851 9.4439 4.08966 9.56534C8.9215 10.8957 12.4793 11.5341 15.943 11.5499C19.3961 11.5646 22.9402 10.9619 27.7298 9.57584C28.1315 9.45367 28.5537 9.41199 28.9719 9.45323C29.39 9.49446 29.7957 9.61779 30.1654 9.81605C30.5352 10.0143 30.8615 10.2835 31.1256 10.6081C31.3897 10.9327 31.5862 11.3062 31.7037 11.7068C31.8212 12.1074 31.8574 12.5273 31.8102 12.9419C31.763 13.3565 31.6333 13.7577 31.4286 14.1222C31.2239 14.4866 30.9484 14.807 30.618 15.0648C30.2876 15.3226 29.9089 15.5126 29.5039 15.6239C27.3005 16.2623 25.2694 16.7663 23.3303 17.1327V38.85C23.3303 39.6854 22.9962 40.4866 22.4013 41.0774C21.8065 41.6681 20.9997 42 20.1585 42H20.0665C19.275 42.0001 18.512 41.7063 17.9275 41.1763C17.3429 40.6463 16.979 39.9184 16.9073 39.1356L15.9377 28.541C15.9322 28.4792 15.9294 28.4172 15.9293 28.3552C15.9293 28.4171 15.9261 28.478 15.9208 28.54L14.9502 39.1345C14.9331 39.3233 14.8991 39.5103 14.8487 39.6931V39.6931Z" fill="white"/>
</svg>
