<svg width="42" height="42" viewBox="0 0 42 42" fill="none" xmlns="http://www.w3.org/2000/svg">
<path fill-rule="evenodd" clip-rule="evenodd" d="M21 7.35C13.461 7.35 7.35 13.461 7.35 21C7.35 28.539 13.461 34.65 21 34.65C28.539 34.65 34.65 28.539 34.65 21C34.65 13.461 28.539 7.35 21 7.35ZM5.25 21C5.25 12.3018 12.3018 5.25 21 5.25C29.6982 5.25 36.75 12.3018 36.75 21C36.75 29.6982 29.6982 36.75 21 36.75C12.3018 36.75 5.25 29.6982 5.25 21Z" fill="white"/>
<path d="M18.8997 24.1499C18.8997 23.593 18.6785 23.0588 18.2846 22.665C17.8908 22.2712 17.3567 22.0499 16.7997 22.0499C16.2428 22.0499 15.7086 22.2712 15.3148 22.665C14.921 23.0588 14.6997 23.593 14.6997 24.1499C14.6997 24.7069 14.921 25.241 15.3148 25.6349C15.7086 26.0287 16.2428 26.2499 16.7997 26.2499C17.3567 26.2499 17.8908 26.0287 18.2846 25.6349C18.6785 25.241 18.8997 24.7069 18.8997 24.1499Z" fill="white"/>
<path d="M22.0501 15.7501C22.0501 15.1931 21.8288 14.659 21.435 14.2652C21.0412 13.8713 20.5071 13.6501 19.9501 13.6501C19.3931 13.6501 18.859 13.8713 18.4652 14.2652C18.0713 14.659 17.8501 15.1931 17.8501 15.7501C17.8501 16.307 18.0713 16.8412 18.4652 17.235C18.859 17.6288 19.3931 17.8501 19.9501 17.8501C20.5071 17.8501 21.0412 17.6288 21.435 17.235C21.8288 16.8412 22.0501 16.307 22.0501 15.7501Z" fill="white"/>
<path d="M28.3499 23.1C28.3499 22.543 28.1287 22.0089 27.7348 21.6151C27.341 21.2212 26.8069 21 26.2499 21C25.6929 21 25.1588 21.2212 24.765 21.6151C24.3712 22.0089 24.1499 22.543 24.1499 23.1C24.1499 23.657 24.3712 24.1911 24.765 24.5849C25.1588 24.9788 25.6929 25.2 26.2499 25.2C26.8069 25.2 27.341 24.9788 27.7348 24.5849C28.1287 24.1911 28.3499 23.657 28.3499 23.1Z" fill="white"/>
<path fill-rule="evenodd" clip-rule="evenodd" d="M17.8501 1.05C17.8501 0.771523 17.9607 0.504451 18.1576 0.307538C18.3545 0.110625 18.6216 0 18.9001 0H23.1001C23.3786 0 23.6456 0.110625 23.8426 0.307538C24.0395 0.504451 24.1501 0.771523 24.1501 1.05C24.1501 1.32848 24.0395 1.59555 23.8426 1.79246C23.6456 1.98938 23.3786 2.1 23.1001 2.1H22.0501V8.4C22.0501 8.67848 21.9395 8.94555 21.7426 9.14246C21.5456 9.33937 21.2786 9.45 21.0001 9.45C20.7216 9.45 20.4545 9.33937 20.2576 9.14246C20.0607 8.94555 19.9501 8.67848 19.9501 8.4V2.1H18.9001C18.6216 2.1 18.3545 1.98938 18.1576 1.79246C17.9607 1.59555 17.8501 1.32848 17.8501 1.05Z" fill="white"/>
<path fill-rule="evenodd" clip-rule="evenodd" d="M21.0001 32.5499C21.2786 32.5499 21.5456 32.6606 21.7426 32.8575C21.9395 33.0544 22.0501 33.3214 22.0501 33.5999V39.8999H23.1001C23.3786 39.8999 23.6456 40.0106 23.8426 40.2075C24.0395 40.4044 24.1501 40.6714 24.1501 40.9499C24.1501 41.2284 24.0395 41.4955 23.8426 41.6924C23.6456 41.8893 23.3786 41.9999 23.1001 41.9999H18.9001C18.6216 41.9999 18.3545 41.8893 18.1576 41.6924C17.9607 41.4955 17.8501 41.2284 17.8501 40.9499C17.8501 40.6714 17.9607 40.4044 18.1576 40.2075C18.3545 40.0106 18.6216 39.8999 18.9001 39.8999H19.9501V33.5999C19.9501 33.3214 20.0607 33.0544 20.2576 32.8575C20.4545 32.6606 20.7216 32.5499 21.0001 32.5499Z" fill="white"/>
<path fill-rule="evenodd" clip-rule="evenodd" d="M9.12036 37.3338C8.92345 37.5307 8.65643 37.6413 8.37801 37.6413C8.09958 37.6413 7.83256 37.5307 7.63566 37.3338L4.66626 34.3644C4.56597 34.2676 4.48598 34.1517 4.43095 34.0236C4.37592 33.8955 4.34695 33.7577 4.34574 33.6183C4.34453 33.4789 4.3711 33.3406 4.42389 33.2116C4.47669 33.0825 4.55465 32.9653 4.65324 32.8667C4.75183 32.7681 4.86906 32.6902 4.9981 32.6374C5.12715 32.5846 5.26541 32.558 5.40483 32.5592C5.54425 32.5604 5.68203 32.5894 5.81013 32.6444C5.93823 32.6994 6.0541 32.7794 6.15096 32.8797L6.89331 33.6221L11.3485 29.1669C11.4453 29.0666 11.5612 28.9866 11.6893 28.9316C11.8174 28.8766 11.9552 28.8476 12.0946 28.8464C12.234 28.8452 12.3723 28.8718 12.5013 28.9246C12.6303 28.9774 12.7476 29.0553 12.8462 29.1539C12.9448 29.2525 13.0227 29.3697 13.0755 29.4988C13.1283 29.6278 13.1549 29.7661 13.1537 29.9055C13.1525 30.0449 13.1235 30.1827 13.0685 30.3108C13.0134 30.4389 12.9334 30.5548 12.8332 30.6516L8.37801 35.1068L9.12036 35.8491C9.3172 36.046 9.42778 36.3131 9.42778 36.5915C9.42778 36.8699 9.3172 37.1369 9.12036 37.3338V37.3338Z" fill="white"/>
<path fill-rule="evenodd" clip-rule="evenodd" d="M29.1673 12.833C29.0697 12.7355 28.9923 12.6197 28.9394 12.4922C28.8866 12.3647 28.8594 12.2281 28.8594 12.0901C28.8594 11.9521 28.8866 11.8155 28.9394 11.688C28.9923 11.5605 29.0697 11.4447 29.1673 11.3472L33.6225 6.89312L32.8801 6.15077C32.7798 6.05391 32.6998 5.93805 32.6448 5.80995C32.5898 5.68184 32.5608 5.54406 32.5596 5.40464C32.5584 5.26523 32.585 5.12696 32.6378 4.99792C32.6906 4.86888 32.7685 4.75165 32.8671 4.65306C32.9657 4.55447 33.0829 4.47651 33.212 4.42371C33.341 4.37092 33.4793 4.34435 33.6187 4.34556C33.7581 4.34677 33.8959 4.37574 34.024 4.43077C34.1521 4.4858 34.268 4.56579 34.3648 4.66607L37.3342 7.63547C37.5255 7.83351 37.6313 8.09874 37.6289 8.37404C37.6265 8.64935 37.5161 8.9127 37.3214 9.10738C37.1268 9.30206 36.8634 9.41249 36.5881 9.41488C36.3128 9.41727 36.0476 9.31144 35.8495 9.12017L35.1072 8.37782L30.652 12.833C30.4551 13.0298 30.1881 13.1404 29.9097 13.1404C29.6313 13.1404 29.3642 13.0298 29.1673 12.833V12.833Z" fill="white"/>
<path fill-rule="evenodd" clip-rule="evenodd" d="M4.66631 9.12017C4.46947 8.92327 4.35889 8.65625 4.35889 8.37782C4.35889 8.0994 4.46947 7.83238 4.66631 7.63547L7.63571 4.66607C7.73257 4.56579 7.84843 4.4858 7.97654 4.43077C8.10464 4.37574 8.24242 4.34677 8.38184 4.34556C8.52126 4.34435 8.65952 4.37092 8.78856 4.42371C8.91761 4.47651 9.03484 4.55447 9.13343 4.65306C9.23201 4.75165 9.30998 4.86888 9.36277 4.99792C9.41557 5.12696 9.44214 5.26523 9.44092 5.40464C9.43971 5.54406 9.41075 5.68184 9.35572 5.80995C9.30069 5.93805 9.2207 6.05391 9.12041 6.15077L8.37806 6.89312L12.8332 11.3483C13.0245 11.5463 13.1303 11.8115 13.1279 12.0868C13.1255 12.3622 13.0151 12.6255 12.8204 12.8202C12.6257 13.0149 12.3624 13.1253 12.0871 13.1277C11.8118 13.1301 11.5465 13.0242 11.3485 12.833L6.89336 8.37782L6.15101 9.12017C5.95411 9.31702 5.68708 9.4276 5.40866 9.4276C5.13024 9.4276 4.86322 9.31702 4.66631 9.12017V9.12017Z" fill="white"/>
<path fill-rule="evenodd" clip-rule="evenodd" d="M29.1673 29.1668C29.3642 28.97 29.6313 28.8594 29.9097 28.8594C30.1881 28.8594 30.4551 28.97 30.652 29.1668L35.1072 33.6219L35.8495 32.8796C35.9464 32.7793 36.0622 32.6993 36.1904 32.6443C36.3185 32.5893 36.4562 32.5603 36.5957 32.5591C36.7351 32.5579 36.8733 32.5844 37.0024 32.6372C37.1314 32.69 37.2487 32.768 37.3472 32.8666C37.4458 32.9652 37.5238 33.0824 37.5766 33.2114C37.6294 33.3405 37.656 33.4788 37.6547 33.6182C37.6535 33.7576 37.6246 33.8954 37.5695 34.0235C37.5145 34.1516 37.4345 34.2674 37.3342 34.3643L34.3648 37.3337C34.1668 37.525 33.9016 37.6308 33.6263 37.6284C33.3509 37.626 33.0876 37.5156 32.8929 37.3209C32.6982 37.1262 32.5878 36.8629 32.5854 36.5876C32.583 36.3123 32.6889 36.047 32.8801 35.849L33.6225 35.1067L29.1673 30.6526C29.0697 30.555 28.9923 30.4392 28.9394 30.3118C28.8866 30.1843 28.8594 30.0477 28.8594 29.9097C28.8594 29.7717 28.8866 29.6351 28.9394 29.5076C28.9923 29.3801 29.0697 29.2643 29.1673 29.1668V29.1668Z" fill="white"/>
<path fill-rule="evenodd" clip-rule="evenodd" d="M1.05 24.1499C0.771523 24.1499 0.504451 24.0393 0.307538 23.8424C0.110625 23.6455 0 23.3784 0 23.0999V18.8999C0 18.6214 0.110625 18.3544 0.307538 18.1575C0.504451 17.9605 0.771523 17.8499 1.05 17.8499C1.32848 17.8499 1.59555 17.9605 1.79246 18.1575C1.98938 18.3544 2.1 18.6214 2.1 18.8999V19.9499H8.4C8.67848 19.9499 8.94555 20.0605 9.14246 20.2575C9.33937 20.4544 9.45 20.7214 9.45 20.9999C9.45 21.2784 9.33937 21.5455 9.14246 21.7424C8.94555 21.9393 8.67848 22.0499 8.4 22.0499H2.1V23.0999C2.1 23.3784 1.98938 23.6455 1.79246 23.8424C1.59555 24.0393 1.32848 24.1499 1.05 24.1499Z" fill="white"/>
<path fill-rule="evenodd" clip-rule="evenodd" d="M32.5503 20.9999C32.5503 20.7214 32.6609 20.4544 32.8578 20.2575C33.0547 20.0605 33.3218 19.9499 33.6003 19.9499H39.9003V18.8999C39.9003 18.6214 40.0109 18.3544 40.2078 18.1575C40.4047 17.9605 40.6718 17.8499 40.9503 17.8499C41.2288 17.8499 41.4958 17.9605 41.6928 18.1575C41.8897 18.3544 42.0003 18.6214 42.0003 18.8999V23.0999C42.0003 23.3784 41.8897 23.6455 41.6928 23.8424C41.4958 24.0393 41.2288 24.1499 40.9503 24.1499C40.6718 24.1499 40.4047 24.0393 40.2078 23.8424C40.0109 23.6455 39.9003 23.3784 39.9003 23.0999V22.0499H33.6003C33.3218 22.0499 33.0547 21.9393 32.8578 21.7424C32.6609 21.5455 32.5503 21.2784 32.5503 20.9999Z" fill="white"/>
</svg>
