<svg width="25" height="42" viewBox="0 0 25 42" fill="none" xmlns="http://www.w3.org/2000/svg">
<path fill-rule="evenodd" clip-rule="evenodd" d="M9.16881 0.819C9.2225 0.586592 9.35555 0.378918 9.54611 0.230088C9.73667 0.081257 9.97341 0.000119099 10.2174 0H23.6615C23.8147 3.73499e-05 23.9661 0.0320298 24.1056 0.0938353C24.2451 0.155641 24.3695 0.245833 24.4704 0.358373C24.5713 0.470912 24.6465 0.603202 24.6908 0.746384C24.7351 0.889567 24.7475 1.04034 24.7273 1.1886C24.154 5.38545 21.6083 9.7566 19.3024 13.0011C18.0722 14.7271 16.744 16.3845 15.324 17.9655L16.1629 19.2748C17.2034 20.9006 17.7127 22.7968 17.6235 24.7117L17.2255 33.2325L18.8786 35.1141C19.5153 35.838 19.8757 36.7549 19.8985 37.7088C19.9212 38.6628 19.605 39.595 19.0035 40.3471C18.402 41.0992 17.5524 41.6248 16.5989 41.8346C15.6454 42.0445 14.647 41.9256 13.7731 41.4981L13.7086 41.4655C13.084 41.1603 12.3749 41.0612 11.6877 41.1831L7.37485 41.9496C7.18427 41.9833 6.99097 42.0002 6.79729 42H3.22656C2.37082 42 1.55014 41.6681 0.945038 41.0774C0.33994 40.4866 0 39.6854 0 38.85V37.8C0 37.5215 0.113314 37.2544 0.315013 37.0575C0.516712 36.8606 0.790275 36.75 1.07552 36.75H4.10204L9.93674 34.5597L5.79168 22.87C5.5174 22.0963 5.37744 21.2833 5.3776 20.4645V18.0264C5.3776 17.4814 5.43998 16.9386 5.56259 16.4073L9.16881 0.819ZM13.1988 17.1297L13.2031 17.1266L13.2192 17.1087C13.3308 16.9904 13.4416 16.8714 13.5516 16.7517C13.7817 16.4997 14.1151 16.129 14.5185 15.6586C15.582 14.4187 16.5883 13.1329 17.5342 11.8051C19.5583 8.9565 21.604 5.439 22.3751 2.1H11.0779L7.66201 16.8714C7.57382 17.2507 7.52909 17.6385 7.52865 18.0274V20.4655C7.52869 21.0499 7.62865 21.6301 7.82441 22.1823L12.3093 34.8316C12.4004 35.0889 12.3856 35.3707 12.268 35.6175C12.1505 35.8643 11.9393 36.0569 11.6791 36.1546L4.68819 38.7796C4.565 38.826 4.43412 38.8499 4.30208 38.85H2.15104C2.15104 39.1285 2.26436 39.3955 2.46605 39.5925C2.66775 39.7894 2.94132 39.9 3.22656 39.9H6.79729C6.86182 39.9 6.92635 39.8947 6.98873 39.8832L11.3026 39.1167C12.4474 38.9139 13.6286 39.0789 14.669 39.5871L14.7357 39.6186C15.1653 39.8284 15.656 39.8865 16.1245 39.7832C16.593 39.6799 17.0104 39.4215 17.3059 39.0519C17.6015 38.6823 17.7569 38.2242 17.7457 37.7554C17.7346 37.2866 17.5576 36.836 17.2449 36.4801L15.3165 34.2835C15.1384 34.0809 15.0461 33.8195 15.0584 33.5528L15.4746 24.6172C15.5441 23.1271 15.1476 21.6517 14.3378 20.3868L13.0697 18.4065C12.9438 18.2096 12.8882 17.9776 12.9116 17.7466C12.9349 17.5157 13.0359 17.2987 13.1988 17.1297V17.1297Z" fill="white"/>
</svg>
