<svg width="42" height="42" viewBox="0 0 42 42" fill="none" xmlns="http://www.w3.org/2000/svg">
<path fill-rule="evenodd" clip-rule="evenodd" d="M22.6607 0.729307C22.7232 0.877503 22.7578 1.03743 22.7626 1.19995C22.7673 1.36248 22.7422 1.52441 22.6885 1.67652C22.6348 1.82862 22.5537 1.96791 22.4498 2.08643C22.3458 2.20495 22.2211 2.30039 22.0827 2.36728C21.0698 2.85511 20.2095 3.6451 19.6047 4.64278C19 5.64047 18.6763 6.80361 18.6725 7.99309V8.03643C18.6774 9.61876 19.2478 11.139 20.2667 12.2849C21.2855 13.4308 22.6754 14.1154 24.1509 14.198C25.6263 14.2805 27.0752 13.7548 28.2 12.7289C29.3248 11.703 30.0401 10.2546 30.1989 8.68146C30.2151 8.51977 30.2608 8.36307 30.3336 8.22031C30.4063 8.07756 30.5045 7.95154 30.6227 7.84945C30.7409 7.74736 30.8767 7.6712 31.0224 7.62532C31.168 7.57944 31.3207 7.56474 31.4717 7.58205C31.6227 7.59937 31.769 7.64836 31.9023 7.72624C32.0356 7.80411 32.1532 7.90934 32.2485 8.03592C32.3439 8.1625 32.415 8.30794 32.4578 8.46395C32.5006 8.61996 32.5144 8.78348 32.4982 8.94517C32.3203 10.7265 31.6295 12.4044 30.5215 13.7464C32.2268 14.1589 33.7614 15.1519 34.8957 16.5767C34.9944 16.7002 35.0694 16.8434 35.1164 16.998C35.1634 17.1526 35.1815 17.3156 35.1697 17.4777C35.1579 17.6398 35.1164 17.7978 35.0476 17.9428C34.9788 18.0877 34.884 18.2167 34.7686 18.3224C34.6532 18.428 34.5195 18.5083 34.3752 18.5587C34.2308 18.609 34.0786 18.6284 33.9273 18.6158C33.7759 18.6032 33.6284 18.5587 33.4931 18.485C33.3577 18.4113 33.2373 18.3097 33.1386 18.1862C32.2187 17.0276 30.9327 16.2724 29.526 16.0644C28.1194 15.8564 26.6904 16.2103 25.5118 17.0586C24.3332 17.9069 23.4874 19.1901 23.1357 20.6636C22.7841 22.1371 22.9512 23.6976 23.6052 25.0476C24.0634 24.9816 24.5299 25.0388 24.9623 25.2141C25.3948 25.3894 25.7798 25.6772 26.0824 26.0517C26.3761 26.4156 26.6408 26.7858 26.8801 27.1622C27.2569 27.7485 27.4247 28.4603 27.3529 29.1679C27.8789 29.5183 28.3008 30.0568 28.517 30.7341C28.7748 31.5413 28.9701 32.3225 29.1331 33.0034C29.2555 33.5127 29.2495 34.0476 29.1158 34.5535C29.4186 34.8383 29.6683 35.1973 29.8371 35.622C29.955 35.9154 30.0359 36.0206 30.0568 36.0429C30.1342 36.1023 30.2093 36.1667 30.2799 36.2323C30.496 36.142 30.7261 36.0788 30.9665 36.0466C31.1734 36.0219 31.4127 35.9785 31.6902 35.9129C32.1463 35.8062 32.6201 35.824 33.0681 35.9646C33.5161 36.1052 33.924 36.3642 34.2542 36.7177C34.7501 36.3982 35.1142 35.9228 35.2946 35.3372C35.5258 34.5919 35.5049 33.516 34.8414 32.138C34.7008 31.8461 34.6743 31.5064 34.7676 31.1935C34.861 30.8806 35.0665 30.6203 35.3391 30.4697C35.6116 30.3192 35.9289 30.2907 36.221 30.3907C36.5131 30.4907 36.7562 30.7108 36.8968 31.0027C37.3673 31.9808 37.6366 32.9415 37.7164 33.8528C38.4215 32.9564 39.1637 31.7456 39.7717 30.1484C39.8286 29.9972 39.9128 29.8595 40.0195 29.7432C40.1262 29.627 40.2532 29.5344 40.3934 29.4708C40.5336 29.4073 40.6841 29.374 40.8363 29.3729C40.9885 29.3719 41.1394 29.403 41.2804 29.4645C41.4214 29.5261 41.5496 29.6168 41.6577 29.7316C41.7658 29.8463 41.8517 29.9828 41.9105 30.1332C41.9692 30.2836 41.9996 30.4449 42 30.608C42.0004 30.771 41.9707 30.9325 41.9126 31.0832C41.189 32.9836 40.2908 34.4384 39.4249 35.5242C39.9879 35.5947 40.5809 35.7433 41.2213 35.9823C41.5111 36.09 41.749 36.3165 41.8827 36.6121C42.0165 36.9077 42.0351 37.248 41.9346 37.5583C41.834 37.8686 41.6225 38.1234 41.3465 38.2667C41.0705 38.4099 40.7527 38.4299 40.463 38.3222C39.3139 37.8938 38.4955 37.8765 37.7002 38.0548C36.958 38.2195 36.2274 38.5451 35.209 39.0019L35.0634 39.0675C35.0158 39.7067 34.7774 40.3126 34.3836 40.7955C33.9897 41.2784 33.4612 41.6128 32.8762 41.7492C32.4497 41.8483 32.0347 41.9263 31.6312 41.9782C31.2422 42.0289 30.8476 41.9909 30.4732 41.8667C30.0989 41.7425 29.7533 41.535 29.4591 41.2577C29.029 41.4386 28.5637 41.502 28.105 41.4424C27.6463 41.3827 27.2087 41.2018 26.8315 40.916C25.7287 40.0828 25.1033 38.9549 24.7091 37.9694C24.4577 37.3426 24.4152 36.6423 24.5889 35.986C24.1673 35.5895 23.8678 35.0654 23.73 34.4829C23.59 33.8729 23.4273 33.269 23.2422 32.6729C23.1089 32.2596 23.0623 31.82 23.1058 31.3853C22.7879 31.1736 22.5046 30.8888 22.2792 30.536C22.1519 30.3367 22.0141 30.1453 21.8665 29.9627C21.4859 29.4921 21.252 28.9057 21.1977 28.2857C21.1434 27.6658 21.2714 27.0431 21.5637 26.5048C20.4843 25.3679 19.0304 24.7319 17.5165 24.7343C15.6669 24.7343 14.0208 25.6629 12.9631 27.1114C12.8843 27.2333 12.8025 27.3531 12.718 27.4705C12.0762 28.4911 11.7343 29.6942 11.7366 30.9247C11.7366 32.1046 12.0441 33.2028 12.577 34.14C12.7303 34.4202 12.7747 34.7536 12.7006 35.0685C12.6265 35.3834 12.4398 35.6546 12.1808 35.8234C11.9218 35.9923 11.6113 36.0455 11.316 35.9714C11.0208 35.8974 10.7646 35.7021 10.6025 35.4276C9.70696 33.8555 9.30432 32.0178 9.45348 30.1831C7.93777 30.8693 6.26321 31.0464 4.65149 30.6907C4.35118 30.6244 4.08778 30.433 3.91923 30.1587C3.75067 29.8844 3.69077 29.5496 3.7527 29.2279C3.81463 28.9063 3.99332 28.6242 4.24946 28.4437C4.5056 28.2632 4.8182 28.199 5.11851 28.2653C6.17416 28.5011 7.27038 28.4154 8.28282 28.0177C9.29526 27.6201 10.1834 26.9266 10.8465 26.0158C10.9251 25.8932 11.0071 25.7731 11.0915 25.6567C11.9071 24.3584 12.2333 22.7775 12.0045 21.2321C11.7758 19.6866 11.009 18.2913 9.85856 17.3268C8.70811 16.3622 7.25928 15.9001 5.80358 16.0334C4.34787 16.1667 2.99329 16.8854 2.01235 18.045C1.80617 18.2882 1.51825 18.4336 1.21192 18.4494C0.905598 18.4652 0.605963 18.35 0.378934 18.1292C0.151905 17.9084 0.0160798 17.6 0.00133803 17.2719C-0.0134037 16.9439 0.0941454 16.623 0.300326 16.3798C1.41766 15.0589 2.8883 14.1392 4.51161 13.7464C3.43931 12.4473 2.75696 10.8325 2.55336 9.11231C2.51933 8.78892 2.60556 8.46419 2.79339 8.20838C2.98121 7.95256 3.25553 7.78624 3.55699 7.74539C3.85845 7.70454 4.1628 7.79246 4.40419 7.99012C4.64558 8.18778 4.8046 8.47928 4.84685 8.80156C5.03622 10.3581 5.77054 11.7795 6.90127 12.7783C8.03199 13.777 9.47469 14.2785 10.9375 14.1813C12.4004 14.0841 13.7741 13.3954 14.7809 12.2546C15.7877 11.1139 16.3523 9.60612 16.3605 8.03643V7.99309C16.3571 6.82338 16.0443 5.67865 15.4583 4.69152C14.8724 3.70439 14.0373 2.91526 13.0498 2.41556C12.9117 2.3466 12.7878 2.2491 12.685 2.12867C12.5823 2.00823 12.5028 1.86724 12.4511 1.71378C12.3994 1.56033 12.3765 1.39745 12.3838 1.2345C12.391 1.07155 12.4283 0.911749 12.4934 0.764273C12.5585 0.616797 12.6502 0.484557 12.7632 0.375155C12.8762 0.265753 13.0083 0.181345 13.1518 0.126783C13.2954 0.0722211 13.4476 0.0485799 13.5997 0.0572194C13.7518 0.0658589 13.9008 0.106609 14.0382 0.177126C15.4818 0.910237 16.6917 2.08286 17.5165 3.5484C18.368 2.03551 19.6292 0.835922 21.1325 0.109032C21.412 -0.0256472 21.7299 -0.0359646 22.0165 0.0803479C22.3031 0.19666 22.5348 0.430083 22.6607 0.729307V0.729307ZM14.3561 22.9441C15.3557 22.49 16.4307 22.2567 17.5165 22.2582C18.6378 22.2582 19.706 22.5021 20.677 22.9441C20.5815 21.7766 20.709 20.6006 21.0516 19.4876C21.3942 18.3745 21.9449 17.3479 22.67 16.4702C21.6042 16.2118 20.5983 15.7251 19.7127 15.0396C18.827 14.3541 18.08 13.4838 17.5165 12.4811C16.9529 13.4839 16.2057 14.3543 15.3199 15.0398C14.4341 15.7254 13.4279 16.2119 12.362 16.4702C13.0872 17.3479 13.638 18.3744 13.9808 19.4874C14.3236 20.6004 14.4513 21.7765 14.3561 22.9441V22.9441ZM17.5165 17.9249C17.4377 17.9196 17.3587 17.9316 17.2844 17.9602C17.2101 17.9889 17.142 18.0335 17.0844 18.0914C17.0268 18.1493 16.9809 18.2192 16.9496 18.2968C16.9182 18.3745 16.902 18.4581 16.902 18.5427C16.902 18.6273 16.9182 18.711 16.9496 18.7886C16.9809 18.8663 17.0268 18.9362 17.0844 18.9941C17.142 19.052 17.2101 19.0966 17.2844 19.1252C17.3587 19.1539 17.4377 19.1659 17.5165 19.1605C17.6632 19.1506 17.8008 19.0812 17.9014 18.9664C18.002 18.8516 18.058 18.7001 18.058 18.5427C18.058 18.3853 18.002 18.2338 17.9014 18.1191C17.8008 18.0043 17.6632 17.9349 17.5165 17.9249ZM14.6266 18.5427C14.6266 17.7218 14.931 16.9346 15.473 16.3541C16.015 15.7736 16.7501 15.4475 17.5165 15.4475C18.283 15.4475 19.0181 15.7736 19.5601 16.3541C20.102 16.9346 20.4065 17.7218 20.4065 18.5427C20.4065 19.3636 20.102 20.1509 19.5601 20.7314C19.0181 21.3118 18.283 21.6379 17.5165 21.6379C16.7501 21.6379 16.015 21.3118 15.473 20.7314C14.931 20.1509 14.6266 19.3636 14.6266 18.5427V18.5427ZM25.5114 31.3803L25.6501 31.1983L25.8697 31.1934C25.9707 31.1915 26.0696 31.2239 26.1523 31.2859C26.2349 31.348 26.2971 31.4365 26.3298 31.5388C26.5576 32.2495 26.7344 32.9527 26.8928 33.6163C26.915 33.7084 26.9127 33.8054 26.8861 33.8962C26.8596 33.987 26.8098 34.068 26.7425 34.1301L26.5807 34.2824L26.3645 34.2489C26.2712 34.2345 26.184 34.1909 26.1139 34.1234C26.0437 34.056 25.9938 33.9679 25.9703 33.8701C25.8147 33.1957 25.6339 32.5282 25.4282 31.8694C25.4018 31.787 25.3956 31.6988 25.4102 31.6132C25.4248 31.5276 25.4596 31.4474 25.5114 31.3803V31.3803ZM27.3379 36.2893L27.1252 36.2571L26.9598 36.4094C26.8838 36.4805 26.8307 36.5756 26.8083 36.6811C26.7858 36.7865 26.7952 36.8968 26.835 36.9962C27.1356 37.7477 27.5402 38.42 28.1644 38.8942C28.2653 38.971 28.3901 39.0027 28.5125 38.9826C28.6348 38.9625 28.7451 38.8921 28.8198 38.7865L28.9678 38.576L28.895 38.3247C28.8645 38.2174 28.8014 38.1242 28.7158 38.0597C28.2881 37.7366 27.9725 37.25 27.7112 36.5951C27.6791 36.5141 27.6279 36.4433 27.5627 36.3897C27.4975 36.3361 27.4204 36.3015 27.339 36.2893H27.3379ZM30.9191 38.7035L30.7712 38.914L30.844 39.1666C30.911 39.3956 31.1249 39.5491 31.3561 39.5194C31.7016 39.4737 32.045 39.4105 32.3849 39.33C32.5083 39.3011 32.616 39.2209 32.6841 39.107C32.7523 38.9931 32.7755 38.8549 32.7485 38.7227C32.7215 38.5906 32.6466 38.4753 32.5403 38.4023C32.4339 38.3293 32.3049 38.3045 32.1815 38.3334C31.8428 38.4114 31.5306 38.4695 31.2416 38.5067C31.1782 38.5147 31.1169 38.5363 31.0614 38.5704C31.006 38.6044 30.9576 38.6501 30.9191 38.7048V38.7035ZM24.5912 29.3598L24.8109 29.3548L24.9496 29.1716C25.0142 29.0861 25.0514 28.9805 25.0556 28.8705C25.0598 28.7606 25.0307 28.6521 24.9727 28.5612C24.7758 28.2526 24.5628 27.9563 24.3346 27.6735C24.2518 27.5712 24.1345 27.5084 24.0084 27.4987C23.8824 27.4891 23.7579 27.5335 23.6624 27.6222C23.5669 27.7108 23.5082 27.8365 23.4992 27.9715C23.4902 28.1065 23.5316 28.2398 23.6144 28.3421C23.8225 28.6009 24.0132 28.8658 24.1866 29.1369C24.2312 29.2074 24.2916 29.2648 24.3623 29.3038C24.433 29.3427 24.5117 29.362 24.5912 29.3598V29.3598ZM30.0614 36.0479L30.0579 36.0454C30.059 36.0463 30.0602 36.0471 30.0614 36.0479V36.0479Z" fill="white"/>
</svg>
