<svg width="42" height="42" viewBox="0 0 42 42" fill="none" xmlns="http://www.w3.org/2000/svg">
<mask id="path-1-inside-1_324_362" fill="white">
<path d="M40.5649 33.6232L33.4701 26.5182L28.0129 24.2603C29.83 21.6726 30.8034 18.5855 30.7999 15.422C30.7999 6.91827 23.8916 0 15.4 0C6.90837 0 0 6.91827 0 15.422C0 23.9258 6.90837 30.844 15.4 30.844C18.5864 30.8477 21.6946 29.856 24.2916 28.007L26.5404 33.4573L33.6349 40.5626C34.0899 41.0183 34.6301 41.3798 35.2246 41.6264C35.8191 41.873 36.4563 42 37.0998 42C37.7432 42 38.3804 41.8731 38.975 41.6265C39.5695 41.3799 40.1097 41.0185 40.5647 40.5629C41.0197 40.1072 41.3807 39.5663 41.6269 38.9709C41.8732 38.3756 42 37.7375 42 37.0931C42 36.4486 41.8733 35.8105 41.6271 35.2152C41.3808 34.6198 41.0199 34.0788 40.5649 33.6232ZM2.79999 15.422C2.79999 8.46459 8.45248 2.804 15.4 2.804C22.3474 2.804 27.9999 8.46459 27.9999 15.422C27.9999 22.3795 22.3474 28.04 15.4 28.04C8.45248 28.04 2.79999 22.3795 2.79999 15.422ZM38.5849 38.5799C38.1907 38.9738 37.6567 39.1949 37.0999 39.1949C36.5431 39.1949 36.0091 38.9738 35.615 38.5799L28.9149 31.8703L26.8242 26.8025L31.8849 28.8962L38.585 35.6059C38.9782 36.0006 39.1991 36.5354 39.199 37.0929C39.199 37.6505 38.9781 38.1853 38.5849 38.5799Z"/>
</mask>
<path d="M40.5649 33.6232L33.4701 26.5182L28.0129 24.2603C29.83 21.6726 30.8034 18.5855 30.7999 15.422C30.7999 6.91827 23.8916 0 15.4 0C6.90837 0 0 6.91827 0 15.422C0 23.9258 6.90837 30.844 15.4 30.844C18.5864 30.8477 21.6946 29.856 24.2916 28.007L26.5404 33.4573L33.6349 40.5626C34.0899 41.0183 34.6301 41.3798 35.2246 41.6264C35.8191 41.873 36.4563 42 37.0998 42C37.7432 42 38.3804 41.8731 38.975 41.6265C39.5695 41.3799 40.1097 41.0185 40.5647 40.5629C41.0197 40.1072 41.3807 39.5663 41.6269 38.9709C41.8732 38.3756 42 37.7375 42 37.0931C42 36.4486 41.8733 35.8105 41.6271 35.2152C41.3808 34.6198 41.0199 34.0788 40.5649 33.6232ZM2.79999 15.422C2.79999 8.46459 8.45248 2.804 15.4 2.804C22.3474 2.804 27.9999 8.46459 27.9999 15.422C27.9999 22.3795 22.3474 28.04 15.4 28.04C8.45248 28.04 2.79999 22.3795 2.79999 15.422ZM38.5849 38.5799C38.1907 38.9738 37.6567 39.1949 37.0999 39.1949C36.5431 39.1949 36.0091 38.9738 35.615 38.5799L28.9149 31.8703L26.8242 26.8025L31.8849 28.8962L38.585 35.6059C38.9782 36.0006 39.1991 36.5354 39.199 37.0929C39.199 37.6505 38.9781 38.1853 38.5849 38.5799Z" fill="white"/>
<path d="M40.5649 33.6232L44.8107 29.3837L44.8106 29.3836L40.5649 33.6232ZM33.4701 26.5182L37.7157 22.2786L36.87 21.4316L35.7639 20.974L33.4701 26.5182ZM28.0129 24.2603L23.1025 20.8123L18.7988 26.9414L25.719 29.8045L28.0129 24.2603ZM30.7999 15.422L24.7999 15.422L24.7999 15.4287L30.7999 15.422ZM15.4 30.844L15.4068 24.844H15.4V30.844ZM24.2916 28.007L29.8381 25.7186L26.9597 18.7422L20.8117 23.1192L24.2916 28.007ZM26.5404 33.4573L20.9939 35.7457L21.4498 36.8508L22.2945 37.6967L26.5404 33.4573ZM33.6349 40.5626L29.3891 44.8021L29.3891 44.8021L33.6349 40.5626ZM38.5849 38.5799L42.8257 42.8244L42.8353 42.8148L38.5849 38.5799ZM35.615 38.5799L31.3693 42.8195L31.3741 42.8244L35.615 38.5799ZM28.9149 31.8703L23.3684 34.1585L23.8244 35.2638L24.6692 36.1099L28.9149 31.8703ZM26.8242 26.8025L29.118 21.2583L15.7678 15.7351L21.2777 29.0907L26.8242 26.8025ZM31.8849 28.8962L36.1306 24.6566L35.2848 23.8096L34.1787 23.352L31.8849 28.8962ZM38.585 35.6059L42.8359 31.3715L42.8307 31.3662L38.585 35.6059ZM44.8106 29.3836L37.7157 22.2786L29.2244 30.7578L36.3192 37.8628L44.8106 29.3836ZM35.7639 20.974L30.3067 18.7161L25.719 29.8045L31.1762 32.0624L35.7639 20.974ZM32.9232 27.7083C35.4511 24.1083 36.8048 19.8145 36.7999 15.4154L24.7999 15.4287C24.8021 17.3565 24.2088 19.2369 23.1025 20.8123L32.9232 27.7083ZM36.7999 15.422C36.7999 3.61266 27.2134 -6 15.4 -6V6C20.5698 6 24.7999 10.2239 24.7999 15.422L36.7999 15.422ZM15.4 -6C3.58657 -6 -6 3.61266 -6 15.422H6C6 10.2239 10.2302 6 15.4 6V-6ZM-6 15.422C-6 27.2314 3.58657 36.844 15.4 36.844V24.844C10.2302 24.844 6 20.6202 6 15.422H-6ZM15.3931 36.844C19.8299 36.8491 24.1569 35.4682 27.7715 32.8948L20.8117 23.1192C19.2322 24.2437 17.3429 24.8463 15.4068 24.844L15.3931 36.844ZM18.7452 30.2954L20.9939 35.7457L32.0868 31.1689L29.8381 25.7186L18.7452 30.2954ZM22.2945 37.6967L29.3891 44.8021L37.8808 36.3232L30.7862 29.2179L22.2945 37.6967ZM29.3891 44.8021C30.4009 45.8154 31.6025 46.6196 32.9255 47.1685L37.5237 36.0844C37.6577 36.14 37.779 36.2213 37.8807 36.3232L29.3891 44.8021ZM32.9255 47.1685C34.2486 47.7173 35.667 48 37.0996 48L37.1 36C37.2456 36 37.3896 36.0287 37.5237 36.0844L32.9255 47.1685ZM37.0996 48C38.5322 48 39.9506 47.7175 41.2737 47.1687L36.6762 36.0843C36.8103 36.0287 36.9543 36 37.1 36L37.0996 48ZM41.2737 47.1687C42.5968 46.6199 43.7984 45.8158 44.8102 44.8026L36.3191 36.3231C36.4209 36.2212 36.5422 36.1399 36.6762 36.0843L41.2737 47.1687ZM44.8102 44.8026C45.822 43.7894 46.6242 42.587 47.1713 41.2644L36.0826 36.6774C36.1372 36.5455 36.2174 36.425 36.3191 36.3231L44.8102 44.8026ZM47.1713 41.2644C47.7184 39.9417 48 38.5244 48 37.0932L36 37.0929C36 36.9505 36.028 36.8094 36.0826 36.6774L47.1713 41.2644ZM48 37.0932C48 35.6621 47.7186 34.2447 47.1716 32.9221L36.0826 37.5083C36.028 37.3764 36 37.2352 36 37.0929L48 37.0932ZM47.1716 32.9221C46.6245 31.5994 45.8224 30.3969 44.8107 29.3837L36.3191 37.8626C36.2174 37.7608 36.1371 37.6403 36.0826 37.5083L47.1716 32.9221ZM8.79999 15.422C8.79999 11.7702 11.7743 8.804 15.4 8.804V-3.196C5.13068 -3.196 -3.20001 5.15898 -3.20001 15.422H8.79999ZM15.4 8.804C19.0256 8.804 21.9999 11.7702 21.9999 15.422H33.9999C33.9999 5.15898 25.6693 -3.196 15.4 -3.196V8.804ZM21.9999 15.422C21.9999 19.0738 19.0256 22.04 15.4 22.04V34.04C25.6693 34.04 33.9999 25.6851 33.9999 15.422H21.9999ZM15.4 22.04C11.7743 22.04 8.79999 19.0738 8.79999 15.422H-3.20001C-3.20001 25.6851 5.13068 34.04 15.4 34.04V22.04ZM34.344 34.3355C35.0741 33.6061 36.065 33.1949 37.0999 33.1949V45.1949C39.2484 45.1949 41.3074 44.3414 42.8257 42.8244L34.344 34.3355ZM37.0999 33.1949C38.1348 33.1949 39.1258 33.6061 39.8558 34.3355L31.3741 42.8244C32.8924 44.3414 34.9514 45.1949 37.0999 45.1949V33.1949ZM39.8606 34.3403L33.1606 27.6307L24.6692 36.1099L31.3693 42.8195L39.8606 34.3403ZM34.4615 29.5821L32.3707 24.5143L21.2777 29.0907L23.3684 34.1585L34.4615 29.5821ZM24.5304 32.3468L29.5912 34.4405L34.1787 23.352L29.118 21.2583L24.5304 32.3468ZM27.6393 33.1359L34.3394 39.8455L42.8307 31.3662L36.1306 24.6566L27.6393 33.1359ZM34.3342 39.8402C33.6062 39.1094 33.199 38.1211 33.199 37.0926L45.199 37.0933C45.1991 34.9496 44.3503 32.8917 42.8359 31.3715L34.3342 39.8402ZM33.199 37.0926C33.1991 36.064 33.6064 35.0758 34.3345 34.3451L42.8353 42.8148C44.3498 41.2947 45.1989 39.2369 45.199 37.0933L33.199 37.0926Z" fill="white" mask="url(#path-1-inside-1_324_362)"/>
</svg>
