<svg width="30" height="33" viewBox="0 0 30 33" fill="none" xmlns="http://www.w3.org/2000/svg">
<path d="M27.099 10.05L25.6018 11.55C28.2968 14.25 28.2968 18.45 25.6018 21.3L27.099 22.8C30.842 19.35 30.842 13.65 27.099 10.05ZM23.9549 13.2L22.4578 14.7C23.2064 15.75 23.2064 17.1 22.4578 18.15L23.9549 19.65C25.7516 17.85 25.7516 15.15 23.9549 13.2ZM17.9662 0H2.99437C1.34747 0 0 1.35 0 3V30C0 31.65 1.34747 33 2.99437 33H17.9662C19.6131 33 20.9606 31.65 20.9606 30V3C20.9606 1.35 19.6131 0 17.9662 0ZM17.9662 28.5H2.99437V4.5H17.9662V28.5Z" fill="white"/>
</svg>
