<svg width="45" height="41" viewBox="0 0 45 41" fill="none" xmlns="http://www.w3.org/2000/svg">
<mask id="path-1-inside-1_56_12" fill="white">
<path d="M14.5 3C15.9834 3 17.4334 3.43987 18.6668 4.26398C19.9001 5.08809 20.8614 6.25943 21.4291 7.62987C21.9968 9.00032 22.1453 10.5083 21.8559 11.9632C21.5665 13.418 20.8522 14.7544 19.8033 15.8033C18.7544 16.8522 17.418 17.5665 15.9632 17.8559C14.5083 18.1453 13.0003 17.9967 11.6299 17.4291C10.2594 16.8614 9.08809 15.9001 8.26398 14.6668C7.43987 13.4334 7 11.9834 7 10.5C7 8.51087 7.79018 6.60322 9.1967 5.1967C10.6032 3.79018 12.5109 3 14.5 3ZM14.5 0C12.4233 0 10.3932 0.615814 8.66652 1.76957C6.9398 2.92332 5.59399 4.5632 4.79927 6.48182C4.00455 8.40045 3.79661 10.5116 4.20176 12.5484C4.6069 14.5852 5.60693 16.4562 7.07538 17.9246C8.54383 19.3931 10.4148 20.3931 12.4516 20.7982C14.4884 21.2034 16.5996 20.9954 18.5182 20.2007C20.4368 19.406 22.0767 18.0602 23.2304 16.3335C24.3842 14.6068 25 12.5767 25 10.5C25 7.71523 23.8938 5.04451 21.9246 3.07538C19.9555 1.10625 17.2848 0 14.5 0Z"/>
</mask>
<path d="M14.5 3C15.9834 3 17.4334 3.43987 18.6668 4.26398C19.9001 5.08809 20.8614 6.25943 21.4291 7.62987C21.9968 9.00032 22.1453 10.5083 21.8559 11.9632C21.5665 13.418 20.8522 14.7544 19.8033 15.8033C18.7544 16.8522 17.418 17.5665 15.9632 17.8559C14.5083 18.1453 13.0003 17.9967 11.6299 17.4291C10.2594 16.8614 9.08809 15.9001 8.26398 14.6668C7.43987 13.4334 7 11.9834 7 10.5C7 8.51087 7.79018 6.60322 9.1967 5.1967C10.6032 3.79018 12.5109 3 14.5 3ZM14.5 0C12.4233 0 10.3932 0.615814 8.66652 1.76957C6.9398 2.92332 5.59399 4.5632 4.79927 6.48182C4.00455 8.40045 3.79661 10.5116 4.20176 12.5484C4.6069 14.5852 5.60693 16.4562 7.07538 17.9246C8.54383 19.3931 10.4148 20.3931 12.4516 20.7982C14.4884 21.2034 16.5996 20.9954 18.5182 20.2007C20.4368 19.406 22.0767 18.0602 23.2304 16.3335C24.3842 14.6068 25 12.5767 25 10.5C25 7.71523 23.8938 5.04451 21.9246 3.07538C19.9555 1.10625 17.2848 0 14.5 0Z" fill="white"/>
<path d="M7 10.5H-0.999996H7ZM14.5 11C14.4011 11 14.3044 10.9707 14.2222 10.9157L23.1113 -2.38778C20.5624 -4.09094 17.5656 -5 14.5 -5V11ZM14.2222 10.9157C14.14 10.8608 14.0759 10.7827 14.0381 10.6913L28.8201 4.5684C27.647 1.73615 25.6603 -0.68462 23.1113 -2.38778L14.2222 10.9157ZM14.0381 10.6913C14.0002 10.6 13.9903 10.4994 14.0096 10.4025L29.7022 13.5239C30.3002 10.5172 29.9933 7.40066 28.8201 4.5684L14.0381 10.6913ZM14.0096 10.4025C14.0289 10.3055 14.0765 10.2164 14.1464 10.1464L25.4602 21.4602C27.6279 19.2924 29.1041 16.5306 29.7022 13.5239L14.0096 10.4025ZM14.1464 10.1464C14.2164 10.0765 14.3055 10.0289 14.4025 10.0096L17.5239 25.7022C20.5306 25.1041 23.2924 23.6279 25.4602 21.4602L14.1464 10.1464ZM14.4025 10.0096C14.4994 9.99031 14.6 10.0002 14.6913 10.0381L8.56841 24.8201C11.4007 25.9933 14.5172 26.3002 17.5239 25.7022L14.4025 10.0096ZM14.6913 10.0381C14.7827 10.0759 14.8608 10.14 14.9157 10.2222L1.61222 19.1113C3.31539 21.6603 5.73616 23.647 8.56841 24.8201L14.6913 10.0381ZM14.9157 10.2222C14.9707 10.3044 15 10.4011 15 10.5H-0.999996C-0.999996 13.5656 -0.0909371 16.5624 1.61222 19.1113L14.9157 10.2222ZM15 10.5C15 10.6326 14.9473 10.7598 14.8536 10.8536L3.53985 -0.460156C0.633035 2.44666 -0.999996 6.38914 -0.999996 10.5H15ZM14.8536 10.8536C14.7598 10.9473 14.6326 11 14.5 11V-5C10.3891 -5 6.44666 -3.36697 3.53985 -0.460156L14.8536 10.8536ZM14.5 -8C10.841 -8 7.26426 -6.91499 4.22195 -4.88219L13.1111 8.42133C13.5222 8.14662 14.0056 8 14.5 8V-8ZM4.22195 -4.88219C1.17965 -2.84938 -1.19155 0.0399212 -2.59177 3.42036L12.1903 9.54329C12.3795 9.08648 12.7 8.69603 13.1111 8.42133L4.22195 -4.88219ZM-2.59177 3.42036C-3.99199 6.80079 -4.35835 10.5205 -3.64452 14.1092L12.048 10.9877C11.9516 10.5028 12.0011 10.0001 12.1903 9.54329L-2.59177 3.42036ZM-3.64452 14.1092C-2.9307 17.6978 -1.16874 20.9942 1.41853 23.5815L12.7322 12.2678C12.3826 11.9181 12.1445 11.4727 12.048 10.9877L-3.64452 14.1092ZM1.41853 23.5815C4.0058 26.1687 7.30218 27.9307 10.8908 28.6445L14.0123 12.952C13.5273 12.8555 13.0819 12.6174 12.7322 12.2678L1.41853 23.5815ZM10.8908 28.6445C14.4795 29.3583 18.1992 28.992 21.5796 27.5918L15.4567 12.8097C14.9999 12.9989 14.4972 13.0484 14.0123 12.952L10.8908 28.6445ZM21.5796 27.5918C24.9601 26.1915 27.8494 23.8204 29.8822 20.778L16.5787 11.8889C16.304 12.3 15.9135 12.6205 15.4567 12.8097L21.5796 27.5918ZM29.8822 20.778C31.915 17.7357 33 14.1589 33 10.5H17C17 10.9945 16.8534 11.4778 16.5787 11.8889L29.8822 20.778ZM33 10.5C33 5.59349 31.0509 0.887945 27.5815 -2.58148L16.2678 8.73223C16.7366 9.20107 17 9.83696 17 10.5H33ZM27.5815 -2.58148C24.1121 -6.0509 19.4065 -8 14.5 -8V8C15.163 8 15.7989 8.26339 16.2678 8.73223L27.5815 -2.58148Z" fill="white" mask="url(#path-1-inside-1_56_12)"/>
<mask id="path-3-inside-2_56_12" fill="white">
<path d="M29 41H26.1V33.9167C26.1 32.038 25.3362 30.2364 23.9765 28.908C22.6169 27.5796 20.7728 26.8333 18.85 26.8333H10.15C8.22718 26.8333 6.38311 27.5796 5.02348 28.908C3.66384 30.2364 2.9 32.038 2.9 33.9167V41H0V33.9167C0 31.2866 1.06937 28.7643 2.97287 26.9045C4.87636 25.0448 7.45805 24 10.15 24H18.85C21.5419 24 24.1236 25.0448 26.0271 26.9045C27.9306 28.7643 29 31.2866 29 33.9167V41Z"/>
</mask>
<path d="M29 41H26.1V33.9167C26.1 32.038 25.3362 30.2364 23.9765 28.908C22.6169 27.5796 20.7728 26.8333 18.85 26.8333H10.15C8.22718 26.8333 6.38311 27.5796 5.02348 28.908C3.66384 30.2364 2.9 32.038 2.9 33.9167V41H0V33.9167C0 31.2866 1.06937 28.7643 2.97287 26.9045C4.87636 25.0448 7.45805 24 10.15 24H18.85C21.5419 24 24.1236 25.0448 26.0271 26.9045C27.9306 28.7643 29 31.2866 29 33.9167V41Z" fill="white"/>
<path d="M29 41V49H37V41H29ZM26.1 41H18.1V49H26.1V41ZM2.9 33.9167H-5.1H2.9ZM2.9 41V49H10.9V41H2.9ZM0 41H-8V49H0V41ZM10.15 24V16V24ZM29 33H26.1V49H29V33ZM34.1 41V33.9167H18.1V41H34.1ZM34.1 33.9167C34.1 29.8555 32.447 25.9993 29.5672 23.1857L18.3858 34.6302C18.2253 34.4734 18.1 34.2206 18.1 33.9167H34.1ZM29.5672 23.1857C26.6938 20.3783 22.8353 18.8333 18.85 18.8333V34.8333C18.7103 34.8333 18.54 34.7809 18.3858 34.6302L29.5672 23.1857ZM18.85 18.8333H10.15V34.8333H18.85V18.8333ZM10.15 18.8333C6.16471 18.8333 2.30624 20.3783 -0.567223 23.1857L10.6142 34.6302C10.46 34.7809 10.2897 34.8333 10.15 34.8333V18.8333ZM-0.567223 23.1857C-3.447 25.9993 -5.1 29.8555 -5.1 33.9167H10.9C10.9 34.2206 10.7747 34.4734 10.6142 34.6302L-0.567223 23.1857ZM-5.1 33.9167V41H10.9V33.9167H-5.1ZM2.9 33H0V49H2.9V33ZM8 41V33.9167H-8V41H8ZM8 33.9167C8 33.4692 8.18021 33.0013 8.56357 32.6268L-2.61783 21.1823C-6.04147 24.5272 -8 29.104 -8 33.9167H8ZM8.56357 32.6268C8.95324 32.2461 9.52053 32 10.15 32V16C5.39558 16 0.799485 17.8435 -2.61783 21.1823L8.56357 32.6268ZM10.15 32H18.85V16H10.15V32ZM18.85 32C19.4795 32 20.0468 32.2461 20.4364 32.6268L31.6178 21.1823C28.2005 17.8435 23.6044 16 18.85 16V32ZM20.4364 32.6268C20.8198 33.0013 21 33.4692 21 33.9167H37C37 29.104 35.0415 24.5272 31.6178 21.1823L20.4364 32.6268ZM21 33.9167V41H37V33.9167H21Z" fill="white" mask="url(#path-3-inside-2_56_12)"/>
<mask id="path-5-inside-3_56_12" fill="white">
<path d="M29 3H45V6H29V3Z"/>
</mask>
<path d="M29 3H45V6H29V3Z" fill="white"/>
<path d="M29 3V-5H21V3H29ZM45 3H53V-5H45V3ZM45 6V14H53V6H45ZM29 6H21V14H29V6ZM29 11H45V-5H29V11ZM37 3V6H53V3H37ZM45 -2H29V14H45V-2ZM37 6V3H21V6H37Z" fill="white" mask="url(#path-5-inside-3_56_12)"/>
<mask id="path-7-inside-4_56_12" fill="white">
<path d="M29 10H45V13H29V10Z"/>
</mask>
<path d="M29 10H45V13H29V10Z" fill="white"/>
<path d="M29 10V2H21V10H29ZM45 10H53V2H45V10ZM45 13V21H53V13H45ZM29 13H21V21H29V13ZM29 18H45V2H29V18ZM37 10V13H53V10H37ZM45 5H29V21H45V5ZM37 13V10H21V13H37Z" fill="white" mask="url(#path-7-inside-4_56_12)"/>
<mask id="path-9-inside-5_56_12" fill="white">
<path d="M29 18H41V21H29V18Z"/>
</mask>
<path d="M29 18H41V21H29V18Z" fill="white"/>
<path d="M29 18V10H21V18H29ZM41 18H49V10H41V18ZM41 21V29H49V21H41ZM29 21H21V29H29V21ZM29 26H41V10H29V26ZM33 18V21H49V18H33ZM41 13H29V29H41V13ZM37 21V18H21V21H37Z" fill="white" mask="url(#path-9-inside-5_56_12)"/>
</svg>
