<svg width="42" height="42" viewBox="0 0 42 42" fill="none" xmlns="http://www.w3.org/2000/svg">
<path fill-rule="evenodd" clip-rule="evenodd" d="M27.5154 19.6852C28.8687 19.6852 30.1894 19.3177 31.307 18.6305C32.441 19.3165 33.7803 19.6758 35.1453 19.6618L39.4852 18.2385C40.7067 17.3297 41.5467 16.0708 41.8617 14.6708C42.1767 13.2708 41.9503 11.8172 41.2177 10.5502C40.4862 9.28433 39.2927 8.28217 37.8402 7.714C37.5077 6.35833 36.6724 5.14733 35.4708 4.27933L31.2359 2.9435H30.7575C29.8161 1.7045 28.4021 0.820167 26.7839 0.459667L17.704 0C16.1943 0.113167 14.771 0.680167 13.6639 1.61C13.1383 1.49864 12.6028 1.44118 12.0656 1.4385C10.7773 1.43731 9.51172 1.77746 8.39763 2.42433C7.30682 3.06483 6.44351 3.976 5.91502 5.04933L2.46292 7.252C1.60427 8.30083 1.14228 9.57017 1.14461 10.8722C1.13615 11.419 1.21653 11.9635 1.3826 12.4845C0.478456 13.5427 -0.00920163 14.8435 0.00013152 16.1805C-0.00220177 17.731 0.654619 19.222 1.83643 20.349C1.93093 21.4585 2.36142 22.5237 3.08007 23.429C3.82508 24.3535 4.80276 25.063 5.91268 25.4847C7.19522 26.201 8.30197 27.1942 9.15245 28.392C9.96836 29.544 10.4928 30.8767 10.6808 32.2758H19.5893V25.8288C19.5923 24.6702 19.9492 23.5402 20.6124 22.5902C21.3093 21.5952 22.2673 20.812 23.3808 20.3268C24.0225 20.1075 24.1788 19.81 24.3725 19.4448C24.5008 19.2022 24.6455 18.9292 24.9593 18.6305C25.2311 18.7973 25.4423 18.9455 25.6255 19.075C26.1936 19.4752 26.4923 19.6852 27.5154 19.6852V19.6852ZM32.7047 16.7358C33.3495 17.0805 34.0627 17.2781 34.793 17.3145L38.3582 16.1455C39.0092 15.5797 39.4222 14.8773 39.5855 14.1505C39.7709 13.318 39.6324 12.4462 39.1982 11.7122C38.749 10.9352 37.9849 10.2702 36.9898 9.8805L35.8616 9.43833L35.5734 8.26233C35.4043 7.574 34.9995 6.90667 34.3695 6.37233L30.8765 5.26983H29.6014L28.9014 4.34817C28.3461 3.619 27.4898 3.04267 26.4515 2.77317L17.746 2.33217C16.7989 2.41975 15.8998 2.78868 15.1642 3.3915L14.2915 4.123L13.1785 3.88617C12.8114 3.80858 12.4373 3.76832 12.0621 3.766C11.1637 3.76833 10.3004 4.00633 9.57828 4.42983C8.85613 4.85333 8.32297 5.4355 8.00681 6.07483L7.71865 6.65817L4.07289 8.98683C3.67389 9.57017 3.4779 10.22 3.47906 10.8617V10.9025C3.4744 11.193 3.51756 11.4847 3.60739 11.7705L4.00172 13.0072L3.15824 13.9942C2.60058 14.6452 2.32992 15.4082 2.33459 16.1583V16.177C2.33459 17.052 2.70208 17.9422 3.44757 18.6538L4.08689 19.264L4.16155 20.1425C4.21638 20.7783 4.46488 21.4118 4.9082 21.9718C5.35619 22.5353 5.98852 23.0043 6.75733 23.3018L6.91483 23.3637L7.06183 23.4465C7.23332 23.5433 7.40015 23.6437 7.56582 23.7475L7.55882 23.7522C10.7309 25.6877 12.0761 28.504 12.5334 29.9437H13.2474V21.4352L10.6773 19.1497L8.93196 20.895C8.71193 21.1075 8.41723 21.2251 8.11134 21.2225C7.80545 21.2198 7.51284 21.0971 7.29654 20.8808C7.08023 20.6645 6.95754 20.3719 6.95488 20.066C6.95222 19.7601 7.06981 19.4654 7.28232 19.2453L9.37295 17.1547L8.7453 13.7048L5.90335 12.2838C5.76631 12.2153 5.64411 12.1204 5.54374 12.0046C5.44336 11.8888 5.36678 11.7544 5.31835 11.609C5.26993 11.4636 5.25061 11.3101 5.26151 11.1573C5.2724 11.0044 5.3133 10.8552 5.38186 10.7182C5.45042 10.5811 5.5453 10.4589 5.66109 10.3585C5.77687 10.2582 5.91129 10.1816 6.05667 10.1332C6.20206 10.0847 6.35556 10.0654 6.5084 10.0763C6.66125 10.0872 6.81045 10.1281 6.9475 10.1967L9.72061 11.5827L13.1167 9.422L12.0609 6.6045C11.9617 6.31707 11.9787 6.00227 12.1082 5.72716C12.2376 5.45204 12.4694 5.23834 12.7541 5.13158C13.0388 5.02482 13.3539 5.03342 13.6324 5.15556C13.9108 5.2777 14.1306 5.50373 14.2449 5.7855L15.38 8.813H16.6365L17.2361 7.6125L16.2853 5.3935C16.2224 5.25228 16.1881 5.09997 16.1846 4.9454C16.181 4.79083 16.2082 4.6371 16.2646 4.49314C16.321 4.34917 16.4054 4.21785 16.513 4.10681C16.6205 3.99576 16.7491 3.9072 16.8912 3.84628C17.0333 3.78536 17.1861 3.75329 17.3407 3.75193C17.4953 3.75058 17.6486 3.77997 17.7918 3.83839C17.9349 3.89681 18.065 3.9831 18.1745 4.09225C18.284 4.20139 18.3707 4.33121 18.4296 4.47417L19.2486 6.38517L22.5012 6.97667L22.514 6.965L24.6175 5.285C24.8591 5.09161 25.1677 5.00214 25.4753 5.03628C25.7829 5.07041 26.0644 5.22534 26.2578 5.467C26.4512 5.70866 26.5406 6.01724 26.5065 6.32486C26.4724 6.63248 26.3174 6.91395 26.0758 7.10733L24.67 8.23083L26.2275 10.234L26.8259 9.03817C26.9229 8.84423 27.0719 8.68113 27.2563 8.56717C27.4408 8.45321 27.6533 8.3929 27.8701 8.393H30.3924C30.7018 8.393 30.9985 8.51592 31.2173 8.73471C31.4361 8.9535 31.559 9.25025 31.559 9.55967C31.559 9.86909 31.4361 10.1658 31.2173 10.3846C30.9985 10.6034 30.7018 10.7263 30.3924 10.7263H28.5911L28.2772 11.3517L30.2255 11.7845C30.3189 11.8055 30.4087 11.837 30.4939 11.8802L32.175 12.7202C32.3121 12.7887 32.4344 12.8835 32.5349 12.9992C32.6354 13.115 32.7121 13.2494 32.7606 13.3948C32.8091 13.5401 32.8285 13.6937 32.8178 13.8466C32.807 13.9994 32.7661 14.1487 32.6977 14.2858C32.6292 14.423 32.5344 14.5452 32.4186 14.6457C32.3029 14.7462 32.1685 14.8229 32.0231 14.8714C31.7295 14.9694 31.409 14.9468 31.132 14.8085L29.5781 14.0315L25.9346 13.2218C25.6697 13.1626 25.4337 13.0128 25.2673 12.7983L22.5969 9.366L19.3618 8.778C19.3151 8.8165 19.2649 8.8515 19.2101 8.883L18.5253 10.2562V10.9153H19.8809C20.062 10.9155 20.2405 10.9579 20.4024 11.039L23.7658 12.7202C23.903 12.7887 24.0252 12.8835 24.1257 12.9992C24.2262 13.115 24.3029 13.2494 24.3514 13.3948C24.4 13.5401 24.4194 13.6937 24.4086 13.8466C24.3978 13.9994 24.357 14.1487 24.2885 14.2858C24.22 14.423 24.1252 14.5452 24.0094 14.6457C23.8937 14.7462 23.7593 14.8229 23.6139 14.8714C23.4685 14.92 23.315 14.9394 23.1621 14.9286C23.0092 14.9178 22.86 14.877 22.7229 14.8085L19.6056 13.2487H18.5253V15.0255C18.5253 15.3349 18.4024 15.6317 18.1836 15.8505C17.9648 16.0693 17.668 16.1922 17.3586 16.1922C17.0492 16.1922 16.7525 16.0693 16.5337 15.8505C16.3149 15.6317 16.192 15.3349 16.192 15.0255V11.1463H14.7547L11.0786 13.4855L11.7074 16.9423L15.1898 20.0387C15.3131 20.1482 15.4118 20.2826 15.4794 20.433C15.547 20.5834 15.5819 20.7464 15.5818 20.9113V29.9437H17.2595V25.7833C17.2595 22.631 19.0199 20.6967 19.9812 19.7808C20.7512 19.0482 21.9062 18.431 22.388 18.2128C22.4837 17.9993 22.8092 17.4428 23.3493 16.933L24.6618 15.6882C26.1061 16.5142 27.2273 17.3425 27.2273 17.3425C27.2273 17.3425 28.7217 17.2608 29.4007 16.9878C29.9444 16.7685 30.8917 16.1607 31.2965 15.8842L32.7058 16.7358H32.7047Z" fill="#FFFDFD"/>
<path d="M10.501 37.3333H19.8341V35H10.501V37.3333Z" fill="#FFFDFD"/>
<path d="M19.8341 41.9998H10.501V39.6665H19.8341V41.9998Z" fill="#FFFDFD"/>
</svg>
