<svg width="44" height="42" viewBox="0 0 44 42" fill="none" xmlns="http://www.w3.org/2000/svg">
<path d="M20.2414 3.20268C20.8494 1.59911 23.1503 1.59911 23.7602 3.20268L27.6931 14.0971C27.9686 14.8191 28.6697 15.2998 29.4525 15.2998H39.1176C40.9036 15.2998 41.6826 17.5228 40.2785 18.6114L33.4006 24.7997C33.0925 25.0365 32.8674 25.3649 32.7575 25.7376C32.6475 26.1103 32.6585 26.5083 32.7888 26.8744L35.3006 37.52C35.9124 39.2299 33.9326 40.6986 32.4354 39.646L23.0933 33.7181C22.7733 33.4933 22.3918 33.3726 22.0008 33.3726C21.6097 33.3726 21.2282 33.4933 20.9083 33.7181L11.5661 39.646C10.0709 40.6986 8.0892 39.228 8.70099 37.52L11.2127 26.8744C11.343 26.5083 11.354 26.1103 11.2441 25.7376C11.1342 25.3649 10.9091 25.0365 10.601 24.7997L3.72306 18.6114C2.31708 17.5228 3.09987 15.2998 4.88204 15.2998H14.5472C14.9277 15.3011 15.2997 15.1868 15.6139 14.972C15.928 14.7572 16.1696 14.4522 16.3066 14.0971L20.2395 3.20268H20.2414Z" stroke="white" stroke-width="4" stroke-linecap="round" stroke-linejoin="round"/>
</svg>
